<svg xmlns="http://www.w3.org/2000/svg" width="900" height="600" viewBox="0 0 384 256"><path fill="#fcdd09" d="M0 0h384v256H0z"/><path fill="#da121a" d="M0 170.67h384V256H0z"/><path fill="#078930" d="M0 0h384v85.33H0z"/><path fill="#161413" fill-rule="evenodd" d="m176.73 114.07-1.03-.06-1-.03h-.98l-.94.05-.9.08-.86.13-.82.16-.79.18-.77.18-.74.2-.73.21-.7.22-.7.23-.67.23-.66.25-.64.24-.62.25-.61.26-.6.26-.59.26-.57.26-.56.26-.55.26-.55.25-.53.26-.52.25-.52.24-.52.23-.5.23-.5.22-.5.21-.5.2-.5.19-.48.18-.5.16-.49.15-.49.13-.5.12-.5.1-.5.08-.51.05-.52.04-.52.02h-.52l-.51-.02-.52-.05-.5-.06-.51-.1-.5-.1-.48-.13-.47-.16-.46-.17-.44-.2-.43-.22-.4-.25-.39-.26-.36-.3-.34-.3-.3-.34-.3-.36-.25-.38-.23-.41-.2-.43-.16-.46-.13-.49-.09-.51-.05-.55-.02-.57.03-.6.07-.63.04-.18.04-.18.06-.18.08-.18.09-.18.1-.19.12-.18.13-.18.14-.18.16-.17.17-.18.18-.17.2-.17.21-.16.22-.16.24-.16.25-.15.26-.14.28-.14.29-.13.3-.13.3-.12.33-.1.34-.11.34-.1.36-.08.37-.08.38-.07.4-.05.4-.05.42-.04.42-.02 1.01-.04h2.15l1.12.04 1.15.04 1.17.07 1.2.08 1.21.1 1.23.1 1.24.11 1.25.12 1.26.13 1.25.13 1.26.13 1.24.13 1.24.13 1.23.13 1.22.12 1.19.12 1.17.1 1.15.1 1.12.09 1.08.07 1.06.05 1 .04.98.01h.93l.88-.03.83-.05.77-.08.72-.1.66-.15.9-.24.83-.28.78-.3.72-.31.67-.35.62-.36.57-.38.51-.4.47-.41.43-.43.38-.43.34-.45.3-.46.25-.46.22-.46.18-.46.15-.47.12-.46.1-.46.05-.46.04-.44.01-.44-.01-.42-.03-.42-.05-.4-.07-.38-.08-.36-.1-.35-.1-.33-.11-.3-.12-.28-.12-.24-.29-.7-.34-.62-.37-.54-.41-.46-.45-.38-.48-.3-.5-.23-.54-.17-.55-.11-.56-.06h-.59l-.6.02-.6.06-.62.1-.63.1-.64.13-.64.14-.65.14-.66.15-.66.13-.66.13-.66.11-.65.09-.66.06-.64.03h-.64l-.64-.05-.62-.09-.6-.14-.6-.2-.58-.26-1.64-.94 1.08 1.85.48.76.48.72.49.67.49.63.5.6.5.54.5.5.5.46.51.42.51.38.52.34.52.3.52.26.53.21.52.18.53.13.52.1.53.06.53.01.52-.02.52-.06.52-.1.52-.13.51-.17.51-.2.5-.25.5-.28.5-.3.49-.35.48-.38.23-.2.03.06.06.14.06.16.04.18.04.2.02.22v.23l-.02.24-.03.26-.05.26-.08.27-.1.28-.12.28-.14.28-.18.28-.2.28-.24.28-.27.27-.3.27-.34.25-.38.25-.41.24-.46.22-.5.2-.54.2-.59.17-.63.15-.68.13-.74.1-.79.07-.83.05-.86.02h-.89l-.9-.03-.93-.05-.95-.06-.97-.08-.98-.1-1-.12-1.03-.12-1.03-.13-1.05-.15-1.06-.15-1.07-.15-1.08-.16-1.09-.16-1.1-.15-1.1-.16-1.11-.15-1.12-.15-1.12-.14-1.13-.13-1.12-.11-1.12-.1-1.13-.1-1.12-.07-1.12-.06-1.12-.03-1.11-.01-1.1.01-1.1.04-1.1.06-.57.05-.55.06-.56.08-.54.08-.53.1-.52.11-.51.13-.5.13-.5.15-.47.16-.47.17-.46.18-.44.2-.43.2-.41.22-.4.22-.39.24-.37.25-.35.26-.34.27-.33.29-.3.29-.3.3-.27.32-.25.32-.24.34-.21.34-.2.36-.17.36-.16.37-.13.39-.1.4-.25 1.1-.14 1.06-.06 1.02.03.98.1.94.18.9.25.86.32.81.38.77.44.73.49.69.54.64.58.6.63.56.66.5.7.48.71.43.75.38.76.35.78.3.79.26.8.22.8.17.79.14.8.1.78.05h.77l.76-.02.73-.07.71-.11.69-.16.23-.07.02.37-.02.75-.05.71-.08.68-.12.65-.15.63-.18.6-.21.57-.23.55-.26.53-.29.51-.3.5-.32.48-.34.47-.36.45-.37.45-.39.44-.39.43-.4.43-.41.42-.42.42-.41.42-.42.42-.42.43-.41.43-.41.43-.4.45-.4.45-.39.47-.36.48-.36.5-.33.5-.13.17-.15.17-.2.19-.22.19-.25.19-.29.2-.31.2-.34.21-.37.21-.38.21-.4.21-.43.22-.44.21-.46.21-.47.22-.48.2-.5.22-.5.21-.5.2-.5.21-.52.2-.51.2-.52.2-.5.2-.51.18-.5.19-.5.18-.49.17-.47.17-.46.16-.45.16-.38.14h-.16l-.2.02-.2.02-.19.04-.18.05-.18.06-.16.08-.16.08-.15.1-.15.11-.13.12-.12.13-.11.15-.1.15-.1.17-.07.17-.08.18-.06.19-.05.2-.04.2-.03.22-.03.23-.01.23v.75l.02.27.03.28.04.29.04.3.05.3.08.37.14.22.1.17.09.16.08.17.08.17.07.17.07.16.06.17.05.17.05.18.04.17.04.17.03.18.02.17.02.18.01.18v.17l.01.18v.18l-.01.18-.01.19-.02.18-.03.18-.02.19-.04.19-.03.18-.05.2-.04.18-.05.2-.06.18-.06.2-.02.05-.04.02-.17.08-.17.08-.16.09-.15.1-.15.09-.14.1-.13.12-.12.13-.11.13-.1.15-.08.15-.07.17-.05.18-.02.18-.01.2.01.2.04.2.05.2.08.23.1.22.12.24.14.24.16.25.18.27.21.27.24.29.26.3.29.31.31.33.34.34.47.45h1.29l.29.01h.3l.3.02.3.01.3.02.31.02.31.02.31.02.31.02.31.03.31.03.31.03.31.03.31.04.31.03.31.05.31.04.3.04.32.05.3.05.3.06.3.06.3.06.3.06.28.06.3.07.28.07.29.08.21.04.21.04.2.04.21.03.2.03.2.02.2.02.2.01h.18l.2.01h.18l.18-.01.18-.02.17-.02.17-.03.17-.03.17-.05.09-.03c.46.4.82.91.58 1.79l-.23.8.59-.6a3.1 3.1 0 0 0 .69-3.34v-.05l.02-.03.26-.1.37-.16.33-.2.3-.2.25-.23.21-.24.18-.26.02-.05c.46.12.89.37 1.02 1.06l.17.82.25-.8a2.6 2.6 0 0 0-.74-2.75 2 2 0 0 0-.6-.4l-.03-.1-.14-.25-.16-.24-.2-.23-.2-.21-.25-.2-.26-.18-.28-.16-.3-.13-.33-.11-.34-.09-.36-.05-.37-.03h-.39l-.4.05-.4.07-.43.1-.35.13h-.05l-.34-.02-.11-.01-.34-.02-.1-.01-.8-.05-.1-.01-.79-.05-.11-.01-.65-.04-.1-.11-.2-.23-.2-.22-.22-.21-.22-.22-.21-.2-.2-.2-.2-.2-.17-.19-.14-.17-.12-.16-.09-.15-.05-.11-.01-.08v-.04l.03-.06.18-.26.2-.26.22-.25.22-.24.21-.22.22-.21.22-.2.21-.18.2-.18.2-.16.2-.15.18-.14.17-.13.15-.13.14-.11.1-.1.05-.04.05-.02.07-.02.1-.02.12-.02h.46l.18.01.2.02.2.01.22.02.23.02.23.02.24.01.25.02h.25l.26.01h.26l.27-.02.27-.02.26-.03.27-.05.27-.05.27-.08.26-.09.27-.1.25-.13.26-.15.24-.17.24-.19.1-.1.08.02.24.05.23.03.24.03.23.02.23.02h.23l.22.01h.44l.22-.01.21-.02.21-.02.21-.03.2-.03.2-.03.2-.04.2-.04.2-.04.19-.05.19-.05.19-.05.18-.06.18-.06.18-.06.17-.06.18-.06.17-.07.17-.07.16-.07.17-.07.08-.03.28.03.35.03.35.02.33.02.32.01h.92l.28-.01.28-.02.26-.03.26-.03.25-.03.24-.04.23-.05.22-.05.22-.05.2-.06.2-.06.2-.07.19-.07.18-.07.17-.08.16-.08.16-.09.15-.08.15-.09.14-.09.13-.1.13-.09.12-.1.06-.04.28-.06.35-.1.33-.11.32-.13.3-.13.3-.16.3-.16.28-.18.27-.2.26-.2.26-.23.25-.24.25-.25.24-.26.24-.27.24-.3.23-.3.24-.32.24-.33.24-.34.25-.36.25-.38.26-.39.26-.4.28-.42.28-.43.29-.45.3-.46.31-.48.33-.5.34-.5.2-.29.18.1.23.1.24.12.25.1.25.12.25.11.26.11.26.11.25.11.26.11.26.11.25.12.25.1.24.12.24.11.24.12.22.11.22.12.2.12.2.12.19.12.17.12.16.12.15.12.13.12.1.12.1.12.08.11.06.12.04.1.03.13.02.14.03.16.02.17.02.18.02.18.02.2.02.19.02.2.01.2.01.22.01.22.01.22v.23l.01.23v.96l-.01.24-.01.25-.01.25-.02.25-.02.26-.02.25-.03.25-.02.26-.04.25-.03.25-.04.26-.04.25-.05.25-.02.1-.2.12-.34.19-.32.19-.31.2-.3.18-.3.2-.29.2-.27.2-.26.2-.25.21-.23.22-.21.21-.2.22-.18.23-.17.23-.14.24-.12.24-.1.25-.06.26-.05.27v.27l.01.27.05.28.09.28.11.28.15.28.18.28.2.28.26.29.27.29.32.29.35.29.47.38.16.13.47.38.16.13.47.38.15.13.16.12.16.13.15.13.16.12.47.39.16.12.47.38.16.13.47.38.16.13.15.13.16.12.16.13.12.1.2.25.21.27.23.28.23.28.24.28.25.28.25.27.26.27.27.27.28.25.28.25.28.24.3.23.3.21.3.2.32.2.32.16.33.15.33.13.35.1.34.1.36.05.36.04h.36l.24-.01.17.08c.63.32 1.38.7 1.26 1.8l-.09.83.48-.7a3 3 0 0 0 .35-2.72l.25-.15.24-.16.29.11.42.14.39.1.35.06.32.02.3-.01.27-.06c.52.28 1 .67.91 1.55l-.08.84.47-.7c.66-.94.62-1.97.27-2.77l.07.02.39.09.36.03.34-.03.32-.08.29-.12.25-.17.22-.2.05-.07c.43.13.83.38.96 1.04l.16.82.25-.8a2.6 2.6 0 0 0-.74-2.75l-.24-.19-.01-.08-.1-.32-.13-.3-.18-.31-.22-.3-.25-.26-.3-.26-.35-.22-.38-.2-.42-.16-.47-.13-.5-.08-.55-.05h-.6l-.62.06-.68.11-.66.16-.21-.02-.26-.05-.26-.06-.27-.08-.27-.1-.28-.12-.28-.13-.27-.14-.28-.16-.27-.16-.27-.18-.26-.19-.26-.2-.25-.2-.24-.2-.23-.2-.22-.21-.21-.2-.2-.22-.18-.2-.17-.2-.15-.2-.14-.18-.12-.18-.1-.17-.07-.15-.06-.13-.03-.1-.01-.1v-.06l.07-.07.13-.12.18-.16.2-.2.26-.22.28-.26.31-.28.34-.31.36-.34.38-.36.4-.38.4-.4.43-.42.43-.44.43-.45.43-.47.43-.48.42-.49.42-.5.4-.5.39-.51.37-.52.35-.52.32-.52.3-.53.26-.52.23-.52.2-.52.15-.5.1-.52.06-.5v-.68l-.02-.2-.01-.18-.01-.19-.02-.18-.01-.18-.02-.18-.02-.18-.02-.19-.02-.18-.02-.19-.03-.19-.03-.19-.03-.2-.03-.2-.04-.2-.03-.2-.05-.22-.04-.22-.05-.23-.05-.23-.05-.24-.06-.26-.06-.26-.07-.27-.07-.28-.07-.3-.08-.3-.08-.31-.08-.33-.1-.34.91-.1 1.18-.08h1.1l1.04.06.96.12.9.18.86.23.8.28.76.32.72.35.7.39.66.41.65.44.64.45.64.47.63.47.63.48.65.48.66.47.68.46.71.43.74.42.78.39.83.35.87.31.93.27.99.22 1.05.16 1.12.1 1.2.03 1.27-.03 1-.08v.29l.02.61.03.59.05.55.08.53.08.5.1.49.13.45.13.44.15.41.16.4.17.38.19.37.19.34.2.34.2.32.21.32.22.3.22.3.23.3.23.28.23.29.22.28.23.28.23.29.22.29.22.3.22.3.2.3.22.33.2.33.19.35.08.14.1.14.1.14.1.14.12.13.12.13.12.13.13.13.13.13.14.12.14.12.14.13.15.12.14.12.15.12.15.12.14.13.15.12.14.12.14.13.15.12.13.13.14.12.13.13.13.13.12.13.12.14.1.13.11.14.1.14.1.14.08.14.14.27.13.26.12.26.12.27.1.26.1.26.1.26.09.25.08.26.08.25.08.24.07.24.08.24.07.23.06.23.07.22.07.21.07.2.07.2.07.2.08.19.08.18.09.17.1.16.1.15.1.14.12.14.13.12.15.1.15.1.16.07.18.05.18.04.17.03.17.03.17.02h.16l.17.01h.32l.16-.02.16-.01.16-.02.15-.03.16-.03.15-.03.16-.03.15-.03.16-.04.15-.04.16-.04.15-.04.16-.04.16-.04.16-.04.16-.04.17-.04.16-.04.17-.03.17-.04.18-.03.18-.03.18-.02.2-.03.1-.02h.42l.14.01.14.02.14.02.16.02.17.03.3.05.18.02.07.01.26.2c.45.34 1 .73.75 1.58l-.23.8.6-.59a2.4 2.4 0 0 0 .67-2.14l.07-.05.12-.1.1-.13.08-.14v-.01l.21.03.23.04.23.03.2.02.22.02.2.01h.67l.24.1c.58.23 1.27.5 1.26 1.48l-.02.84.42-.73c.5-.89.43-1.8.09-2.51l.08-.1.09-.1.08-.09.08-.1.05-.08.34-.02.45-.06.4-.1.37-.13.31-.15.27-.18.23-.2.18-.24v-.02c.37.08.7.28.93.79l.33.77.08-.84a2.6 2.6 0 0 0-1.3-2.53l-.1-.05-.16-.26-.19-.24-.22-.23-.24-.22-.27-.21-.29-.19-.3-.17-.34-.15-.35-.12-.36-.1-.38-.07-.4-.04-.4-.01-.42.03-.42.07-.42.1-.38.14-.11.01-.15.02h-.15l-.15.02-.15.01-.16.01-.15.01-.16.01-.15.01h-.16l-.16.02h-.31l-.16.01h-1.62l-.16-.01h-.17l-.16-.02h-.17l-.16-.01-.17-.01-.14-.01-.02-.04-.1-.2-.13-.2-.13-.18-.14-.19-.15-.17-.16-.17-.17-.16-.19-.16-.19-.15-.2-.14-.2-.14-.22-.13-.23-.13-.24-.11-.06-.03v-.07l-.01-.27-.02-.27-.03-.27-.03-.28-.03-.27-.03-.28-.04-.27-.04-.28-.05-.28-.04-.28-.05-.28-.05-.27-.05-.28-.05-.28-.05-.28-.05-.28-.05-.27-.04-.28-.05-.28-.05-.27-.04-.28-.05-.27-.04-.27-.03-.27-.04-.27-.03-.27-.03-.26-.02-.27-.02-.26-.01-.26-.01-.25-.01-.25v-.25l.01-.24.02-.24.02-.23.02-.23.03-.23.03-.22.04-.22.04-.22.04-.22.04-.22.05-.21.04-.22.05-.21.05-.22.05-.22.05-.22.05-.22.05-.22.04-.22.04-.23.05-.22.03-.23.04-.24.03-.24.02-.24.02-.25.02-.25v-.45h.32l.2.01.2.01h.2l.2.02h.18l.19.02h.18l.18.02.18.01.17.02h.18l.17.03.17.01.17.02.17.02.17.02.17.02.17.02.17.03.17.02.18.02.17.03.17.03.18.03.18.03.18.03.19.04.19.03.16.03.32.14.34.16.31.16.3.17.29.17.27.17.25.17.25.18.23.18.22.18.2.18.2.18.19.18.18.17.17.18.16.18.16.17.15.16.14.17.15.16.14.15.14.16.13.14.14.14.14.13.13.13.15.11.14.1.15.1.16.1.16.06.17.06.28.07.26.05.22.03c.37.53.75 1.16.19 1.99l-.47.7.75-.39a2.9 2.9 0 0 0 1.56-2.7l-.05-.46.13-.18.14-.23.1-.2.3.11.27.1.26.1.26.08.24.06.23.06.23.04.2.04.21.02h.13c.46.37.88.85.63 1.7l-.23.81.59-.6a3 3 0 0 0 .44-.56l8.06 8.52.3.33.07-.45.43-3.21.01-.1-.07-.08-7.63-8 .22.06.51.06.47-.01.43-.08.4-.15.33-.2.3-.27.23-.31.16-.32a1.5 1.5 0 0 1 1.35 1l.33.77.08-.83a3.1 3.1 0 0 0-1.54-3l-.08-.05-.11-.42-.16-.44-.21-.43-.26-.42-.3-.4-.35-.39-.39-.36-.44-.32-.48-.3-.53-.24-.58-.2-.61-.14-.66-.08-.7-.02-.74.05-.79.12-.7.17-.27-.1-.35-.14-.35-.13-.35-.13-.35-.14-.35-.13-.35-.14-.36-.13-.35-.14-.07-.02-5.26-5.52.24-.3.52-.66.5-.66.47-.67.45-.67.42-.67.4-.68.38-.68.35-.68.33-.69.3-.69.27-.7.24-.7.21-.7.19-.7.15-.7.12-.72.09-.72.06-.72.02-.73-.01-.73-.05-.73-.08-.73-.12-.74-.15-.75-.19-.75-.23-.75-.21-.6.25-.39.3-.53.29-.54.26-.54.24-.55.2-.56.2-.56.16-.56.15-.57.11-.57.1-.58.07-.58.04-.59.02-.6v-.59l-.02-.6-.05-.6-.08-.61-.1-.62-.12-.62-.14-.62-.17-.63-.2-.63-.21-.63-.24-.64-.27-.64-.28-.65-.31-.65-.34-.66-.35-.66-.38-.67-.32-.52.08-.18.15-.34.14-.35.13-.35.14-.35.12-.36.12-.35.11-.37.11-.36.1-.37.1-.36.08-.37.08-.38.08-.37.07-.37.06-.37.05-.38.04-.37.04-.37.03-.37.01-.38.01-.37v-.73l-.01-.37-.03-.36-.03-.36-.05-.36-.05-.35-.07-.35-.07-.35-.16-.63-.4.07-.1.03-.1.02-.12.03-.12.04-.13.04-.12.04-.13.04-.14.05-.13.06-.14.05-.15.06-.14.07-.14.06-.14.07-.15.07-.14.08-.14.07-.14.08-.14.09-.13.08-.13.1-.13.08-.13.1-.12.1-.12.09-.1.1-.11.1-.1.11-.04.05-.16-.14-.45-.33-.47-.33-.48-.3-.5-.3-.53-.28-.53-.27-.56-.25-.58-.23-.43-.16.07-.16.13.04a.54.54 0 1 0 .31-1.02l-.03-.01.89-2.13.16.05a.54.54 0 1 0 .28-1.03l-.03-.01 1-2.41.22.05a.54.54 0 0 0 .26-1.04l-.06-.01.22-.53h.01l.07-.17.07-.17.07-.17.1-.24h-.01l.67-1.72.29-.74-.63.5-1.5 1.19c-.2-2.88-2.24-3.89-4.32-4.9-1.6-.8-3.22-1.58-3.93-3.3l-.16-.37-.22.34c-1.02 1.55-2.76 2.03-4.47 2.5-2.26.63-4.5 1.24-5.19 4.13l-1.35-1.57-.52-.6.14.78.46 2.43.02.12.1.62h-.01a.54.54 0 0 0-.5.57c.02.3.27.52.57.5h.13l.44 2.58a.54.54 0 0 0-.33.54.54.54 0 0 0 .5.5l.4 2.35a.54.54 0 0 0 .16.92l.08.44-.2.02-1.07.12-1.09.14-.94.13-.04-.04-.16-.17-.17-.15-.18-.15-.19-.13-.2-.12-.2-.11-.21-.1-.23-.09-.23-.07-.25-.07-.25-.05-.27-.04-.28-.03-.3-.01-.55-.02-.13.54-.07.3-.07.3-.06.3-.06.3-.06.3-.05.3-.05.32-.05.3-.04.32-.04.31-.04.32-.03.3-.03.32-.03.32-.02.31-.02.31v.32l-.02.3v1.23l.02.3.02.3.02.3.03.28.03.29.04.28.04.28.05.28.02.09-.43.4-.55.54-.54.55-.52.55-.5.57-.5.56-.47.58-.46.58-.44.6-.42.6-.4.6-.38.62-.36.62-.33.62-15.38-16.13q.3-.55.39-1.08.19-1.21-.4-2.24a5.9 5.9 0 0 0-5.67-2.7h-.04l-5.23-5.56 3.76-1.3.32-.11-.24-.25-2.17-2.24-.1-.1-.13.05-3.84 1.4-3.16-3.38-.1-.1-.13.05-2.24.72-.32.1.23.25 3.09 3.31-3.88 1.41-.32.11.24.24 2.1 2.1.1.1.13-.05 4-1.38 9.15 9.8c-.92.16-2.22.08-3.72-.18a27 27 0 0 1-5.73-1.97c-3.52-1.5-7.14-3.06-11.6-1.95l-.16.04v2.92a20 20 0 0 1-4.79-1.42 14 14 0 0 0-7.52-1.19l-.31.03.12.28c.77 1.71 1.17 3.34.95 4.81-.2 1.46-1.02 2.8-2.66 3.93l-.8.56.96-.17c4.11-.7 7.64.31 10.4 1.11q1.4.42 2.52.66c2.28.46 3.8.1 4.45-2.81 2.27.32 4.49 1.2 6.57 2.04 1.87.74 3.62 1.44 5.24 1.67h.01c1.22.18 2.4.26 3.45.2a6.6 6.6 0 0 0 2.95-.77 2.9 2.9 0 0 0 1.46-2.15q.05-.33.04-.7.69-.47 1-1.08.2-.36.24-.76l15.62 16.5-.01.03-.23.68-.2.7-.2.7-.15.72-.13.72-.1.74-.09.75-.05.76-.03.77v.78l.03.8.06.8.1.82.09.68-.45.52-.59.55-.64.47-.7.4-.76.35-.8.29-.86.23-.9.18-.94.13-.97.08-1.01.05h-1.04l-1.06-.02-1.09-.05-1.1-.08-1.11-.1-1.13-.11-1.14-.13-1.13-.14-1.14-.14-1.13-.15-1.13-.13-1.11-.13-1.1-.12-1.08-.1zm59.52 23.14-.08-.03-.35-.14-.35-.13-.6-.23.27-.3.16-.17z"/><path fill="#6d6e6f" d="M243 165.82c.54-.02 1.16-.05 1.64.4a2.2 2.2 0 0 0-1.04-1.38 2 2 0 0 0-.64-.24 1 1 0 0 0-.52.03c-.21.08-.36.28-.36.61 0 .63.41.6.92.58m-3.74 2.55c.52.2 1.12.44 1.39 1.08a2.3 2.3 0 0 0-.4-1.77 2 2 0 0 0-.5-.5 1 1 0 0 0-.51-.18q-.38-.05-.6.42c-.28.6.13.75.62.95m-4.26.59c.4.3.86.63.97 1.22a2.1 2.1 0 0 0-.29-2.11 1 1 0 0 0-.4-.28q-.3-.12-.6.22c-.37.44-.06.67.32.95m-93.17-1.94c.56.4 1.2.88 1.26 1.75.42-.76.4-1.61.14-2.28a2 2 0 0 0-.43-.72 1.3 1.3 0 0 0-.54-.39q-.45-.16-.86.32c-.51.62-.09.94.43 1.32m3.35-2.71c.53.09 1.14.19 1.53.72a2.2 2.2 0 0 0-.73-1.56 2 2 0 0 0-.58-.36 1 1 0 0 0-.51-.08q-.36.04-.49.52c-.13.6.28.67.78.76m37.58 5.16c.58.29 1.24.62 1.45 1.4a2.6 2.6 0 0 0-.25-2.1 2 2 0 0 0-.51-.6 1 1 0 0 0-.56-.27q-.43-.07-.73.42c-.37.66.07.88.6 1.15m4.55-.9c.54.28 1.17.6 1.38 1.31a2.5 2.5 0 0 0-.25-1.95 2 2 0 0 0-.5-.58 1 1 0 0 0-.52-.25q-.39-.08-.69.4c-.35.61.07.82.58 1.08m3.5-1.6c.53.09 1.14.2 1.52.72a2.2 2.2 0 0 0-.73-1.56 2 2 0 0 0-.57-.36 1 1 0 0 0-.52-.08q-.36.04-.48.52c-.14.6.27.68.77.76m52.59-16.88c.35.5.76 1.08.6 1.82a2.5 2.5 0 0 0 .71-1.86 2 2 0 0 0-.15-.74 1 1 0 0 0-.35-.48c-.21-.16-.5-.18-.8.03-.61.38-.34.76-.01 1.23m4.39-1.06c.5.37 1.06.79 1.13 1.54.35-.67.33-1.4.1-1.99a2 2 0 0 0-.38-.65 1 1 0 0 0-.47-.35q-.39-.14-.76.28c-.46.55-.08.83.38 1.17m4.9-2.75c.69-.03 1.47-.07 2.05.56a2.7 2.7 0 0 0-1.3-1.82 2 2 0 0 0-.78-.3 1.3 1.3 0 0 0-.64.05q-.44.15-.47.76c0 .8.52.77 1.15.75"/><path fill="#da121a" fill-rule="evenodd" d="M232.17 92.86c.44 0 .8.36.8.8a.8.8 0 0 1-.8.81.8.8 0 0 1 0-1.6zm-12.04-.18a.8.8 0 0 0-.8.8.8.8 0 0 0 1.6 0 .8.8 0 0 0-.8-.8"/><path fill="#a55a44" fill-rule="evenodd" d="M226.59 105.77c1.43 1.39 3.1 2.2 4.67.1.8.18 1.89.61 1.5 1.87-.4 1.25-2.68 1-3.4-.31-.46.57-2.2.27-3.02.2-.83-.08-2.63.53-3.32-.46-.82 1.26-3.1 1.34-3.4.06s.8-1.63 1.62-1.75c1.42 2.21 3.23 1.54 4.81.17v-2.98c-1.26-.52-2.53-1.02-3.61-1.88a.48.48 0 0 1 .44-.86c1.1.77 2.11 1.5 3.44 1.56a5.6 5.6 0 0 0 3.42-1.2.48.48 0 0 1 .37.89q-1.5.93-3.52 1.47zm-9.23-1.94a14 14 0 0 0-.14 2.76c.15 2.02.94 3.3 2.08 3.89l.04.02.03.05c2.04 2.94 4.05 4.63 6.05 4.79 1.99.15 3.99-1.23 6.01-4.42l.06-.1h.11q3.5-.17 4.26-5.96c.03 4.04-1.77 6.21-4.13 6.38-2.1 3.28-4.21 4.7-6.34 4.53s-4.24-1.9-6.34-4.93c-1.67-.9-2.78-3.54-1.69-7m9.2 58.71c-.07-1.7-.54-3.22-3.87-3.56 2.2.88 3.29 2.14 3.87 3.56m-19.24-22.49c6.76 7.07 14.7 1.13 21.27 2.34-7.12-1.7-13.54 2.82-21.27-2.34m-21.44 4.24c2.66 2 .16 5-4.68 8.42 3.75-3.27 5.93-6.22 4.68-8.42m-52.01 5.12c-1.43 1-4.1.6-4.79 2.53-.68 1.93.98 5.13 1.22 7.47.08-2.18-1.35-5.26-.71-7.04.63-1.78 3.17-1.8 4.28-2.96m56.32-52.4-.08-.13c-1.97-2.18-4.72-1.52-7.27-.98l-1.07.24c1.52.22 3.24-1.04 5.42.45-3.2-1.2-3.6.5-6.65-.16.69.61 1.53.7 3.38.63-1.59.55-4.29.7-7-.41 1.12 1.03 2.76 1.41 5.28 1.48-3.6.58-5.82-.4-8.56-2.13l.53.86c2.07 3.09 4.77 6.13 8.75 6.26a8 8 0 0 0 3.83-1.13c1.6-1 4.46-2.95 3.44-4.99m-23.24 45.24.18.09.23.1.23.12.24.1.25.12.25.1.25.12.26.1.26.12.25.1.26.12.26.11.25.12.25.11.25.12.24.12.23.12.23.12.22.13.2.12.2.13.2.13.18.14.16.14.16.14.14.15.12.15.1.16.09.17.07.17.04.17.02.17.03.17.02.17.03.18.02.2.02.19.02.2.01.2.02.22v.22l.02.22.01.23v.23l.01.24v.98l-.01.25-.01.26-.02.26-.01.25-.02.26-.03.26-.02.26-.03.26-.03.26-.04.26-.04.26-.04.26-.05.26-.07.35-.42.24-.32.18-.32.19-.3.19-.3.19-.29.19-.27.19-.26.19-.25.2-.23.19-.22.2-.2.2-.17.2-.16.2-.15.2-.12.2-.1.2-.07.2-.06.2-.03.21v.42l.05.22.06.23.1.23.12.24.16.24.19.25.22.26.26.27.3.27.33.28.47.38.16.13.47.38.15.13.47.38.16.13.16.13.15.12.16.13.16.13.47.38.16.13.47.38.15.12.48.38.15.13.16.13.16.13.16.12.17.15.23.29.21.27.22.27.23.27.24.28.24.27.24.26.26.27.25.25.27.25.27.24.27.22.28.22.28.2.29.19.3.17.29.16.3.13.3.12.31.1.31.08.32.05.15.01c-.17-.25-.17-.59.12-1.1.3-.53.73-.71 1.18-.64q.4.06.76.35.34.29.6.72c2.3-1.56-.78-3.53-2.81-2.41 1.7-1.83 5.37.34 3.93 2.18l.1.04q.5.16.95.24c-.37-.27-.52-.63-.13-1.31.28-.5.7-.68 1.13-.61q.38.05.73.34c.28-1.86-.95-2.73-3.11-2.25 2.22-1.16 4.2.19 3.53 2.55l.2.1.35.11.31.07.3.02.25-.01.23-.06.2-.09.14-.09c-.7-.12-1.23-.26-1.01-1.26.11-.52.44-.79.84-.85q.26-.03.54.04l-.06-.14-.15-.25-.18-.24-.21-.23-.26-.21-.29-.2-.33-.17-.37-.14-.41-.11-.46-.08-.5-.04h-.55l-.59.06-.63.1-.73.17-.32-.03-.3-.05-.3-.07-.3-.09-.3-.1-.29-.13-.3-.14-.29-.16-.3-.16-.28-.18-.28-.19-.28-.2-.27-.2-.26-.2-.25-.22-.24-.22-.24-.21-.22-.22-.2-.22-.2-.22-.18-.21-.16-.21-.15-.2-.13-.2-.12-.2-.09-.18-.07-.18-.05-.17-.03-.16v-.17l.04-.15.09-.13.1-.11.14-.13.18-.17.22-.2.25-.22.28-.25.3-.29.34-.3.36-.34.38-.36.4-.37.4-.4.42-.42.42-.43.43-.45.42-.46.43-.47.41-.48.41-.5.4-.49.37-.5.37-.5.33-.51.32-.5.28-.51.25-.5.22-.5.18-.48.14-.47.1-.46.05-.45v-.62l-.02-.2v-.17l-.02-.18-.02-.18-.01-.18-.01-.18-.02-.18-.02-.18-.02-.17-.03-.19-.02-.18-.03-.18-.03-.2-.03-.19-.04-.2-.03-.2-.04-.21-.05-.22-.05-.22-.05-.24-.05-.24-.06-.25-.06-.25-.06-.27-.07-.28-.07-.3-.08-.3-.08-.3-.08-.33-.1-.35-.03-.12c-2.2.34-4.5.15-6.81-.05-4.75-.4-9.53-.79-13.26 3.53m48.42 4.87v.37l.01.6.04.56.05.54.07.51.08.48.1.46.12.44.12.41.14.4.16.37.16.36.17.34.18.34.2.32.2.3.2.3.2.3.22.3.22.28.23.28.23.29.22.28.23.29.23.29.23.3.23.3.22.31.22.32.21.33.21.35.2.35.07.13.08.12.08.12.1.12.1.12.1.12.12.11.12.12.13.12.13.12.13.12.14.12.14.12.15.12.14.12.15.12.15.12.15.13.14.12.15.13.15.13.14.13.14.13.14.14.14.14.13.14.13.15.12.15.12.15.1.16.11.16.1.16.14.28.14.28.13.27.12.28.11.27.1.27.1.26.1.27.09.26.08.25.08.25.07.24.07.24.07.23.07.23.07.22.06.2.07.2.07.2.06.17.08.17.07.16.07.15.08.14.08.12.09.11.08.1.1.08.1.07.1.06.1.05.13.04.15.03.15.03.15.02.14.02.15.01h.43l.14-.01.15-.02.14-.02.14-.02.15-.02.14-.03.15-.03.15-.04.15-.03.15-.04.15-.04.16-.04.16-.04.16-.04.16-.04.17-.04.16-.04.18-.04.17-.04.18-.04.19-.03.19-.03.19-.03.19-.02.1-.02.13-.01h.41l.15.02.15.02.16.02.16.02.16.02.04.01q-.06-.3.3-.75c.33-.4.72-.49 1.08-.36q.32.1.58.4.22.25.37.6v-.02l.05-.07c.9-2.3-.7-3.3-2.77-2.48 1.77-1.24 4.38-.35 3.42 2.19l.13.02.22.04.21.02.2.03.2.01.1.01q-.15-.3.11-.89.37-.73 1.03-.68.36.03.72.27.31.2.56.54c1.55-1.73-.95-3.43-2.97-2.44.87-.9 4.47-.93 3.8 1.9h.13l.41-.06.36-.09.3-.1.25-.13.21-.13.07-.07h-.1c-.75.04-1.37.06-1.36-1.01 0-.54.26-.87.64-1.01q.25-.1.57-.07l-.08-.1-.21-.18-.24-.18-.25-.17-.28-.15-.3-.13-.3-.1-.32-.1-.34-.06-.35-.04h-.36l-.36.03-.38.06-.38.1-.41.14-.18.02-.15.01-.16.01-.15.02h-.16l-.15.02-.16.01-.16.01h-.15l-.16.02h-.32l-.17.01h-.16l-.16.01h-1.49l-.16-.01-.17-.01h-.17l-.17-.02h-.16l-.17-.02-.17-.01-.29-.02-.14-.3-.1-.18-.1-.17-.12-.16-.13-.16-.13-.16-.14-.15-.16-.15-.16-.14-.17-.13-.18-.13-.2-.13-.2-.12-.2-.1-.22-.12-.35-.16-.02-.4-.01-.25-.02-.27-.02-.26-.03-.27-.03-.27-.04-.27-.04-.27-.04-.27-.04-.27-.04-.28-.05-.28-.05-.27-.05-.28-.05-.28-.05-.27-.05-.28-.05-.28-.05-.28-.04-.28-.05-.28-.05-.27-.04-.28-.04-.28-.04-.27-.03-.28-.04-.27-.02-.27-.03-.27-.02-.27-.01-.27-.01-.27v-.78l.02-.25.02-.24.02-.24.04-.24.03-.23.04-.23.04-.23.04-.22.04-.22.05-.23.05-.22.05-.21.05-.22.05-.22.05-.21.04-.22.05-.22.04-.21.05-.22.04-.23.03-.22.03-.22.03-.23.03-.23.02-.24.01-.24v-.24l.01-.25c-3.3-.02-5.97.57-8.76 1.18-1.86.41-3.76.83-5.95 1.1m-16.4-32.02-.86.3-.89.24-.93.19-.97.13-1 .1-1.03.04h-1.05l-1.08-.02-1.1-.05-1.11-.08-1.13-.1-1.13-.12-1.14-.13-1.14-.14-1.14-.14-1.13-.14-1.12-.14-1.11-.13-1.1-.12-1.07-.1-1.05-.08-1.02-.06-.99-.03h-.95l-.92.05-.87.08-.83.12-.8.16-.78.17-.75.19-.74.2-.72.2-.7.22-.68.22-.66.23-.65.24-.63.24-.62.25-.6.26-.6.25-.58.26-.56.26-.56.26-.55.26-.54.25-.54.25-.53.25-.52.25-.51.23-.51.23-.51.23-.5.2-.51.21-.5.2-.5.18-.51.16-.5.15-.52.14-.5.12-.53.1-.52.09-.54.06-.54.04-.54.02h-.54l-.54-.03-.54-.04-.53-.07-.52-.1-.52-.1-.51-.15-.5-.16-.49-.19-.47-.2-.45-.24-.43-.26-.42-.29-.39-.31-.37-.34-.34-.37-.3-.4-.29-.41-.25-.45-.21-.47-.18-.5-.14-.53-.1-.56-.06-.58-.01-.61.03-.64.07-.67.04-.21.06-.22.07-.22.09-.21.1-.21.12-.21.13-.21.15-.2.16-.2.17-.2.2-.2.2-.18.2-.18.24-.18.24-.18.25-.16.27-.16.28-.16.3-.15.3-.14.32-.13.33-.12.34-.12.35-.1.36-.1.38-.1.38-.08.4-.07.4-.06.43-.05.43-.03.44-.03 1.02-.03 1.07-.01h1.1l1.13.04 1.15.05 1.18.06 1.2.08 1.22.1 1.24.1 1.24.11 1.25.13 1.26.12 1.26.13 1.25.13 1.25.14 1.24.13 1.23.13 1.2.12 1.2.11 1.17.11 1.14.1 1.11.08 1.09.07 1.04.05 1 .04.97.02h.9l.87-.03.81-.06.76-.07.69-.1.62-.14.87-.24.82-.26.75-.29.7-.31.64-.33.59-.34.53-.37.5-.37.44-.4.4-.4.35-.4.32-.42.27-.42.24-.43.2-.43.18-.44.14-.43.1-.43.1-.43.05-.42.03-.42.01-.4-.01-.4-.03-.4-.05-.37-.06-.36-.07-.34-.09-.32-.1-.3-.1-.28-.11-.25-.12-.25-.12-.28a3 3 0 0 1-.31.94c-.34.61-.9 1.14-1.47 1.6l.09.15.08.19.08.2.05.23.04.24.02.26v.55l-.04.3-.07.3-.08.3-.11.32-.14.31-.17.32-.2.31-.22.32-.26.3-.3.3-.33.3-.37.27-.4.27-.45.26-.48.23-.53.22-.57.2-.62.18-.66.16-.7.13-.77.1-.8.08-.86.05-.88.02h-.9l-.91-.03-.94-.05-.96-.06-.98-.09-.99-.1-1.01-.11-1.02-.13-1.04-.13-1.05-.14-1.06-.15-1.07-.16-1.09-.16-1.09-.15-1.1-.16-1.1-.16-1.1-.15-1.12-.15-1.11-.13-1.12-.13-1.12-.12-1.12-.1-1.12-.09-1.11-.07-1.11-.06-1.11-.03-1.1-.01h-1.1l-1.08.05-1.08.06-.55.05-.55.06-.54.07-.53.09-.52.1-.5.1-.5.12-.49.13-.47.14-.47.16-.45.16-.44.18-.42.18-.41.2-.4.2-.39.23-.37.22-.35.24-.34.25-.32.26-.3.26-.3.28-.27.28-.25.3-.24.3-.22.31-.2.32-.18.33-.16.34-.14.35-.13.35-.1.36-.23 1.07-.14 1.02-.05.98.02.93.1.9.17.85.24.82.3.77.36.73.41.69.47.65.52.6.55.58.6.53.63.5.67.44.7.41.71.38.74.33.75.29.76.25.77.21.78.17.77.14.76.09.76.05.74.01.73-.03.7-.06.68-.11.65-.15c3.18-.95 5.23-1.8 8.09-4.26-1.17 2.05-4.68 3.91-7.19 4.49l.02.59v.77l-.06.74-.09.71-.12.69-.16.65-.2.62-.2.6-.25.58-.28.56-.3.53-.3.52-.34.5-.35.48-.37.47-.38.46-.4.45-.4.44-.4.43-.42.43-.41.42-.42.42-.42.42-.41.42-.41.43-.4.43-.4.44-.39.44-.37.46-.36.46-.35.48-.33.5-.15.2-.18.21-.22.21-.25.21-.27.21-.3.22-.34.21-.35.21-.37.22-.4.22-.41.21-.43.22-.45.22-.46.22-.48.2-.49.22-.5.22-.5.2-.5.22-.52.2-.51.2-.52.2-.51.2-.52.2-.5.19-.51.18-.5.19-.48.17-.48.17-.46.16-.45.16-.47.16h-.22l-.17.02-.17.03-.15.03-.15.04-.14.05-.13.05-.12.07-.11.07-.1.09-.1.09-.1.1-.08.1-.08.12-.07.13-.07.14-.06.15-.05.16-.04.17-.04.18-.03.19-.02.2-.01.21-.01.23v.23l.01.24.02.26.03.26.03.28.04.28.05.3.06.26.09.14.1.18.1.18.1.18.08.19.08.18.07.19.07.19.06.18.05.2.05.18.04.2.03.19.02.19.02.19.02.2v.78l-.02.2-.02.2-.02.19-.03.2-.04.2-.04.2-.04.2-.05.2-.06.2-.06.2-.06.2-.1.3-.25.1-.16.07-.15.08-.14.08-.13.08-.12.08-.12.09-.1.09-.1.09-.07.1-.07.1-.05.1-.05.11-.03.12-.02.12v.13l.01.15.03.15.04.17.06.18.09.2.1.2.13.22.15.23.17.25.2.26.22.27.25.3.28.3.3.31.34.34.3.29h1.09l.3.01.3.01.3.01.3.01.31.02.32.02.3.02.32.02.31.02.32.03.31.03.32.03.31.03.32.04.31.04.32.04.3.05.32.04.31.05.31.05.3.06.31.06.3.06.3.06.3.07.3.07.3.07.27.07.2.05.2.03.2.04.19.03.19.02.19.03.18.01.18.01.18.01h.34l.16-.01.16-.01.15-.02.13-.03c-.66-.49-1.13-.92-.38-1.84.4-.5.87-.6 1.33-.45q.39.13.72.5l.18.23q.12-.37.1-.76a1.5 1.5 0 0 0-.45-1.06q-.45-.44-1.36-.56-1.17-.17-3.17.37c1.62-.9 2.5-.9 3.22-.8q1.08.15 1.6.69.56.54.6 1.34 0 .35-.07.71l.26-.12.29-.17.24-.17.21-.19.18-.2.05-.08c-.7-.11-1.24-.26-1.02-1.26.12-.52.44-.79.84-.85l.16-.01-.07-.1-.16-.2-.18-.17-.2-.17-.22-.15-.24-.13-.26-.12-.28-.1-.3-.07-.3-.05-.33-.02h-.35l-.35.04-.37.06-.38.1-.44.16-.16-.01-.33-.03h-.12l-.33-.03h-.11l-.79-.06h-.11l-.79-.06h-.11l-.67-.05-.2-.01-.24-.28-.19-.21-.2-.21-.2-.21-.22-.21-.22-.21-.2-.2-.2-.2-.2-.21-.16-.2-.14-.2-.12-.2-.08-.2-.05-.2.02-.21.09-.19.22-.31.22-.28.23-.27.22-.25.23-.23.23-.22.23-.21.22-.19.21-.18.21-.17.2-.15.18-.14.16-.13.15-.12.13-.1.11-.11.1-.08.14-.07.14-.04.15-.03.15-.02.17-.01h.36l.2.02.2.01.2.02.23.02.22.01.23.02.24.02.23.01h.25l.24.01h.25l.24-.01.25-.02.25-.03.24-.04.24-.06.24-.06.24-.08.22-.1.23-.1.22-.13c2.76-2.07 4.33-5.04 5.56-8.1-.8 2.9-1.33 4.47-4.16 7.64l.1.02.22.02.22.03.21.01.22.01h.62l.2-.01.2-.02.2-.02.2-.02.2-.03.18-.03.2-.03.18-.04.18-.05.19-.04.18-.05.17-.05.18-.05.17-.06.17-.06.17-.06.17-.06.16-.06.17-.07c3.09-1.27 4.8-4.04 5.73-8.11-.2 2.61-.98 6.08-4.4 7.97l.29.02.32.01.32.02h.88l.27-.02.26-.02.26-.02.24-.03.24-.03.22-.04.22-.04.21-.05.2-.05.2-.06.18-.05c3.69-1.63 5.27-6.39 5.93-9.4-.32 3.36-1.18 5.8-3.42 8.2l.06-.01.3-.1.3-.12.29-.13.27-.14.27-.15.25-.17.25-.18.25-.2.24-.2.23-.22.24-.24.23-.25.23-.26.23-.28.23-.3.23-.3.23-.33.24-.34.25-.36.25-.36.25-.4.26-.4.27-.4.28-.44.3-.45.3-.46a16 16 0 0 1 2.89-3.57c3.62-3.07 7.96-2.7 12.28-2.35 1.9.16 3.79.32 5.6.18 1.66-.13 3.26-.43 4.93-.43l1.07.06 1 .13.94.19.88.24.84.29.79.33.75.36.71.4.7.43.66.44.65.47.64.47.63.47.63.48.64.47.65.46.67.45.7.43.72.4.75.38.8.34.84.3.9.26.95.2 1.01.16 1.09.1 1.16.04 1.25-.04c2.5-.2 4.86-.57 7.43-1.14 3.03-.67 6.24-1.28 9.29-1.23h.21l.21.01h.21l.2.01.2.01h.2l.19.02h.19l.18.02.19.01.18.01.18.02.18.01.17.02.18.02.17.01.17.02.18.02.17.03.17.02.18.02.17.03.18.02.17.03.18.03.18.03.18.03.19.03.19.04.19.03.21.05.4.16.34.16.34.17.31.18.3.18.29.18.27.18.25.2.24.18.23.19.22.18.2.2.2.18.19.19.18.18.16.18.17.17.15.17.15.17.14.16.14.15.13.15.13.14.13.13.12.12.13.1.12.1.12.1.12.07.12.07.12.05.13.05.2.05c-.24-.45-.26-.87.46-1.33.5-.3.94-.27 1.3 0q.22.17.39.46l.03-.05c1.57-3.06-.6-4.9-3.6-4.47 2.82-1.23 5.64 1.32 4.34 4l.05.03.27.11.26.1.25.09.24.07.22.06.05.01c-.31-.33-.4-.71.1-1.32.38-.45.82-.54 1.24-.4q.35.12.66.47.17.19.3.44c.74-2.37-1-5.27-4-4.39 2.7-1.47 4.77 1.08 4.6 3.5l.36.13.48.13.44.05h.39l.34-.07.3-.11.25-.16.21-.2.18-.23.02-.04-.12.01c-.88.04-1.6.07-1.6-1.18 0-.62.3-1 .75-1.17a2 2 0 0 1 .87-.06l.22.05-.15-.4-.19-.38-.23-.38-.27-.36-.3-.35-.36-.32-.4-.3-.43-.25-.48-.23-.52-.17-.57-.13-.6-.08-.65-.02-.7.04-.73.12-.85.2-.42-.16-.35-.13-.35-.14-.35-.13-.35-.14-.36-.13-.35-.14-.35-.13-.35-.13-.35-.14-.35-.13-.35-.14-.35-.13-1.06-.4-.35-.14-.35-.14-.35-.13-.35-.14-.36-.13-.35-.13-.35-.14-.35-.13-.35-.14-.35-.13-.35-.14-.35-.13-.36-.14c-2.56-.98-5.13-2-7.88-2.83a72 72 0 0 1-3.12-1 75 75 0 0 1-4.33-1.74c-4.68-2-9.68-4.11-14.88-4.05 5.32-.9 13.83 3.13 15.05 3.65 1.54.66 2.99 1.27 4.3 1.73 1 .36 2.01.66 3.1 1 1.94.59 4.1 1.24 6.78 2.34l.46-.5.18-.2-5.42-5.72-.21.4c-.46.89-.96 1.84-1.16 3.12l-.06.37-.29-.24c-1.33-1.11-1.35-2.51-1.37-3.92-.02-1.24-.04-2.47-1.03-3.45a7 7 0 0 0-.21.94l-.06.37-.3-.24c-1.27-1.06-1.36-2.42-1.4-3.78l-1.7-1.8c-.02 1.34-.1 2.67-1.37 3.73l-.3.24-.05-.37a10 10 0 0 0-1.16-3.12c-.55-1.06-1.06-2.04-1.01-3.34q0-.37.22-1.03l-5.46-5.77c-.07.54-.05 1.07-.06 1.61-.02 1.41-.04 2.81-1.37 3.92l-.29.25-.06-.38c-.2-1.28-.7-2.23-1.16-3.12-.67-1.28-1.27-2.43-.9-4.19.06-.33.31-.9.63-1.48l-2.19-2.31c-.08.57-.06 1.12-.07 1.68-.02 1.4-.04 2.81-1.37 3.92l-.29.24-.06-.37a10 10 0 0 0-1.16-3.12c-.8-1.54-1.51-2.9-.56-5.37q.09-.22.22-.46l-.67-.71-.15.43-.2.67-.18.69-.15.7-.13.7-.1.72-.08.73-.05.73-.03.76v.76l.03.77.06.8.09.8.13.9-.63.74-.63.58-.7.5-.74.44zm37.82 18.57.2-.24.5-.65.49-.66.46-.65.44-.66.42-.66.4-.67.37-.66.34-.67.32-.67.29-.67.26-.68.24-.68.2-.68.18-.68.15-.69.12-.69.08-.7.06-.69.02-.7v-.7l-.05-.71-.08-.71-.11-.72-.15-.72-.19-.72-.22-.73-.3-.84.38-.6.3-.51.28-.52.25-.53.23-.53.2-.53.19-.54.15-.54.14-.55.11-.55.1-.55.06-.56.04-.57.02-.57v-.57l-.02-.58-.05-.59-.07-.59-.1-.6-.11-.6-.15-.6-.16-.6-.19-.62-.2-.62-.24-.62-.26-.63-.28-.64-.3-.64-.33-.64-.35-.65-.38-.65-.46-.76.2-.43.14-.34.14-.34.13-.34.13-.34.12-.35.12-.35.1-.35.11-.36.1-.35.1-.36.08-.36.08-.36.07-.37.07-.36.05-.36.05-.36.05-.37.03-.36.03-.36.02-.36v-.36l.01-.35v-.35l-.02-.36-.03-.34-.03-.35-.04-.34-.05-.34-.07-.33-.07-.33-.03-.13-.07.02-.1.02-.12.04-.11.03-.12.04-.12.04-.13.05-.13.05-.13.05-.13.06-.14.06-.13.06-.13.06-.14.07-.13.07-.14.07-.13.08-.12.08-.13.08-.12.08-.12.08-.1.08-.12.09-.1.09-.1.08-.08.1-.09.08-.07.09-.07.09-.19.29-.6-.5-.44-.32-.45-.31-.47-.3-.48-.28-.5-.27-.52-.26-.54-.24-.56-.23-.58-.21-.6-.2-.62-.19-.64-.17-.66-.15-.43-.09c-1.8-.13-3.6-.24-5.17 1.4a6 6 0 0 1 .9 3.08 11 11 0 0 1-.44 3l-.29 1.11-.14-1.15c-.38-3.28-1.31-5.23-2.94-6.3-1.58-1.03-3.86-1.24-6.97-1.04l-.62.08-.21-.24-.15-.15-.14-.13-.16-.12-.16-.12-.17-.1-.17-.1-.18-.08-.2-.08-.2-.06-.22-.06-.23-.05-.24-.03-.26-.03-.27-.02h-.11l-.03.12-.07.29-.06.29-.06.3-.06.29-.06.3-.05.3-.05.3-.05.3-.04.31-.04.3-.03.32-.04.3-.03.31-.02.3-.02.32-.02.3-.01.3-.01.3v1.21l.02.28.01.3.03.28.02.28.04.27.03.28.04.26.05.27.08.37-.65.61-.54.54-.53.54-.52.54-.5.55-.48.56-.46.57-.45.57-.43.58-.4.59-.4.59-.38.6-.35.62-.33.62-.08.14 4.1 4.3.11-.07-.09.09 5.37 5.63.13-.1-.1.13 5.46 5.73q.3-.4.63-.65-.27.4-.49.8l2.75 2.88a2.5 2.5 0 0 1 1.17-.66q-.62.4-.96.87l4.07 4.28c.63-1.5.75-3.14-1.28-6.32 1.42 1.02 2.01 3.1 2.1 3.94a5 5 0 0 1-.5 2.72l2.94 3.07a11 11 0 0 0-1.58-3.43 6.7 6.7 0 0 1 2.04 3.91zm3.45-46.51c-.97.39-1.95 1.19-3.11 3.92 1.36.6 1.87 2.02 2.2 3.5 1.1-2.51 1.78-5 .91-7.42m-28.37-4.01c1.14.22 2.2.94 3.12 3.92-1.36.61-2.67 1.7-3 3.19-.8-2.52-.72-4.7-.12-7.11m11.9 12.77.62 1.1-1.84 2.15zm-1.22-4.4c1.58 4.23-5.17 6.47-5.56.6 1.85-.2 3.42 1.15 5.56-.6m7.2.17-.02.06a2 2 0 0 0-.5.31c-.45.36-.86.92-.96 1.42-.07.34.03.68.13 1.05.1.35.21.74.17 1.16-.06.57-.29 1.26-.52 1.95q-.18.53-.32 1.05c.7-1.5 1.2-2.37 1.27-2.95v-.01c.05-.5-.07-.93-.18-1.32a2 2 0 0 1-.13-.85c.08-.4.43-.85.81-1.16l.07-.05c-.7 3.8 5.37 5.5 5.74-.04-1.85-.2-3.43 1.14-5.56-.62m7.23 11.81c1.83 1.16 1.85 2.74 1.87 4.3.02 1.2.04 2.4.94 3.34.24-1.15.7-2.04 1.13-2.86.98-1.88 1.8-3.46-.73-7.43 2 2.4 2.18 3.83 2.12 4.74a7 7 0 0 1-1 2.89 10 10 0 0 0-1.17 3.12l-.05.37-.3-.24c-1.32-1.11-1.35-2.51-1.37-3.92-.02-1.37.3-2.3-1.44-4.3m-2.89 8.3c1.83 1.16 1.85 2.73 1.87 4.3.02 1.2.04 2.4.94 3.34.24-1.16.7-2.04 1.13-2.86.98-1.88 1.8-3.46-.73-7.43 1.83 2 2.18 3.83 2.12 4.74a7 7 0 0 1-1 2.89 9 9 0 0 0-1.16 3.12l-.06.37-.3-.24c-1.32-1.11-1.35-2.52-1.37-3.92-.02-1.37.13-2.3-1.44-4.3m1.86 8.82c1.82 1.16 1.84 2.73 1.87 4.3.01 1.2.03 2.39.93 3.34.24-1.16.7-2.04 1.14-2.86.98-1.88 1.8-3.46-.74-7.43 2.05 2.37 2.1 3.42 2.13 4.29.05 1.3-.46 2.27-1.01 3.33-.47.9-.96 1.85-1.16 3.13l-.06.37-.3-.24c-1.32-1.11-1.34-2.52-1.36-3.92-.02-1.37.24-2.07-1.44-4.3m-5.78-.37c1.82 1.16 1.84 2.73 1.87 4.3.01 1.2.03 2.39.93 3.34.24-1.16.7-2.04 1.14-2.86.98-1.88 1.8-3.46-.74-7.43a6.8 6.8 0 0 1 2.13 4.51 7 7 0 0 1-1.01 3.11c-.47.9-.96 1.85-1.16 3.13l-.06.37-.3-.24c-1.32-1.11-1.34-2.52-1.36-3.92-.02-1.37.13-2.07-1.44-4.3m-4.64 5.67c1.28 1.12 1.3 2.5 1.32 3.9.02 1.19.03 2.38.94 3.33.24-1.16.7-2.04 1.13-2.86l.27-.54-3.65-3.85zm-7.18-7.63c-.3 1.61.26 2.67.87 3.84.43.83.9 1.71 1.13 2.87.9-.95.92-2.14.94-3.34v-.26zm5.52 5.84c.05.99.21 1.94.95 2.72q.16-.71.4-1.3zm-12.3-23.14c-.02 1.4-.04 2.81-1.37 3.92l-.3.25-.05-.38c-.2-1.28-.7-2.23-1.16-3.12-.57-1.1-1.1-2.09-1.01-3.45.05-.86 1.18-3.65 2.12-4.18-2.54 3.97-1.71 5.56-.73 7.43.43.83.89 1.7 1.13 2.86.9-.94.92-2.14.94-3.33.02-1.57.04-3.14 1.87-4.3-1.64 2.11-1.42 2.93-1.44 4.3m-7.36 2.35c-1.06 2.5-.37 3.81.41 5.3.43.83.9 1.72 1.13 2.87.9-.95.92-2.14.94-3.34.01-.68.02-1.36.18-2.01zm5.38 5.7c-1.01 2.45-.33 3.75.44 5.24.43.83.9 1.7 1.13 2.86.9-.94.92-2.14.94-3.33.01-.66.02-1.32.16-1.95zm-2.54 10.7c-.02 1.4-.04 2.81-1.37 3.92l-.3.24-.05-.37c-.2-1.28-.7-2.23-1.16-3.12-.7-1.33-1.32-2.51-.87-4.39.18-.76.94-2.31 1.98-3.24-2.54 3.97-1.71 5.55-.73 7.43.43.82.89 1.7 1.13 2.86.9-.95.92-2.14.94-3.33.02-1.57.04-3.15 1.87-4.3-1.68 2.23-1.42 2.93-1.44 4.3m8.22 4.96c-.02 1.41-.04 2.82-1.37 3.92l-.29.25-.06-.38c-.2-1.27-.7-2.23-1.16-3.12-.52-1-1-1.92-1.02-3.1 0-.9.81-3.36 2.14-4.53-2.54 3.98-1.72 5.56-.74 7.43.43.83.9 1.71 1.13 2.87.9-.95.92-2.14.94-3.34.03-1.57.05-3.14 1.87-4.3-1.67 2-1.42 2.94-1.44 4.3"/><path fill="#fcdd09" d="m165.48 81 .07.23q.28.95-.13 1.89c3.16.12 5.57 1.29 7.94 2.43 3.43 1.67 6.76 3.28 12.18 1.41l.07-.04q.67-.45.96-1a2 2 0 0 0 .2-.77 4 4 0 0 1-.78.3 7 7 0 0 1-1.53.25 23 23 0 0 1-9.95-2.07l-.44-.2c-2.88-1.38-5.58-2.67-8.6-2.42"/><path fill="#da121a" d="M165.18 83.54q-.18.29-.43.56.72.35 1.11.92.42.61.44 1.46c2.32.34 4.56 1.23 6.66 2.07 1.84.73 3.58 1.42 5.15 1.65q1.81.27 3.37.18a6 6 0 0 0 2.75-.7c.68-.4 1.13-1 1.26-1.84q.03-.2.03-.42c-5.5 1.84-8.87.2-12.35-1.48-2.37-1.15-4.8-2.33-7.99-2.4m-13.63 1.15q-.48 1.47-1.94 2.72c3.86-.47 7.15.48 9.78 1.24q1.35.4 2.47.65c2.02.4 3.37.09 3.94-2.47-2.74.54-4.68-.18-6.75-.95-2.06-.76-4.24-1.57-7.5-1.2"/><path fill="#078930" d="M163.34 78.87v2.29q.6.06.92-.05a.6.6 0 0 0 .32-.24.6.6 0 0 0 .05-.37 1 1 0 0 0-.12-.37q-.46-.63-1.17-1.26m11.16 1.64c-3.35-1.44-6.8-2.91-10.93-2.02a7 7 0 0 1 1.73 2.1c3.18-.3 5.97 1.02 8.96 2.45l.43.2c2.73 1.3 6.92 2.2 9.75 2.03a7 7 0 0 0 1.44-.23c1.2-.34 2.45-1.9 2.67-3.09q.16-1.04-.35-1.95a4.6 4.6 0 0 0-1.48-1.56 5.6 5.6 0 0 0-3.28-.97c1.32 1.26 2.06 2.26 2.33 3.03q.29.83-.04 1.35t-1.1.74c-1 .28-2.52.23-4.3-.09-2-.35-3.9-1.17-5.83-2"/><path fill="#078930" d="M164.23 84.02c.92-.9 1.16-1.79.9-2.67l-.12-.37-.05.1q-.15.3-.57.44c-.4.13-.9.13-1.3.07-2.35-.36-3.8-.95-5.13-1.49a13.5 13.5 0 0 0-7.03-1.18q.7 1.62.88 3.14c3.22-.56 5.05.12 6.98.83 1.5.56 3.08 1.14 5.44 1.13"/><path fill="#fcdd09" d="M165.86 86.38a2 2 0 0 0-.35-1.12q-.36-.51-1.07-.83v.02c-2.56.04-4.21-.57-5.8-1.16-1.88-.7-3.66-1.35-6.8-.8q.04.6-.05 1.2l-.1.55c3.25-.34 5.44.47 7.5 1.24 2.05.76 3.97 1.47 6.67.9m19.26-6.26-8.03-8.54-.22-.24.31-.11 3.75-1.3-1.84-1.9-3.84 1.4-.14.04-.1-.1-3.16-3.37-1.8.57 3.09 3.3.22.24-.3.11-3.87 1.4 1.76 1.77 4-1.39.13-.04.1.1 9.42 10.09q.55-.19.76-.52.23-.36 0-.98a3 3 0 0 0-.24-.53m72.16 78.7.36-2.67-7.79-8.16v.04l-.05.16-.04.15-.06.15-.07.14-.07.14-.02.02c.12.54.11 1.14-.12 1.72zm-15.8-19.6-53.13-55.73a6 6 0 0 1-1.15 1.25l49.98 52.83.04.01.35.14.35.13.36.14.35.13.35.14.35.13.35.14.35.13 1.06.4.35.14zm-14.1-73.01c-1.12 1.43-2.82 1.9-4.5 2.37-1.99.55-3.94 1.09-4.73 3.31l.21-.1c.21-.11.46-.23.65-.67l.22-.5.18.52c.15.45.39.58.59.7.3.16.53.3.56.82l.3.01c.08-.6.34-.7.66-.85.21-.09.46-.2.67-.63l.24-.49.16.53c.14.45.36.6.56.72.28.17.51.32.52.82l.23.02c.09-.56.34-.66.66-.8.21-.08.46-.19.68-.61l.25-.48.15.52c.13.46.35.6.55.73.28.18.5.33.5.84l.25.02c.09-.5.34-.6.64-.73.22-.09.47-.2.69-.62l.25-.48.14.52c.13.46.36.6.55.73.29.19.53.34.5.9l.24.03c.1-.5.36-.6.66-.72.22-.08.47-.18.69-.6l.25-.48.15.52c.12.46.35.61.54.74.3.2.53.36.48.96l.24.04c.12-.51.38-.6.7-.71.22-.08.47-.16.71-.57l.27-.48.13.54c.1.46.32.62.5.76l.11.08c-.38-2.29-2.18-3.17-4.02-4.07-1.56-.77-3.15-1.55-3.98-3.16m-11.14 8.64-.04-.05-.03-.05-.02-.06-.01-.06v-.07l.01-.06.03-.06.04-.05.04-.04.05-.03.06-.03h.07l.18-.02.18-.01.18-.01.18-.01.18-.01.18-.01h.18l.18-.02h.17l.18-.01h.18l.18-.02h.52l.18-.01h.18l.18-.01h.72l.18-.01h1.23l.17.01h.17l.46.02.45.01.45.02.46.02.45.03.45.03.46.03.45.03.45.04.45.04.45.05.45.04.45.05.45.06.45.06.45.06.46.06.44.07.45.07.45.07.45.08.45.08.45.09.45.08.44.1.45.09.45.1.45.1.44.1.45.1.45.12.43.1.07.03.06.04.04.04.04.05.02.05.02.06v.13l-.03.06-.03.06-.04.04-.05.04-.06.02-.06.02h-.06l-.08-.01-.43-.11-.44-.1-.44-.11-.44-.1-.44-.1-.44-.1-.44-.1-.45-.08-.44-.09-.44-.08-.45-.08-.44-.08-.44-.07-.45-.07-.44-.07-.45-.06-.44-.06-.45-.06-.45-.05-.44-.05-.45-.05-.45-.04-.45-.04-.44-.04-.45-.04-.45-.03-.45-.03-.45-.02-.45-.02-.45-.02-.45-.01-.45-.02h-.72l-.18-.01h-1.74l-.17.01h-.36l-.17.02h-.36l-.18.01-.17.01h-.18l-.18.01-.17.01-.18.01-.17.01-.18.01-.17.01-.18.01-.16.01h-.08l-.06-.01-.06-.03zm.81 3.61-.04-.04-.03-.05-.03-.06v-.19l.03-.06.04-.05.04-.04.05-.04.06-.02.07-.01.16-.02.16-.01.16-.01.15-.02h.16l.16-.02h.16l.16-.02h.15l.16-.02h.16l.16-.01.16-.01h.15l.16-.01h.16l.16-.02h.33l.17-.01h.32l.16-.01h1.78l.4.01.41.02.4.02.4.02.4.02.4.03.4.03.4.03.41.04.4.04.4.04.4.05.4.05.4.05.4.06.4.06.4.06.4.06.4.07.4.08.4.07.39.08.4.08.4.09.4.09.39.1.4.09.39.1.4.1.4.1.38.11.07.03.05.03.04.04.04.05.02.06.02.06v.06l-.01.07-.02.06-.04.05-.04.05-.05.03-.06.03-.06.01h-.06l-.07-.01-.38-.1-.4-.1-.38-.11-.4-.1-.38-.1-.4-.08-.38-.09-.4-.08-.39-.08-.39-.08-.39-.08-.4-.07-.39-.07-.39-.06-.4-.07-.39-.05-.4-.06-.39-.05-.4-.05-.39-.05-.4-.04-.39-.04-.4-.03-.4-.04-.39-.03-.4-.02-.4-.03-.4-.02-.4-.01-.4-.02h-.39l-.4-.01h-2.04l-.15.01h-.15l-.15.01h-.15l-.16.01-.16.01-.15.01H219l-.16.02h-.15l-.16.01-.15.01-.16.01-.16.01-.15.02h-.16l-.16.02-.15.01-.15.02h-.08l-.06-.02-.05-.02zm.97 3.38h-.08l-.06-.01-.05-.02-.05-.04-.05-.04-.03-.05-.03-.06-.01-.06v-.13l.03-.06.04-.05.04-.04.05-.04.06-.02.07-.02.24-.02.26-.03.25-.02.25-.02.25-.03.25-.01.25-.02.25-.02.25-.01.26-.01.25-.01.25-.01.25-.01h.25l.25-.01h1.49l.25.01h.25l.25.02h.25l.24.02.25.01.25.02.25.02.24.02.25.02.25.02.24.02.25.03.25.03.24.03.25.03.24.03.25.03.25.04.24.03.25.04.24.04.25.04.24.04.25.05.24.04.25.05.24.05.25.05.24.05.25.06.24.05.25.06.24.06.24.06.25.06.24.07.24.06.25.07.24.07.24.07.25.07.23.07.07.03.05.03.05.05.03.05.02.05.02.06v.07l-.02.06-.02.06-.04.05-.04.05-.05.03-.06.02-.06.02h-.06l-.08-.02-.22-.07-.24-.07-.24-.06-.24-.07-.24-.07-.24-.06-.24-.06-.24-.06-.24-.06-.24-.06-.23-.06-.24-.05-.25-.05-.24-.06-.24-.05-.24-.04-.24-.05-.24-.05-.24-.04-.24-.04-.24-.04-.25-.04-.24-.04-.24-.03-.24-.04-.24-.03-.25-.03-.24-.03-.24-.03-.25-.03-.24-.02-.24-.03-.25-.02-.24-.02-.24-.02-.25-.01-.24-.02-.25-.01-.24-.02h-.25l-.24-.02h-.25l-.24-.01h-.25l-.24-.01h-1.23l-.24.01-.25.01-.25.01-.24.01-.25.01-.25.02-.24.01-.25.02-.25.02-.24.02-.25.02-.25.02-.24.03zm6.65-8.48q.24.1.56.1h.04q.3.07.57 0 .22-.05.4-.17c.08-.54-.08-.65-.29-.78-.18-.12-.4-.26-.56-.57-.23.27-.46.37-.67.45-.22.1-.4.17-.41.72q.15.16.35.25m-6 2.19a.76.76 0 0 0-.84.69.76.76 0 0 0 .7.83.77.77 0 0 0 .83-.69.8.8 0 0 0-.18-.56.8.8 0 0 0-.51-.27m2.56-.03a.76.76 0 0 0-.83.68.76.76 0 0 0 .69.84.77.77 0 0 0 .83-.7.77.77 0 0 0-.7-.83zm2.55.03a.77.77 0 0 0-.83.69.77.77 0 0 0 .7.83.76.76 0 0 0 .82-.69.76.76 0 0 0-.69-.83m2.6.17a.76.76 0 0 0-.83.7.76.76 0 0 0 .69.83.76.76 0 0 0 .83-.7.8.8 0 0 0-.17-.55.8.8 0 0 0-.52-.28m2.55.29a.8.8 0 0 0-.56.17.8.8 0 0 0-.28.52.76.76 0 0 0 .7.83.76.76 0 0 0 .83-.69.76.76 0 0 0-.7-.83zm2.54.4a.77.77 0 0 0-.83.68.76.76 0 0 0 .69.84.76.76 0 0 0 .83-.7.77.77 0 0 0-.69-.83m2.53.6a.76.76 0 0 0-.84.68.76.76 0 0 0 .7.83.77.77 0 0 0 .82-.69.76.76 0 0 0-.68-.83m-14.93 2.1a.6.6 0 0 0-.69.57.6.6 0 0 0 .14.46.6.6 0 0 0 .43.22.63.63 0 0 0 .68-.56.63.63 0 0 0-.57-.69m2.29-.05a.63.63 0 0 0-.68.56.63.63 0 0 0 .56.68.62.62 0 0 0 .54-1.02.6.6 0 0 0-.42-.22m2.28.03a.63.63 0 0 0-.68.56.6.6 0 0 0 .56.69.63.63 0 0 0 .69-.57.63.63 0 0 0-.57-.68m2.28.12a.63.63 0 0 0-.68.57q-.03.26.14.45a.6.6 0 0 0 .42.23.63.63 0 0 0 .68-.57.6.6 0 0 0-.56-.68m2.26.24a.63.63 0 0 0-.68.56.6.6 0 0 0 .57.68.63.63 0 0 0 .68-.56.63.63 0 0 0-.57-.68m4.5.9a.63.63 0 0 0-.69.56q-.01.28.14.46a.6.6 0 0 0 .43.23.63.63 0 0 0 .68-.57.6.6 0 0 0-.57-.68zm-2.22-.51a.6.6 0 0 0-.46.14.6.6 0 0 0-.23.42.63.63 0 0 0 .57.68.6.6 0 0 0 .68-.56.6.6 0 0 0-.14-.46.6.6 0 0 0-.42-.22m-14.04-8.24.2 1.1.73-.02zm20.2 2.96.4-1.03-1.1.88zm-14.97-1.38q.24.1.57.1h.03q.31.06.58-.01.21-.05.39-.18c.07-.55-.1-.65-.3-.78-.19-.12-.4-.25-.57-.56a1.5 1.5 0 0 1-.66.47c-.22.1-.4.17-.4.72q.15.15.36.24m-3.1-.05q.25.1.57.08h.04q.32.02.57-.04.21-.06.39-.2c.04-.55-.12-.64-.33-.76-.2-.11-.42-.24-.6-.53-.21.28-.44.39-.64.49s-.38.18-.37.74q.16.15.37.22m9.14.5q.24.11.56.12h.04q.31.06.57 0 .22-.05.4-.18c.08-.54-.08-.65-.28-.78a1.5 1.5 0 0 1-.57-.56c-.23.26-.46.36-.66.45-.22.09-.4.16-.42.71q.15.15.36.25m4.17.5a1.4 1.4 0 0 1-.57 0h-.04a1.4 1.4 0 0 1-.56-.13 1 1 0 0 1-.35-.25c.03-.55.2-.62.43-.7.21-.09.44-.18.67-.44.17.3.37.45.56.57.2.13.35.24.26.78a1 1 0 0 1-.4.17m2.98.52a2 2 0 0 1-.57-.03h-.04a2 2 0 0 1-.56-.15 1 1 0 0 1-.34-.27c.06-.54.24-.6.47-.68.21-.07.45-.16.69-.41.15.31.35.46.53.6.2.14.34.25.23.79q-.2.12-.4.15zm1.61.31-.85-.18-.03.02a2 2 0 0 1-.66.28 2 2 0 0 1-.73-.04 2 2 0 0 1-.7-.19 2 2 0 0 1-.54-.45l-.05-.07v-.08l-.24-.04-.06.04a2 2 0 0 1-.64.3 2 2 0 0 1-.73 0 2 2 0 0 1-.7-.15 1.5 1.5 0 0 1-.57-.44l-.05-.06v-.11l-.23-.04-.01.05-.06.05q-.29.23-.64.32a2 2 0 0 1-.73 0 2 2 0 0 1-.71-.14 2 2 0 0 1-.57-.42l-.05-.06v-.11l-.25-.02v.02l-.01.08-.07.05q-.28.24-.63.32t-.73 0a2 2 0 0 1-.72-.14 2 2 0 0 1-.57-.43l-.05-.06v-.04l-.23-.02v.03l-.02.08-.06.05q-.29.24-.63.33a2 2 0 0 1-.73.02q-.4 0-.71-.13a2 2 0 0 1-.58-.42l-.05-.06h-.32v.08l-.07.05a1.5 1.5 0 0 1-.62.35 2 2 0 0 1-.72.06 2 2 0 0 1-.72-.1 2 2 0 0 1-.6-.4l-.04-.04-1.06.02.16.92a63 63 0 0 1 2.41-.1 63 63 0 0 1 16.81 1.89zm-19.4.14.44 2.56a49 49 0 0 1 2.27-.13 50 50 0 0 1 2.54-.04 50 50 0 0 1 12.38 1.74l1-2.4a62 62 0 0 0-13.58-1.81 63 63 0 0 0-5.05.08m.62 3.62.38 2.26a40 40 0 0 1 7.9-.06q3.75.34 7.43 1.42l.88-2.11a49 49 0 0 0-11.98-1.66 48 48 0 0 0-4.61.15m.56 3.32.07.39.4-.04 1-.08.99-.07.96-.04.93-.03.9-.01h.88l.86.03.83.04.81.06.79.08.76.09.74.1.72.13.7.14.67.16.66.17.63.2.38.12.05-.14a39 39 0 0 0-7.11-1.35 39 39 0 0 0-7.62.05m14.48-2.05a1 1 0 0 1 .88 1.06 1 1 0 0 1-1.06.89 1 1 0 0 1-.9-1.07 1 1 0 0 1 1.07-.88m-2.22-.5a1 1 0 0 1 .88 1.06 1 1 0 0 1-1.06.89 1 1 0 0 1-.89-1.07 1 1 0 0 1 1.07-.88m-2.28-.4a1 1 0 0 1 .89 1.07 1 1 0 0 1-1.07.88 1 1 0 0 1-.88-1.06 1 1 0 0 1 1.06-.89m-2.26-.23a1 1 0 0 1 .66.35q.25.31.22.71a1 1 0 0 1-1.06.89 1 1 0 0 1-.89-1.06 1 1 0 0 1 1.07-.89m-2.28-.12a1 1 0 0 1 .89 1.06 1 1 0 0 1-.35.67 1 1 0 0 1-.72.22 1 1 0 0 1-.88-1.07 1 1 0 0 1 1.06-.88m-2.28-.03a1 1 0 0 1 .88 1.06 1 1 0 0 1-1.06.89 1 1 0 0 1-.89-1.07 1 1 0 0 1 1.07-.88m-2.3.05a1 1 0 0 1 .89 1.07 1 1 0 0 1-1.06.88 1 1 0 0 1-.67-.35.98.98 0 0 1 .85-1.6m14.95-2.19a1.2 1.2 0 0 1 1.07 1.3 1.2 1.2 0 0 1-.43.81 1.2 1.2 0 0 1-.87.27 1.2 1.2 0 0 1-1.08-1.3 1.2 1.2 0 0 1 1.3-1.08m-2.53-.6q.5.07.8.43.3.38.28.87a1.2 1.2 0 0 1-.43.81 1.2 1.2 0 0 1-.87.27 1.2 1.2 0 0 1-.81-.42 1.2 1.2 0 0 1-.27-.87 1.2 1.2 0 0 1 1.3-1.08m-2.55-.4q.51.07.81.44.3.36.27.87-.06.5-.43.8-.36.3-.87.28a1.2 1.2 0 0 1-.8-.43 1.2 1.2 0 0 1-.28-.87 1.2 1.2 0 0 1 1.3-1.08zm-2.55-.27a1.2 1.2 0 0 1 1.08 1.3 1.2 1.2 0 0 1-.43.8q-.37.3-.87.27a1.2 1.2 0 0 1-1.08-1.3 1.2 1.2 0 0 1 1.3-1.07m-2.59-.18a1.2 1.2 0 0 1 1.08 1.3q-.06.51-.43.81a1.2 1.2 0 0 1-.87.27 1.2 1.2 0 0 1-1.08-1.3 1.2 1.2 0 0 1 1.3-1.08m-2.55-.03a1.2 1.2 0 0 1 1.08 1.3 1.2 1.2 0 0 1-1.3 1.08 1.2 1.2 0 0 1-1.08-1.3 1.2 1.2 0 0 1 .43-.81q.36-.3.87-.27m-2.57.03a1.2 1.2 0 0 1 1.08 1.3q-.06.5-.43.8-.36.3-.87.28a1.2 1.2 0 0 1-.8-.43 1.2 1.2 0 0 1-.28-.87 1.2 1.2 0 0 1 1.3-1.08"/></svg>