<svg xmlns="http://www.w3.org/2000/svg" xmlns:xlink="http://www.w3.org/1999/xlink" width="1200" height="600"><defs><linearGradient id="a"><stop offset="0" stop-color="#fa4632"/><stop offset=".3" stop-color="#dc1e19"/><stop offset="1" stop-color="#b41e19"/></linearGradient><linearGradient id="b"><stop offset="0" stop-color="#b41e19"/><stop offset=".7" stop-color="#dc1e17"/><stop offset="1" stop-color="#b41e19"/></linearGradient><linearGradient id="c"><stop offset="0" stop-color="#fa4632"/><stop offset=".2" stop-color="#dc1e19"/><stop offset="1" stop-color="#b41e19"/></linearGradient><linearGradient id="d"><stop offset="0" stop-color="#b41e19"/><stop offset=".3" stop-color="#dc1e17"/><stop offset=".8" stop-color="#dc1e17"/><stop offset="1" stop-color="#b41e19"/></linearGradient><linearGradient id="e"><stop offset="0" stop-color="#fa4632"/><stop offset="1" stop-color="#dc1e19" stop-opacity="0"/></linearGradient><linearGradient xlink:href="#a" id="f" x1="-251" x2="-239" y1="208.8" y2="201" gradientTransform="matrix(-1 0 0 1 -91.5 5)" gradientUnits="userSpaceOnUse"/><linearGradient xlink:href="#b" id="g" x1="-245.5" x2="-238" y1="202.8" y2="198.2" gradientTransform="matrix(-1 0 0 1 -91.5 5)" gradientUnits="userSpaceOnUse"/><linearGradient xlink:href="#c" id="h" x1="-241.5" x2="-222.5" y1="211.7" y2="204.3" gradientTransform="matrix(-1 0 0 1 -91.5 5)" gradientUnits="userSpaceOnUse"/><linearGradient xlink:href="#d" id="i" x1="-234.7" x2="-217" y1="203.2" y2="199" gradientTransform="matrix(-1 0 0 1 -91.5 5)" gradientUnits="userSpaceOnUse"/><linearGradient xlink:href="#a" id="j" x1="-251" x2="-239" y1="208.8" y2="201" gradientTransform="translate(296.9 5)" gradientUnits="userSpaceOnUse"/><linearGradient xlink:href="#b" id="k" x1="-245.5" x2="-238" y1="202.8" y2="198.2" gradientTransform="translate(296.9 5)" gradientUnits="userSpaceOnUse"/><linearGradient xlink:href="#c" id="l" x1="-241.5" x2="-222.5" y1="211.7" y2="204.3" gradientTransform="translate(296.8 5)" gradientUnits="userSpaceOnUse"/><linearGradient xlink:href="#d" id="m" x1="-234.7" x2="-217" y1="203.2" y2="199" gradientTransform="translate(296.8 5)" gradientUnits="userSpaceOnUse"/><linearGradient xlink:href="#e" id="n" x1="-229.8" x2="-214.9" y1="217.6" y2="213.5" gradientTransform="matrix(-1 0 0 1 -387 0)" gradientUnits="userSpaceOnUse"/><linearGradient xlink:href="#e" id="o" x1="-229.8" x2="-214.9" y1="217.6" y2="213.5" gradientTransform="translate(1.3)" gradientUnits="userSpaceOnUse"/></defs><path fill="#dc171c" d="M0 0h1200v600H0z"/><g transform="translate(109.6 .5)scale(1.4618)"><path fill="#b2df86" d="m413.8 206.2-4.8 1.1h-9.9l-1.5.9-8.5-.3-7.5 2-24 3.8-17.4 1.3-10.8 4.4L317 221l-33.9 1.2-43.8 3.3a98.4 98.4 0 0 0 96 77.8 98.4 98.4 0 0 0 98.3-96.4l-7-.5z"/><circle cx="335.5" cy="204.9" r="129.5" fill="#dc1e19"/><circle cx="335.5" cy="204.9" r="125.7" fill="#dc1e19" stroke="#ffd42a" stroke-linecap="square" stroke-width="1.4"/><path fill="#dc1e19" stroke="#ffd42a" stroke-linecap="square" stroke-width="1.4" d="m335.5 95.8-11.5 6.6 2.8-12.9-9.9-8.8 13.2-1.4 5.4-12.1 5.3 12 13.2 1.5-9.8 8.8 2.7 13z"/><circle cx="335.5" cy="204.9" r="98.4" fill="#c8f0f5"/><g fill="#ffd42a" transform="translate(187.5 2.3)scale(1.40014)"><circle cx="149.1" cy="110.9" r="6"/><path d="m44.2 110.7-.3.5H142v-.5zm104.7-21.3v14.5h.5V89.8zm-36.3-14.6 31.4 31.4.4-.4-31-31zm31.3 11 3.6 18.3h.5l-3.5-18zm-17.3-8.2 18.4 27.7.5-.3-18.2-27.1zm10.2 4.2 9.4 22.8.5-.2-9.2-22.3zm15.8 10.7-2.3 11.5.4.1L153 93zm2.8 2.6-3.8 9.3.4.2 3.8-9.1zm2.3 2.5-4.9 7.4.4.3 4.9-7.3zm2 2.4-5.8 5.8.4.4 5.8-5.9zm2 2.3-6.9 4.5.3.5 6.8-4.6zm1.7 2.5-7.9 3.2.2.5 8-3.3zm1.8 2.7-9.2 1.8v.5l9.5-1.8zm-9 3.2v.5h11.1l-.3-.5zm-97.7-18-.4.4 84.1 16.7.1-.5zm18.3-12-.6.3 66.4 27.5.2-.5zM96 75.2h-.7l47.9 32 .3-.3zm-50.4 78.4 97-40.2.2.5-97 40.1zM55.9 173l87.3-58.4.3.4L56 173.4zm86.3-61L36.4 133.2v.5l106-21z"/></g><path fill="#a0d2ff" d="M418 160.2c-.5 0-10.1 4.1-10.1 4.1l-6.7-1-4.7 3.7-17-.6-72.6 57.8 41.4 5 81.5 3.3a98 98 0 0 0 4-27.6 98 98 0 0 0-9.5-42.1z"/><path fill="#96beff" d="m401.2 163.2 5.3 8.7 8.1-2.6-6.7-5zm-29.6 24.5-14.8 9.7L341 215h-.8l-10.8 4.5 8.4-19.9 25.2-20 11.3-5 1.2 3zm46.5-27.5 3 4.1-3.2.2 2.5 6 8.6 4.4a98 98 0 0 0-4.7-12zm-38.7 6.2 6 9-1.8.6-1 1.8 2 .8 6.8-4.7-3.5-7.2z"/><path fill="#f0dc96" d="m416.6 168.6-10.8 3.6-6-1-8.4 2.7L377 184l-20.3 13.3-19.1 21.3 27.2 6.5 66.8-.3a98 98 0 0 0 2.1-20 98 98 0 0 0-4.8-30l-4.8-2.4z"/><path fill="#f0c882" d="m410.7 170.5-1 .4 10.7 15.2 4.8.4 7.3 2.3a98 98 0 0 0-3.5-13.9l-2.4-1.2-3.8 6.2-7.1-7-.8.4zm8 15.5-4.7-4-.9.4-5.6-5.8-.5.5-1.6-1.4-3 2.7-3.5.3-2.4 2.6-2.6-1-5-.6-8.2 4.3-9 3.7-15 9.7L341 215l16.6-1.2 5.3-.9 16.7-11.2 12.4-11.4 5-.4 6.3-3.4 8.2 2 4.2-2.7z"/><path fill="#b4dfb4" d="m415.7 185.7-4.2 2.8-8.2-2.1-6.2 3.4-5 .4-6 5.3-6.5 6.1-19.8 13.3 5.3 4.3 24.4-.3 37 .4 6.2-.3a98 98 0 0 0 1.1-14.1 98 98 0 0 0-1.3-16l-7.3-2.4z"/><path fill="#96c896" d="m400.2 188-3.1 1.8H396l3.1 17.6h9.9l4.8-1.2 13 .1 7 .5v-2l-.4-8.2-19.7-4.3 6.5 6.4-5 .6-7.8-.8zm-8.2 2.2-2.9 17.7-7.5 2-18.7 3 16.7-11.3z"/><path fill="#fff" d="m412.1 155.3-5.2 3.4-6.6-1-3.7 2.8-3.9 1h-3.2l-10 4.9 17 .6 4.7-3.8 6.7 1.1 10.2-4 6.2 2.6-3-5.9z"/><path fill="#e5e5e5" d="m389.5 161.5 4.9 2.7.2-.5 1.6.7-3.5-2.8zm10.8-3.8 5.3 2.8 3.5 1.7-1-2.4-1.2-1.1zm11.8-2.4 3.7 5.9 2.3-1 2.1 1-4.8-5.3z"/><path fill="#286428" d="m394.6 197.5-.8 2.4.2.4-1.2 2 .5.3-.6 1.1.3.2-.8 1.9h-1l-.7-1.9.6-.7-1-1.7.4-.8-1.5-2.4-1.4 2.4.2.7-.8 1.8.6.7-.7 1.9v1l-.3.1-1-1.7.3-.4-.8-2.3-.8 2.3.3.4-1 1.7.3.5-.8 1.2.4 1.5 24.5-1.2-1.9-3.2.2-.4-.5-.7.1-.3-1-2.4-1 2.4.2.2-.3.8.3.3-.3.7-1.1-.2.2-.2-.4-1 .1-.2-.7-.9.3-.6-1.6-2-1.6 2 .3.4-.6.7.2.6-.7 1.1h-1l-1-2 .3-.3-.8-1.1.5-.3-1-2 .3-.4z"/><path fill="#b2df86" d="m413.8 206.2-4.8 1.1h-9.9l-1.5.9-8.5-.3-7.5 2-24 3.8-17.4 1.3-10.8 4.4L317 221l-33.9 1.2-43.8 3.3a98.4 98.4 0 0 0 96 77.8 98.4 98.4 0 0 0 98.3-96.4l-7-.5z"/><path fill="#96d296" d="M337.8 225.3c-.8 0-6 0-5.9.8 0 .6 1.4.8 1.4 1.2 0 .7-6 1-8.9 1.4-2 .3-4.3.4-4.3 1.1.1.7 2.8.6 2.6 1.7-.2 1.5-22.7.9-24.1 0-.9-.1-2.3-.6-2.3-1.4 0-.6 9.8 0 9.8-.8 0-.5-4-.3-4.3-.7-.3-.5 12.4-.2 12.3-1.2s-21.6-.8-21.6 0c0 .6 3.1.8 3.2 1.4 0 .5-3.7.2-3.7.6s1.2.2 1.2.7c0 .8-4.9.9-4.9.3.4-.6 1.5-.8 1.5-1.3s-5.4 0-5.3-.5c0-.5 1.2-1 .2-1.1l-12-1c-4.2.3-12.3-.2-12.5.8s2.9 1.8 2.7 2.8c-.2.7-7.2.2-7.2.9.2.3 4.5 0 4.4.4 0 .8-6 .4-6 1s1.8.7 1.6 1.3-7.3-.1-7.3-.4c-.2-.5 2.8-1 2.8-1.6 0-.5-3-.5-4.7-.5-2 0-6-.5-5.8.2 0 .8 4 .7 4 1.3.1.8-1.2.6-1.2 1.2 0 .8 4.1 1.6 6.6 1.7 5.5.1 14.4 2.5 14.5 3.4.3 1.4-10.7 1.5-16 2.3l-13.4 1 8.9 20.5c55.2 1 127.6-.7 182.9.4 4.3-9.4 11.4-29.6 11.8-35.8l-20.4 1.8c-8.5.9-26 1.4-25.4 2.6 0 .6 6 .3 5.9 1-.1.9-8.1 1.6-8 2.6 0 .8 10 .6 10 1.6.2 2.5-23.4 1.2-23.4-.5 0-.7 4.5-1.3 4.5-2.2 0-.5-7.1-.8-7.4-1.6-.2-.7 6.6-.6 6.6-1.2-.2-1-17.7-1.5-17.8 0 .1.8 3 1 3.1 1.8 0 1.1-14.3 3.3-17.3 2.6-2-.6-5.8-1-5.7-1.7-.1-.6 4-.4 4-1s-6.3-.3-6.2-.9 4.6-.6 4.6-1.2-2.5-.6-2.6-1.2c-.2-.8 7.5-.8 7.4-2 0-.6-6 .1-8.9.2-2 0-5.4.4-5.2-.4-.2-.5 5.2-.8 5.3-1.4-.1-.7-2.1-1.1-4-1"/><path fill="#e6e6a0" d="M325 245.3c0 .7 4.2 1.3 5.8 1.6 1.5.5 1 1.5 0 1.7-3 .3-9 0-9 1.3.1 1.8 5.6-.3 5.7 1.5 0 1.2-2.5 1.1-3.8 1.1l-10-.7c-4-.4-5.9-2.3-9.4-2.2-2.5.4-7-.2-7 1.4.3 1.1 3.2.3 3.2 1.2 0 1.4-3 1.4-4.1 1.6l-9.4.4-11 1-24.3 1.2a98 98 0 0 0 83.8 46.8 98 98 0 0 0 81-42.6l-52-7.8c-1.2-.1-1.6-1-.5-1.3l2.2-.3c1.5-.1 4 0 4.1-1s-1.6-.7-3.2-.6l-13-1c-.8 0-3.3-.2-3.2.6.2.7 1.3.4 1.4 1-.4 1.4-16.9-1.7-16.6-3 .1-.5 4-.1 4.1-.7.1-1.6-14.8-2.2-14.9-1.2"/><path fill="#e1e18c" d="M341.2 256.4c-2 .1-3.8.4-3.8 1.2-.1 1.5 11.7 1.7 11.7 2.6 0 .7-4.4.3-4.3.9 0 .4 2.8.4 2.8 1-.2 1-11.6-1.3-11.1.7 0 .6 3.8.6 3.8 1.3-.1.8-4.7.5-4.6 1.2 0 .7 2.6.8 3.9 1.3 12.5 2.3 15.3 1.3 17.2.5 2.7-1.5-1-1.7-1-3.6 0-1.8 10.2-1.1 10.4-3.4q0-1-5.4-1.4c-2.4-.4-5-2.3-9.3-2.6zm-21.6 10.8c-4.5.4-5.8 1.6-5.6 2.8.2 1 4 .3 4 1.2 0 1-17.4 3.8-17.2 4.7.1.2-3.7 6.8-1.2 7.3 9.4 1.7 38.7-2 49.9-2.7q2.9-.3 3-2c2.8 0 6.6-.9 6.6-1.3s-2.5-.6-2.5-1.3c0-1.8 9.3.3 9.4-1.2.1-1.1-3.2-1.4-3-2.4 0-1 5.3 0 5.3-.8 0-.6-1.3-1.5-3.2-1.4l-7.5-.2c-10-.5-25.5 2.4-25.7.3 0-.7 4.6-1 4.5-2-.3-1-10.6-.9-16.8-1m56.3-5.8c-3.7.2-8.3.3-8.1 1.6s4 1.2 4 2.5c-.2 1.1-5.5.8-5.5 1.8 0 1.3 9.7 3.2 10.3 2.2.5-.8-1.3-1.2-1.4-2s.5-1.6 2.3-1.8c1.7 0 3 .7 4.5 1q1.8.4 3.5.4c2 0 6 0 6 .7 0 1-3.8 1-3.8 1.8 0 1.2 15.4.7 22 1l-2.3-8.7c-5.7.3-17.3-.2-17.2.8 0 .8 3.1.8 3 1.4 0 .6-4.6.3-7.2 0-1.2 0-1.2-1-3-1.5a32 32 0 0 0-7-1.2m-48.4-1c0 1-4.4 1.2-4.3 2 .3 1.2 7.9-.2 8 .8s-2.5 1.9-4 2c-4.2.4-9.2.3-13.6.3-1.4 0-3.3 0-3.5-.9 0-.7 3.7-1.2 3.5-2.2 0-.9-3.7.2-4-.5s2.8-1 2.7-1.9c-.1-.5-7.9.3-8.1-.7-.2-1.1 3.6-1.2 7.4-1.4 4.9.1 16 1.2 16 2.5m-26.7 4.4c0 .5-2.4.1-2.5.8.3.7 12.8.8 12.9 1.6s-4.6.4-4.5 1.2c0 .6 5 0 5 .7 0 1-12.8 3.5-13 3-2.5-.9-7.2 0-7.8-2.5-.2-1.8 5-1.1 5-2 .1-.7-6.2 0-6.2-.9 0-.5 3-.9 3-1.5s-9.1-.4-9.1-1a45 45 0 0 1 17.2.6m-14.3 3.7c0-1-12.9-.4-19.3-.5l-5.4 12.9 8.2 8 17.1-5.8 3-6.8c-3.2-.8-8.8-1.6-9.6-2.4-.3-1.3 9.6-1 9.7-2 0-1.1-8.9-1.5-8.8-2.3-.1-.7 5.2-.2 5.1-1.1"/><path fill="#ffd42a" d="m317.1 84.7 1.6 11.1q-6.2 1-12 2.6l1.3 4q5.5-1.5 11.2-2.4l.5 3.5q-7 1-14 3.2L302.2 96a114 114 0 0 1 12.5-3l-.5-4.2q-7.8 1.5-15 3.7l-1-3.3q9.5-3 19-4.5m-18.9 4.5 1 3.3a120 120 0 0 0-14.2 5.7l2 3.7a114 114 0 0 1 12-4.8l3.4 10.6a103 103 0 0 0-28.5 15l-7-8.7a114 114 0 0 1 10.7-7.1l-2-3.7a120 120 0 0 0-12.6 8.6 120 120 0 0 0-11.5 10.1l3.1 2.9a114 114 0 0 1 9.6-8.6l6.9 8.8a103 103 0 0 0-21.6 23.9l-9.5-6q3.4-5.3 7.6-10.3l-3.1-2.9a120 120 0 0 0-9 12.4 120 120 0 0 0-7.3 13.5l3.9 1.6a114 114 0 0 1 6-11.3l9.5 6a103 103 0 0 0-12.1 29.7l-11-2.3a114 114 0 0 1 3.6-12.4l-3.9-1.6a120 120 0 0 0-4.2 14.8A120 120 0 0 0 218 195l4.2.2q.6-6.5 1.8-12.7l11 2.3a103 103 0 0 0-1.3 32.2l-11 1.5a114 114 0 0 1-.9-12.8l-4.2-.2q0 7.9 1.1 15.3l-3.5.5c-.9-6.4-1.2-13.2-1-19.4l11.1.4q-.1 6.2.4 12.3l4.2-.6a106 106 0 0 1 1-26.5l-4.1-.8q-1 6-1.3 12.1l-11.2-.4a120 120 0 0 1 8.1-37.9l10.4 4.3q-2.3 5.7-3.8 11.6l4.1.9a105 105 0 0 1 10-24.5l-3.6-2.2q-3 5.2-5.4 11l-10.4-4.3a120 120 0 0 1 20.6-32.8l8.4 7.5q-4.2 4.7-7.6 9.7l3.6 2.2a105 105 0 0 1 17.7-19.6l-2.6-3.3q-4.5 3.9-8.8 8.4l-8.3-7.5a120 120 0 0 1 30.6-23.7l5.2 9.9q-5.4 2.9-10.4 6.4l2.6 3.4a105 105 0 0 1 23.4-12.4l-1.3-4q-5.7 2-11.2 5l-5.2-10q8.4-4.3 18-7.4m55.6-4.5-1.5 11.1q6 1 12 2.6l-1.3 4q-5.6-1.5-11.3-2.4l-.5 3.5q7 1 14 3.2l3.5-10.7a114 114 0 0 0-12.5-3l.6-4.2q7.7 1.5 14.8 3.7l1.1-3.3c-6.1-2-12.7-3.5-18.9-4.5m19 4.5-1.2 3.3a120 120 0 0 1 14.3 5.7l-2 3.7A114 114 0 0 0 372 97l-3.4 10.6a103 103 0 0 1 28.4 15l6.9-8.8a114 114 0 0 0-10.7-7.1l2-3.7a120 120 0 0 1 24.1 18.7l-3.1 2.9a114 114 0 0 0-9.6-8.6l-6.8 8.8a103 103 0 0 1 21.6 23.9l9.4-6q-3.4-5.3-7.6-10.3l3.2-2.9a120 120 0 0 1 9 12.4 120 120 0 0 1 7.2 13.5l-3.9 1.6a114 114 0 0 0-6-11.3l-9.5 6a103 103 0 0 1 12.1 29.7l11-2.3a114 114 0 0 0-3.6-12.4l3.9-1.6a120 120 0 0 1 4.2 14.8A120 120 0 0 1 453 195l-4.2.2a114 114 0 0 0-1.8-12.7l-11 2.3a103 103 0 0 1 1.3 32.2l11 1.5q.9-6.2 1-12.8l4.1-.2a120 120 0 0 1-1 15.3l3.4.5c.9-6.4 1.2-13.2 1-19.4l-11.1.4q.1 6.2-.4 12.3l-4.2-.6a106 106 0 0 0-1-26.5l4.1-.8q1 6 1.4 12.1l11.2-.4a120 120 0 0 0-8.2-37.9l-10.4 4.3q2.3 5.7 3.8 11.6l-4 .9a105 105 0 0 0-10-24.5l3.5-2.2q3 5.2 5.4 11l10.4-4.3a120 120 0 0 0-20.6-32.8l-8.3 7.5q4 4.7 7.5 9.7l-3.5 2.2a106 106 0 0 0-17.8-19.6l2.6-3.3q4.6 3.9 8.8 8.4l8.3-7.5a120 120 0 0 0-30.5-23.7l-5.3 9.9q5.4 2.9 10.4 6.4l-2.6 3.4a105 105 0 0 0-23.4-12.4l1.3-4q5.7 2 11.2 5l5.3-10q-8.6-4.3-18-7.4"/><circle cx="335.5" cy="204.9" r="98.4" fill="none" stroke="#ffd42a" stroke-linecap="square" stroke-width=".7"/><path fill="#217821" d="m371 329.4-10.5-29-66.7 9.5 10.5 29c19.2-1.5 50.9-4 66.7-9.5"/><path fill="#165016" d="m370 326.8.5 1.3c-12.6 4.5-39 7-66.6 9.4l-.5-1.3c27.6-2.5 54-4.9 66.7-9.4"/><path fill="#165016" d="M369.6 325.5c-12.7 4.5-39 6.9-66.7 9.4l-.5-1.3c27.7-2.5 54-5 66.7-9.5z"/><path fill="#165016" d="m368.2 321.5.4 1.3c-12.6 4.6-39 7-66.6 9.5l-.5-1.4c27.6-2.5 54-4.9 66.7-9.4"/><path fill="#165016" d="m367.2 318.9.5 1.3c-12.7 4.5-39 7-66.7 9.4l-.5-1.3c27.7-2.5 54-4.9 66.7-9.4"/><path fill="#165016" d="m366.2 316.2.5 1.4c-12.7 4.5-39 6.9-66.7 9.4l-.4-1.3c27.6-2.5 54-5 66.6-9.5"/><path fill="#165016" d="m365.3 313.6.4 1.3c-12.6 4.5-39 7-66.6 9.4l-.5-1.3c27.6-2.5 54-4.9 66.7-9.4"/><path fill="#165016" d="m364.3 311 .5 1.3c-12.7 4.5-39 7-66.7 9.4l-.5-1.3c27.7-2.5 54-4.9 66.7-9.4"/><path fill="#165016" d="M296.7 317.8c27.6-2.5 54-5 66.7-9.4l.4 1.3c-12.6 4.5-39 6.9-66.6 9.4z"/><path fill="#165016" d="M295.7 315.2c27.7-2.6 54-5 66.7-9.5l.5 1.3c-12.7 4.6-39 7-66.7 9.5z"/><path fill="#165016" d="M294.8 312.5c27.6-2.5 54-4.9 66.6-9.4l.5 1.3c-12.6 4.5-39 7-66.7 9.4z"/><path fill="#165016" d="m360.5 300.5.5 1.3c-12.7 4.5-39 6.9-66.7 9.4l-.5-1.3c27.7-2.5 54-5 66.7-9.4"/><path fill="#217821" d="M465 204.9a129.5 129.5 0 0 1-129.5 129.5v-30.8a98.7 98.7 0 0 0 98.7-98.7z"/><path fill="#165016" d="M460.8 204.9a125.3 125.3 0 0 1-125.3 125.3v-1.4a124 124 0 0 0 123.9-124z"/><path fill="#165016" d="M463.6 204.9a128 128 0 0 1-128.1 128v-1.3a126.7 126.7 0 0 0 126.7-126.7z"/><path fill="#165016" d="M458 204.9a122.5 122.5 0 0 1-122.5 122.5V326a121 121 0 0 0 121-121.1z"/><path fill="#165016" d="M452.4 204.9a117 117 0 0 1-117 116.9v-1.4A115.5 115.5 0 0 0 451 204.9z"/><path fill="#165016" d="M449.6 204.9a114 114 0 0 1-114.1 114v-1.3a112.7 112.7 0 0 0 112.7-112.7z"/><path fill="#165016" d="M446.8 204.9a111.3 111.3 0 0 1-111.3 111.3v-1.4a110 110 0 0 0 109.9-110z"/><path fill="#165016" d="M435.6 204.9a100 100 0 0 1-100.1 100v-1.3a98.7 98.7 0 0 0 98.7-98.7z"/><path fill="#165016" d="M444 204.9a108.5 108.5 0 0 1-108.5 108.5V312a107 107 0 0 0 107-107.1z"/><path fill="#165016" d="M441.2 204.9a105.7 105.7 0 0 1-105.7 105.7v-1.4a104.3 104.3 0 0 0 104.3-104.3z"/><path fill="#165016" d="M438.4 204.9a103 103 0 0 1-103 102.9v-1.4A101.5 101.5 0 0 0 437 204.9z"/><path fill="#165016" d="M455.2 204.9a119.7 119.7 0 0 1-119.7 119.7v-1.4a118.3 118.3 0 0 0 118.3-118.3z"/><path fill="#217821" d="M465 204.9c-.3-4.5.8-18-10.8-30 .7 1.7 4.4 6.6 3.5 10.1a29 29 0 0 0-17.8-10.9c3.8 1.2 6.5 3.9 6.5 4.8-2.5-1-9.2-1.8-11.5-1.5 2 0 5.6 1 6.5 2.4a22 22 0 0 0-11.2-1.3c2.2 0 5.7 1.3 5.6 2.1q-3.2-1.4-7.5-.8c2.4.2 4.3 1.8 5 2.3q-3-1-6.6-.5 3.7 0 4.9 2c-1.5-.6-4-.3-4.7.1 1.6 0 3.3.4 4 1.2-2.2-.2-3.3.4-4.2 1.2 2.9-1.3 4.7-.3 5.5 1l3.4 17.8z"/><path fill="#165016" d="M463.6 204.9c0-9.9-2.4-17.3-11.7-24.5q4.8 5.5 4.7 10c-2.5-7.2-9.2-15.3-15.2-14.8 2.5.5 3.3 1.9 3.8 3-1-.8-4.1-1.5-5.8-1.5 3.6.7 4.2 1.5 5.3 3.3-1.7-1.2-5-1.8-7.8-1.4 2.4 0 5 1.3 5.4 2.5-2-1-7.5-2.3-10.7-1.2 2.6-.3 5.5.8 7 1.7a21 21 0 0 0-12.9.4c5.5-.8 6.5.5 7 1.3-4.7-.2-6.3.7-7.6 2a9 9 0 0 1 7.6-.4 27 27 0 0 0-10.7 4.3c5.1-2.3 10.2-1.8 13.1.9l1.9 14.4z"/><path fill="#217821" d="M460.8 204.9c0-9.9-8.8-22.4-14.1-23.9 2.5 1.6 3 3.2 3.8 6.1-1.5-3.2-4.6-5.2-10.4-4.8q4.3.3 5.2 3.2c-1.4-1.6-5.5-2-7.2-1.8 2.9.6 5.3 2.2 5.4 4a9 9 0 0 0-7.5-2.5c2 .1 3.6.9 3.9 2.4q-3-2.4-7.5-1c2.6-.1 5 .7 5 1.8l1 16.5zm-254.8 0a129.5 129.5 0 0 0 129.5 129.5v-30.8a98.7 98.7 0 0 1-98.7-98.7z"/><path fill="#165016" d="M210.2 204.9a125.3 125.3 0 0 0 125.3 125.3v-1.4a124 124 0 0 1-124-124z"/><path fill="#165016" d="M207.4 204.9a128 128 0 0 0 128 128v-1.3a126.7 126.7 0 0 1-126.6-126.7z"/><path fill="#165016" d="M213 204.9a122.5 122.5 0 0 0 122.5 122.5V326a121 121 0 0 1-121.1-121.1z"/><path fill="#165016" d="M218.6 204.9a117 117 0 0 0 116.9 116.9v-1.4A115.5 115.5 0 0 1 220 204.9z"/><path fill="#165016" d="M221.4 204.9a114 114 0 0 0 114 114v-1.3a112.7 112.7 0 0 1-112.6-112.7z"/><path fill="#165016" d="M224.2 204.9a111.3 111.3 0 0 0 111.3 111.3v-1.4a110 110 0 0 1-110-110z"/><path fill="#165016" d="M235.4 204.9a100 100 0 0 0 100 100v-1.3a98.7 98.7 0 0 1-98.6-98.7z"/><path fill="#165016" d="M227 204.9a108.5 108.5 0 0 0 108.5 108.5V312a107 107 0 0 1-107.1-107.1z"/><path fill="#165016" d="M229.8 204.9a105.7 105.7 0 0 0 105.7 105.7v-1.4a104.3 104.3 0 0 1-104.3-104.3z"/><path fill="#165016" d="M232.6 204.9a103 103 0 0 0 102.9 102.9v-1.4A101.5 101.5 0 0 1 234 204.9z"/><path fill="#165016" d="M215.8 204.9a119.7 119.7 0 0 0 119.7 119.7v-1.4a118.3 118.3 0 0 1-118.3-118.3z"/><path fill="#217821" d="M206 204.9c.2-4.5-1-18 10.7-30-.7 1.7-4.4 6.6-3.5 10.1a30 30 0 0 1 17.9-10.9c-3.8 1.2-6.5 3.9-6.6 4.8a36 36 0 0 1 11.5-1.5c-1.9 0-5.5 1-6.5 2.4 3.2-1.6 8.4-1.7 11.2-1.3-2.2 0-5.6 1.3-5.6 2.1q3.3-1.4 7.5-.8c-2.4.2-4.3 1.8-5 2.3q3-1 6.6-.5-3.7 0-4.9 2c1.5-.6 4-.3 4.7.1-1.6 0-3.3.4-4 1.2 2.3-.2 3.3.4 4.2 1.2-2.9-1.3-4.7-.3-5.5 1l-3.3 17.8z"/><path fill="#165016" d="M207.4 204.9a27 27 0 0 1 11.6-24.5q-4.8 5.5-4.7 10c2.5-7.2 9.2-15.3 15.2-14.8a5 5 0 0 0-3.8 3 13 13 0 0 1 5.8-1.5c-3.6.7-4.2 1.5-5.3 3.3 1.7-1.2 5-1.8 7.8-1.4-2.4 0-4.9 1.3-5.4 2.5 2-1 7.6-2.3 10.7-1.2-2.5-.3-5.5.8-7 1.7 4.7-1.2 9.3-1.1 12.9.4-5.5-.8-6.4.5-7 1.3 4.7-.2 6.3.7 7.6 2a9 9 0 0 0-7.6-.4c2.3 0 9.8 3 10.7 4.3-5.1-2.3-10.1-1.8-13 .9l-2 14.4z"/><path fill="#217821" d="M210.2 204.9c-.1-9.9 8.8-22.4 14-23.9-2.5 1.6-3 3.2-3.8 6.1 1.5-3.2 4.6-5.2 10.4-4.8q-4.2.3-5.2 3.2c1.5-1.6 5.5-2 7.2-1.8-2.8.6-5.3 2.2-5.4 4 1.8-1.8 4.7-3 7.5-2.5q-3.2.1-3.8 2.4 2.8-2.4 7.5-1c-2.7-.1-5 .7-5 1.8l-1 16.5zM300 329.4l10.5-29 66.6 9.5-10.5 29c-19.2-1.5-50.9-4-66.7-9.5"/><path fill="#165016" d="m300.9 326.8-.5 1.3c12.7 4.5 39 7 66.7 9.4l.4-1.3c-27.6-2.5-54-4.9-66.6-9.4"/><path fill="#165016" d="M301.3 325.5c12.7 4.5 39 6.9 66.7 9.4l.5-1.3c-27.6-2.5-54-5-66.7-9.5z"/><path fill="#165016" d="m302.8 321.5-.5 1.3c12.7 4.6 39 7 66.7 9.5l.5-1.4c-27.7-2.5-54-4.9-66.7-9.4"/><path fill="#165016" d="m303.7 318.9-.4 1.3c12.6 4.5 39 7 66.6 9.4l.5-1.3c-27.6-2.5-54-4.9-66.7-9.4"/><path fill="#165016" d="m304.7 316.2-.5 1.4c12.7 4.5 39 6.9 66.7 9.4l.5-1.3c-27.7-2.5-54-5-66.7-9.5"/><path fill="#165016" d="m305.7 313.6-.5 1.3c12.7 4.5 39 7 66.7 9.4l.4-1.3c-27.6-2.5-54-4.9-66.6-9.4"/><path fill="#165016" d="m306.6 311-.5 1.3c12.7 4.5 39 7 66.7 9.4l.5-1.3c-27.7-2.5-54-4.9-66.7-9.4"/><path fill="#165016" d="M374.2 317.8c-27.6-2.5-54-5-66.6-9.4l-.5 1.3c12.7 4.5 39 6.9 66.7 9.4z"/><path fill="#165016" d="M375.2 315.2c-27.6-2.6-54-5-66.7-9.5l-.5 1.3c12.7 4.6 39 7 66.7 9.5z"/><path fill="#165016" d="M376.2 312.5c-27.7-2.5-54-4.9-66.7-9.4l-.5 1.3c12.7 4.5 39 7 66.7 9.4z"/><path fill="#165016" d="m310.4 300.5-.4 1.3c12.6 4.5 39 6.9 66.6 9.4l.5-1.3c-27.6-2.5-54-5-66.7-9.4"/><g transform="translate(786 8.9)scale(1.40014)"><path fill="#64300b" d="M-328.5 149.2q-1.6.1-2.7 1c-1.4.3-2.9.3-4.2.8-2 1-4 3.8-7 5.1q-1.5.7-4.2-.2c-1-.1-2.5-.2-3.3.9-.7 1-3.6 3.5-3.7 5.9 0 1.3-1.2 2-2 2.2q-1.5-.2-2.6 0c-.8.3-3.3.3-3.7-.4-.3-2 2-3.3 3.1-3.1 1 .6 3.1.8 3-.7q.8 0 1.2-.6c.8-1.4 1.9-3 2.3-4.5.1-.3-.2-.8 0-1.4q.6-1.4 2.2-2 1 0 1.6.3 1.9 1 3.8-.4c.9-.8 2-4 3.5-5.8zm30.8 2.9c.7.8 1.4 1.2.7 3-1 2.5-1.7 4.5-2.4 7-.1.4-.7 1.1-1.2 1.2-2.1.3-3.3 1.8-3.7 1.8s-3.3.3-3.6-.8c1.7-2.9 1.8-2.6 3.3-2.8.8-.1.8-.3 1.1-.8.7.2 1.7.5 2.2-.2.3-.6 2.1-3.5 1.9-4.5l-.7-1-.2-1c0-.5-1.8-.9-2.3-1-3.4-1.4-6.5-4-8.5-6.8-.6-1 1.7-1.5 2-2.2l6.8 2.3c.4 1.4 2.3 4 3.6 5.1z"/><path fill="#8c580d" d="M-296.8 143.5c1 0 2 .3 3 2q2.3 3.1 4.7 5.9c.3.3.6 1.2.4 1.6-1 2-.4 3.8-.6 4.2a15 15 0 0 1-2.5 3.6l-1.4-3.3c-.3-1.3.4-1.7.7-2.3.5-.7.2-.7 0-1.3.4-.4 1.3-1 1-1.9-.4-.6-2.2-3.4-3.1-3.8l-2.1-.8q-.8-.3-1.3 0c-3.3 1.6-7 3.1-10.4 3.2-1.2 0-1.2-.5-1.6-1.1-9.2 5.2-18 3.6-28.1.2q-1.6-.4-2.9.4c-2.6 1.3-4.8 3.4-7.1 4.8a7 7 0 0 1-4.8.8c-.6-.2-1.1-1-1.6-1-1.7-.4-2.4-.9-4-1.7-1-.3-2.1-.6-3 .4-1 1-3.2 2.5-3.7 4.9-.3 1.2-1.7 1.8-2.4 1.8l-2.6-.5q-1.4.3-2.9 0c0-1.9 2-3.4 3.9-3.7.8.8 2 1.5 2.1 0q.8.3 1.3-.4 1.8-1.8 3.2-4l.3-1.4q.7-1.2 2.5-1.5.9.2 1.5.6 1.6 1.2 3.8.3c1-.6 2.6-3.6 4.4-5l.7-1.2q.8-2.5 2.5-4.5-.5-.4-1.3 0c-3 1.7-5.8 5-9.4 7q1.6-1.8 2.7-3.7-1.7 1.6-4 2.5c.7-.8 1.5-1.4 1.9-2.8-1 .4-3.7 3.8-6 5.1 1.3-1.2 2.6-3.6 3.4-4.9-1.7.2-4.4 5.6-6.5 6.7q1.7-2.4 2.9-4.8c-2 1.3-3.4 4.3-5.1 5.6l.2-.9q-1.5 1.4-3.2 2.2 2.6-2.4 4.4-5.2c-2.5 1.3-3.7 4-5.9 4.8 1.6-1.4 2.2-2.6 2.8-3.8a9 9 0 0 1-5.5 3c3.5-2 7.7-9.3 10.6-11.2 2.2-1.1 9.2-2.5 11.2-3.5 1-.4 2.4-.3 3.3-.1 2 .3 3.3 1.4 4.9 2q3.3-1.7 6.1-1.9 3.1 0 6.4.7c7.3 1.5 15.4.2 18.7-3.3-.9-.1-1.2-.4-1.8-1 2.5 1 1-3.7 3.2-3.1q-.4-1-1.1-2c2.4 1.4 1.7-3.2 5-1.7-.2-.5-.8-1-2.9-1.6 3.8.5 3-1.9 6.8-1.2l-2.4-1.2c3.5.8 2-.4 5 0-.6-.1-1.7-.3-1.8-.6.7.3 2.5-.8 4.4 0l-1.6-1c.9 0 .9-.4 1.7-.4 1 0 2.7 1.4 4.2 1.7 1 .1 2.5 1.3 3 2.4l3.7.2q-.9.6-1.4 1.2c1.2 0 1.2.2 1.8.3q-.9.5-1.7 1.2c1.7 2.2-.3 5.4-2 6.4v-1c-1.5 2.5-4.2 6.3-4.4 6.9 0 .3-.2 1.2-.4 1.4s-.9 0-1.2.2l-.8.4c-.4 0-1.1-.3-1.7 0l-.3-.3c.7-1 1.4-1.6 1.4-2.8-.8.7-1.7 1.9-2.1 1.9h-.3l-.1-.3c-.5-.5-.4-1.6 0-2.3.6-1 2-1.7 1.9-2.4-.1-.9-.2-1-.5-1.8-.2 0-2.4 4.2-2.5 4.8s.3 3 .2 4.2c0 1.6-.6 2.4-.9 3.6 1.5.5 4.3 0 6-.4z"/><path fill="#64300b" d="M-300 127a5 5 0 0 0-2.7 1q-.1.2.1.3.5 0 .7 1-.1 1.9-1 3.5a8 8 0 0 0-1.6 3.5c0 1.5.3 2 .3 3.6 0 1.4-.8 2-1 2.7q0 1.4 1.3 1.8c.3-1.2.9-2 1-3.6 0-1.2-.4-3.7-.3-4.2s2.3-4.8 2.5-4.8a5 5 0 0 1-.5-2.6c0-1.3.7-1.7 1.2-2.3m-11.4 19.1c-.8 2-1 3.2-2.6 3.4s-3-1-4.4-1.8c-2.9-1.8-7.8-1-9.5 0-2 1.2-2.6 2.8-5.8 3.4 8.7 2.6 15.6 3 23.7-1.6q-1-1.5-1.4-3.4m-24.1 1.5c-2 0-4.4 1.8-5.5 2.5.8-.4 1.9-.8 2.9-.4l1.7.5c-.6-.3-1.5-.5-1.4-1.3q0-.7 2.3-1.3"/><path fill="#262626" d="M-369.2 156c-1.9.2-3.8 1.7-3.9 3.6q1 .3 2 .1 1-1.9 2.6-3.2zm76.6-.6a2 2 0 0 0-.6 2l1.4 3.4 1.8-2.2a8 8 0 0 0-2.6-3.2"/><path fill="#64300b" d="M-341 150c-1.8.9-4.1 2.5-6.2 3.7-1.5.9-1.1 1.3-3.7 1.6-2 .1-2.2-.5-3.2-1-2.2-.5-3.6-1.5-4-1.8-1-.4-2.8-.8-3.5 0-1.8 1.6-3.8 3.8-4 5q0 .4-.3.4-.4-.1-.7-2h-.5q0 .5-.3.8c.7 2.9-.8 3.1-1.4 3.1l.6.2h.6q.6.1 1.6-.5l.4-.4.4-.8.6-1.7 1.6-1.9 1-.9.4-.4.4-.3 1.2-.4h.2l1.3.3 1 .6 3.5 1.4.2.1.2.2.2.2.8.3h2.5l2-.9 1.7-1.2 1.7-1.2 1-.7.4-.3 1.4-.9zm-18.8-1.4h-.5l1.2.8c1.6 1 3.6 1.8 4.6 1.2q.6-.6.3-1.3l-.3.2c-1.4.8-2.8.4-3.8-.3q-.7-.4-1.5-.6m60.7-.9c-3.2 1.2-8.1 3.1-10.2 2.3h-.4q.2.6 1.3.6c3.4 0 7-1.6 10.2-3.1zm2.4-.3 2 .8c1 .4 2.8 3.2 3.1 3.8.4.9-.5 1.5-1 2l.2.3q1-.2 1.4-1c0-.4.4-1.3.1-1.6l-2.6-3.5-.8-.2c-.6 0-1.8-.5-2.4-.6"/><path fill="#a6680f" d="M-296.4 143.6c-.5 0-1.1.3-1 .5 0 .8 1.8 1.6 2.7 1q.5-.6-.4-1-.4-.5-1.3-.5"/><path fill="#8c580d" d="M-299.2 151.9c-.5 0-1 1.1-1 1.5.2.7.9 2.7 2 2.6.8 0 1.3-2.3.8-3-.2-.4-1-1.1-1.8-1.1m1.3 5.4q-.8 1.7-1.7 3-.7.6-1.7.2c-.5.7-1.5.4-2.2.2-.3.5-.3.7-1.1.8-1.5.2-1.6 0-3.3 2.8.3 1 3.2.9 3.6.8s1.6-1.5 3.7-1.8c.5 0 1-.8 1.2-1.2z"/><path fill="#1a1a1a" d="M-304.6 161.5c-1.5.2-1.6 0-3.3 2.8.1.6 1.2.8 2 .9z"/><path fill="#8c580d" d="M-359 161.4c-1.2 0-3.2 1.3-2.9 3 .4.8 2.9.8 3.7.6.7-.3 1.6 0 2.6-.1q.9 0 1.6-1c-1.2.5-2.5.6-4-2.2l-.8-.3z"/><path fill="#1a1a1a" d="M-359 161.4c-1.2 0-3.2 1.3-2.9 3q.5.7 2 .7c0-1.1.8-2.6 1.4-3.6l-.3-.1z"/><path fill="#a6680f" d="M-289.6 151.3c-.5 0-1 .8-1 1 0 .8.2 3.2 1 2.9q.4-.4.4-1.1.4-.9.4-1.6c-.1-.3-.1-1.2-.8-1.2"/><path fill="#64300b" d="M-348.2 138.8c-13.2 2.6-9 3.5-14.8 8.1 2.3-1.3 5-4.8 6-5.1-.4 1.4-1.2 2-1.8 2.8q2.1-1 4-2.5a18 18 0 0 1-2.8 3.6c3.6-2 6.4-5.3 9.4-7"/><path fill="#64300b" d="M-347.6 137c-9.3-1-16.3 5.7-25.2 13.4 2.7-.6 12.5-14.2 25.2-13.5"/><path fill="#64300b" d="M-356.5 137c-3.2.8-5 2.8-7.4 4.4 2.8-1.1 3.5-3.3 7.4-4.4"/><path fill="#64300b" d="M-352 134.6q-1 0-1.7.3c-2 1-9 2.4-11.2 3.5-1.3.8-2.8 2.7-4.4 4.7 5.1-6 6.7-5.2 10.4-6.3 4.6-1.4 7-2.3 9.6-1.8l-1-.2h-.1zm-14 14c2.7-1.2 6.2-11.2 19.2-10.5-12.5-1.5-17.2 9-19.3 10.6"/><path fill="#64300b" d="M-371.3 150.8a15 15 0 0 0 3.2-2.2l-.2.9c1.6-1.2 6-6.7 7.9-9-3.2 3.2-8.3 8.7-11 10.3m4.1-6.5c-4 2.1-3.4 3.7-8.3 5.2 3.6-.1 6.5-3.8 8.3-5.2m3.1-3.8c-2.8 1-2.5 2.7-5 4 2-.6 2.7-3 5-4m17.2-1.7a15 15 0 0 0-2.8 5c1-2 2.2-4 2.8-5m31.8-5.8c-4.6 3.2-11.1 3.8-17.9 2.6q-3.2-.8-6.4-.7-2.9.2-6.1 1.8c2.2-.5 3.5-1.5 7.6-1.4 2.4 0 6.7 1.3 9.7 1.5q4.7 0 7.7-.8c2.7-1 4.2-1.6 5.4-3m26.2-10.2q-1.8.5-3.8 1.6l1.2.2q.5-.5 1.2-.6.5-.6 1.4-1.2"/><path fill="#fff" d="M-294.2 128.2a28 28 0 0 1-3 8.8h-.9l-.2.3v.2l.1.5-.4.6v1l.4-.3 1.2-.1c.2-.2.4-1 .4-1.4.2-.6 2.9-4.4 4.4-6.8v-.5l.3-1 .1-.5v-.4l-.2-.4h-1.4z"/><path fill="#64300b" d="M-297.3 138.3q.1-.5-.3-.6l-.5.1q-.3-.2-.1-.6 0-.2 1-.2l-1 .1q-.4.3 0 .8-.4.2-.5.5l.2.2q.3 0 .5-.3z"/><circle cx="-294.1" cy="130.1" r=".6" fill="none"/><path fill="#64300b" d="M-294.9 129.4a.6 1 7.7 0 0-.1 0 .6 1 7.7 0 0-.3.6.6 1 7.7 0 0 .4 1 .6 1 7.7 0 0 .4 0 .6 1 7.7 0 0 .3-.6.6 1 7.7 0 0-.5-1 .6 1 7.7 0 0-.2 0m4.2-5.3q.4.5.3 1.4c0 .8 0 1.2-.8 2.2-.6.6-1 .7-3.6.4 1.1.2 2.8.6 3.6-.3q1.2-1.4 1-2.3l-.1-1.5z"/><path fill="#fff" d="M-294.4 129.8h-.7q.4-.2.7 0m0 .9q-.3.2-.7 0 .4.3.7 0"/><path fill="#64300b" d="m-288.5 124.3-1.9.7.2.5zm-11.6 11.4c-.3 0-1.2.7-1.5 1q-.4.8-.3 1.2l.4.6 2-1.8q0-1-.6-1m10-10.2-.2.3c1.3 1.7.3 3.8-1 5.4 1.4-1.4 2.5-4 1.1-5.7m-9.7-7c.8.2 2.3 1 2.8 1.4s1.7.4 2.2.8a8 8 0 0 1 2 1.9h.2c-.5-1.1-2-2.3-3-2.4-1.5-.3-3.3-1.8-4.2-1.7m2.4 2.2-1.6-.9c-.7-.3-1.9-.3-2.5-.9.4.5 2 1 2 1.2l.3.3q-1.2-.4-2.3-.2-1.3.3-1.6.2l-1.2-.5 1 .5c.8.3 1.5 0 2.1 0q1-.1 1.3.2c.5.4 2 .1 2.5.1m-2.9.2c-.7 0-2.3.8-3.6.8-1.7 0-2.3-.9-3.6-1.2 1.3.6 2.4 1.4 3.4 1.5.8 0 2.5-.8 3.8-1m-4.2 1.3a5 5 0 0 0-2.5 1q-.7.8-1.4.9c-.6 0-2.2-1-3.5-1.2.5.1 2 1 2.2 1 .6.4 1 1 1.3.9l2-1.6q.8-.7 1.9-1m-4.4 2.8c-1.2.8-2.4 2.8-3.4 2.8-.5 0-1-1-1.7-1.7.6.8 1 2.4 1.6 2.4 1.6 0 2.4-2.3 3.5-3.5m-3.8 4c-.4.6-1 2.4-1.5 2.7q-.7.4-1.9-.3c.7.7.7 1 1.8.9.6-.5 1.1-2.3 1.6-3.3"/><path fill="#76490b" d="M-292.3 130.8c-1.4 2.3-4.3 6.7-4.3 6.9q0 .8-.4 1.4l-.3.1h-.8l-.4.3.3-.1c.3-.2 1 0 1.2-.2s.4-1 .4-1.4c.2-.6 2.9-4.4 4.4-6.8z"/><path fill="#64300b" d="M-292.2 131.9c.3-.7-.1-1 0-1.4.2-.7.8-1.5.3-2.3h-.1c.6 1.1-.6 2.1-.2 2.8zm.7-7.3q-.2.8-1.2 1.3l-1.4.2c-.4.1-.7.6-1 .7-.6.1-.7.3-1.1 0q.5.4 1 0c.5 0 .8-.5 1.1-.6l1.5-.1q1.1-.5 1.3-1.2l.2-.9zm-6-4.4 1.6.9c.5.3 1 1.5 3.1 1.5-2 .4-2.6-.9-3-1.3q-.8-.6-1.7-1"/></g><path fill="#ffd471" d="m323.3 199-.8 4.6c5.7 4 4.1 13.3 3.7 19.2l12.6.5c.2-5.5-.5-19.2 2-20.2l-1-5.6a37 37 0 0 1-16.5 1.5"/><path fill="#283926" d="m324.1 199.1-.8 4.3c5.5 4.1 4 12.7 3.6 18.7l11.2.5c.1-5.6-.6-18.7 2-19.8l-1-5.1c-4.5 1.3-9.1 2-15 1.4"/><path fill="#c82814" d="m324 194-.3.3q2.8 2.2 3.1 4.5l-3.1-.4-.4 2.1c6 2.7 11.7 3.2 16.3-1.2l-.3-2.1-3 .7c.2-2 1-4.5 2.1-6.6l-.5-.2c-4.2 7.2-9.6 6.1-13.8 3"/><g transform="translate(786 8.9)scale(1.40014)"><path fill="#2959b2" d="m-315 111.4 2.6 1.6q.4.1.1.4l.4-.1-.6 1c0 1 0 3.1-.6 4.3-1 1.8-2 3.4-3.3 3.7l-.5 1.7c.2 4.1 1 10 .2 12.4l-2.3 6.5c-.8-.4-1-1.4-2.5-1.2-1.3.1-1.2.8-2.2 1l-1.6-.1q-.7 0-1.5-.5c-.5-.2-.5-1-1-.9-1.1.1-1.5.8-2.2 1.2-1.3.6-1.3-.7-1.9-1.3 1.6-2 4.4-4.3 4.8-6.3s0-3.2-.1-4.8a10 10 0 0 1 1.9-4.5q1.4-1.3 2.8-2.3c-1.3-1.7-2.8-3-3.7-5.1-.4-1-.5-1.9.5-2.7l4.7-2.6 3-.5h1.9z"/><path fill="#cc9629" d="m-316.4 122.3-.5 1.7-3.4-1.2.6-1.5z"/><path fill="#1c3180" d="M-313.6 119.5c-2 2-3.2 2-5.6 2 1 .6 2.3.8 2.8.8q.6-.2 1.6.6c.2-.2 2.4-1 2-1.6-.1-.3-1.6-.4-1.4-.8zm-3.3 4.5c.3 4.1 1 10.9.2 12.4.7-2-.2-12.4-1.9-13zm-9.6-7c.3 1.8 2 3.5 3.6 4.7l-.7.2c-1-1.2-2.8-3.2-2.9-5m3.6 6.5q-1.2.7-2.4 2a8 8 0 0 0-2 4.5c.1 1.6.5 2.8.2 4.8q-.2 1-1 2c1.6-1.5 1.7-3.9 1.7-4.8l.2-1.8c.4 1.7.2 1.4.7 2.7.7 1.3 1.5 1 1.5 3.2.2-1.8-.6-2.5-.9-3-.2-.6-1-4-.6-5.4q.7-2.2 2.8-4z"/><path fill="#e0be69" d="m-309.3 108 .1 1.5-.2.5.2 1.3c0 .2-.5 0-.5.1v.5l-.1.1-.1.2-.2.7q-.4.3-1.3-.1-.5.2-.6.4l-.3.1v-.2l-1.9-1.2-.8-.4q.4-.5.4-1z"/><path fill="#1c3180" d="m-315 111.4 2.6 1.6q.4 0 .1.3h.4v.1q-.3 0-.8.6l.2.1v.1l-.3-.1-3.8.1c-1 3.2-2 4.3-4.7 3.8l-.1.5-.1-.1v-.6c3.7.8 4-1.8 4.8-3.8h3.8q-2-.6-3.2-1.7a9 9 0 0 0 3.3 1.6l.4-.5v-.3q-1.2-.9-2.7-1.6z"/><path fill="none" stroke="#1c3180" stroke-width=".1" d="M-316.4 113.2v1.7m.3-1.7v1.7"/><path fill="#1c3180" d="M-321.8 116.4q-.1 1.3 0 1.6l.8-.8 1.3-.8-1.3 1q-.5.8-.4 1.1c.3.6.5.6.5 1s.9.9 1.2 1.4l-.5.2c-.3-.7-.8-1.6-2.1-1.8l1.3.1q-.2-.7-.7-1c-.1-.2-.9-.3-1.4-.3q.6-.2 1.1 0-.3-.7-1.3-1 1 .3 1.4.8z"/><path fill="#b22d14" d="m-309.4 106.9-2.7-1-3 2.8z"/><ellipse cx="-327.9" cy="32.7" fill="#b22d14" rx=".3" ry=".5" transform="rotate(-13)"/><path d="m-314.8 111.2.5.1c.4 0 1.4 0 1.4-.3 0 0 0-.7.3-.8h.3v.3h.3c0-.5.5-1 .6-1.4l-3.2 1.4z"/><path fill="#b22d14" d="M-312.1 109.5q.2 1.7 1 3.3l.2.1q-.7-1.6-.9-3.6z"/><path d="M-309.5 109.7h-.7l-.4.1.4-.2h.8z"/><path fill="#c89632" d="m-309.9 111 .1.4q-.4-.1 0-.4"/><path fill="#b22d14" d="m-316 110 .2.3c-.7.1-1.2.9-1.4 1.4h-.4c.3-.3.5-1 1-1.3-.6.3-1.4 1-2.2 1.1h-.8v-.4l.9.1c1-.2 1.9-1.2 2.6-1.2"/><path fill="#b28e49" d="M-308.7 106.6c.1.5.4 1.8-.5 2q-1.4.1-4.4 1.7c-.5.2-1.3.9-2.1.6q-1-.7-.7-1.5c.1-.7.3-1.4 1.4-1.3 1.6.1 6.2-1.8 6.3-1.5"/><path fill="#c89632" d="M-312.6 110.2q-.4.5 0 1 0 .2.2.2-.2.2-.3-.1c-.3-.3-.2-1 0-1.1m.3 1.4c0 .7.3.7.7 1q-1-.3-.7-1"/><path fill="#c89632" d="M-312.4 110.8q.1-.6-.2-.5c.2-.3.4.3.2.5m2.3 1q0 .2.4 0-.3.5-.4 0m0 .2.2.2q-.1.1-.2-.2"/><path d="M-309.7 110v.2q-.2-.1-.2-.3h-.6z"/><path fill="#1eb4c8" d="M-312.6 121.3c.8.4.3 2 .2 2.3-.2.2-1.8 0-2-.3q-.5-.2-.5-1.1c.1-.6.9-1.2 2.3-.9"/><path fill="#137380" d="M-313.6 122.3q-1 .1-1 1h.1c.3.3 2 .5 2.1.3l.1-.4q0-.9-1.3-.9"/><path fill="#e0be69" d="M-314.2 122.5h.5l.3.2h.7q.2.3 0 .4.3.5 0 .6.2.1 0 .4v.3l-.2.1-1-.1q-.2-.2 0-.4c-.2 0-.1-.4 0-.4q-.2-.2 0-.4l-.1-.1q-.2.2-.4 0z"/><path fill="#c89632" d="M-314 123.2h1zm0 .4h1zm0 .4 1 .1zm1.4-.3h-.1zm0 .4h-.1m-1.3.3 1 .1zm.4-1.7h-.4l-.1.1v.3-.3z"/><path fill="#1eb4c8" d="m-319.4 123.4-1.4.5-1.6.1c-.3 0-1.5-1.2-1.7-2 .2-.8 3.4-1.3 4.7-1 .2.8.7 1.5 0 2.4"/><path fill="#137380" d="M-319.5 123q-1 0-1.7.6c-.4.2-1.1.2-1.2.4q.8.2 1.6 0l1.3-.6q.3-.3.5-.9z"/><path fill="#42382d" d="m-320.2 142.4.4-.5-1.3-.5-2.2.4-1.3.5.4 1.4z"/><path fill="#1c3180" d="M-321.6 137.4c-1.5 2.2-7.4 5.7-4.1 1.3-1.9 1.4-6 4.1-5.2 1.3l-1 1.1c.6.6.6 1.9 1.9 1.3.7-.4 1-1 2.1-1.2.6 0 .6.7 1 1q.8.4 1.6.4h1.6c1 0 1-.8 2.2-1 1.4 0 1.7 1 2.5 1.3l1.7-5c-.5.7-7.8 7.2-4.3-.5"/><path fill="#29200a" d="M-320 143.5c-2-.5-3 .3-4.6.4a20 20 0 0 1-1 5.7l-.8 1.6c1.1.4 3 .8 4.7 1 1 .1 2-1.1 2-2h-.1c-.4 0-1.4.6-2.2 0q-.4-.4-.2-1z"/><path fill="#e6e9e7" d="M-319.8 150.1q-.1 1-.7 1.4-.5.6-1.3.6l-4.5-1.1-.1.2c1.1.4 3 .8 4.7 1 1 .1 2-1.1 2-2z" opacity=".9"/><path fill="#186324" d="M-325.6 149.6c.7.3 2.8 1 3.6.6l.1.1c-.5.3-2.5-.1-3.7-.6"/><path fill="#332b0a" d="M-324.2 144c0-1.6 3.1-1.5 4.2-1.6l-.4 1.3z"/><path fill="#186324" d="M-321 143.3c-1.4 0-2.3.5-3.6.6v.5c1.5 0 2.5-.7 4.4-.5l.2-.4z"/><path fill="#e0be69" d="M-318.5 124.7v.7h-.2q0 .2-.2.3h-.3l-.2.1h-.2l-.2.1c-.4 0-.6-.7-.7-.9l-.1-.6-.5-.7 1.4-.6.4.7.9.5z"/><path fill="#c89632" d="M-321.1 123.7q.7-.5 1.4-.6-.8.3-1.1 1zm.5 1q.3 1 .5 1.1c-.3-.2-.5-1-.5-1.1"/></g><path fill="#301d08" d="M417.3 154.4c-10.9 1.8-42.6 14.3-77.6 28.4q.3.4.3.7c34.5-14 65.7-26.5 77.4-28.8zm-80 29.4c-26.8 10.8-55 22.5-77.4 31l.4 1.2c22.4-8.7 50.6-20.5 77.2-31.4z"/><path fill="none" stroke="#000" stroke-width=".4" d="M416.7 154.5c.2.9-2.1 2.5-4.6 4-4.4 2.7-15.2 14.9-20.7 19.6-8.1 5.8-13.4 1.3-12.5-6.4.4-2.2-1.5-4.7-5.6-3.4-3 1.1-3.7 3.8-7.3 5.6-1.6.6-3.1 1.1-3.7-.1"/><g transform="translate(786 8.9)scale(1.40014)"><circle cx="-299.4" cy="135.2" r=".5" fill="none" stroke="#b9b9b9" stroke-width=".2"/><path fill="#301d08" d="m-299.4 134.7.3.2c1.8-4.4 3-8.8 4.7-12.4l-.4-.2c-2 4-3 8.2-4.6 12.4"/><path fill="#301d08" d="m-297.3 129.4-.2.4q-2-.9-3.7-1.2l.2-.4q2 .3 3.7 1.2m3 4.7-.2.4-4-1.4.1-.4q2.2.6 4.1 1.4m-5.4.7-.1.4a58 58 0 0 1-12.3-12q-.2-.4-.6-.5h-.5c.2-.3 1.2 0 1.4.5 1.4 2.7 11 11.1 12.1 11.6m-1.3 0-.3.2-.9-.6.2-.4z"/><path fill="#301d08" d="m-311.3 124.7-.2.2-.7-1.3q-.1-.5-.5-.9l.3.2q.4.3.5.8.2.6.6 1"/><path fill="#b9b9b9" d="m-299.8 135.5-.2.2q0 .3.2.1l.2-.2z"/></g><path fill="#b9b9b9" d="m335 218.5-.4 1.4-.5.6-.3 1.2-1.3-.2-.1.4 4.1.8.1-.4-1.4-.3.3-1.3-.3-.7.3-1.4z"/><g transform="translate(191.7 -3.6)scale(1.40014)"><circle cx="177" cy="154.3" r="18" fill="#dc1e19"/><circle cx="177" cy="154.3" r="16" fill="#c8f0f5"/></g><path fill="#e1e0d8" d="M438.6 200.7c-3.1 0-3.1 1.4-4 2.6l-2.5 2.9c-1.2 1-2.9 3.1-4.2 4.5-.9 1-1.5 2.3-1.8 3l-1 1.3c0 .9.1 2 .4 2.4s1 0 1.5.2c.2.2 0 1 .6 1.1a3 3 0 0 0 2 0c1-.5 1.7-1.3 2.6-1.6.9-.1 2.3-.3 3.4.2q1.7 1 3.2 2.6c.8.9 1 1.7 1.4 2.9.3 1.4 1 3.4 1.7 4.5q.8 3.6 1.2 7.3a22.4 22.4 0 0 0 18.9-22.1v-.4q-3.5-1-6.6-2.7a61 61 0 0 1-6.6-4.1c-1.8-1.4-3-3.4-4.6-3.5z"/><path fill="#b98a25" d="m435.6 208.6 1.4.4q.1.5-.5.6-.8 0-1.1-.2v-.6z"/><path d="M434.8 209.6c.6-.5.5-1.2 1-1.1q1 .5 2.3.6c-.8 0-2.2-.3-2.5-.4-.2 0-.2.5-.8.9"/><path d="M435.6 209h1v.3h-1zm-9 8.5c1.2-.7 1.3-1 2.5-1.5-.3.3-1 .5-2.1 1.6zm-1.5-2.5c.1-.3 1.2-.5 1.3-1q.2-.2.2.3c-.2.4-.9.2-1.3.6l-.1 1.1"/><path fill="#b2b2ab" d="M435.1 217.2q.7-.9 1.6-.8l2 .1c1-.1 1.6-1 2-1-.5.2-.6 1.2-1.4 1.5l-1.5.2q-.8.2-1.2.8zm2.5 1.5c.7-.3 1 .2 1.4 0 .6 0 .6-.4 1-.5q.6.2 1.3.2c.8-.2 1.6-1 2.2-.7-.8.3-1 .9-1.7 1.1q-.7.2-1.2 0l-.6.6q-.6-.1-1.2.5zm10.6.2c-.2.3-1.8.9-2.4.9s-1.3.9-2.2 1c-.7 0-1-.4-1.6-.3-.3 0-.6.5-1 .6l-1.5-.1.7 1.8a17 17 0 0 0 1.7 4.5q.8 3.6 1.2 7.3a22 22 0 0 0 8.5-3.2l.3-1.5q-1.2 1.6-4.8 1.5c1.7-1.9 3-1.4 3.6-3.4-1.7 1-2.3 1-3.3 1 1.5-.6 1.9-2.2 2.1-2.7q-1.7 1.7-3.3 1.2c.2-.8 1.4-.8 1.5-1.8-1.7.6-1.5 0-2-.5l-2.4-.6c1-.2 1.2-1 1.8-1.4.5-.4 1.2-.3 1.9-1q-1.5.7-2.3.4c-.5-.1-.7-.6-1.5-.5l1.1-.8q.6-.7 1.4-.9c.7-.2 1.9-1 2.5-1.5m2.7-12.2 5.5 3.3c-.1 2-1.8 2.7-2 4.6 0-3.1 1.2-3.1-.4-5.1-.8 2.7-.9 1-1.8 2.4a6 6 0 0 0-1.4-5.2m-18.2 10.2q-1.4.1-2 .8c-.5.3-1.4 1-2.2 1q-.8 0-1.2-.6 0 .5.4.6a3 3 0 0 0 2 0q1.4-1 2.6-1.6l1.8-.1q-.5-.3-1.4-.1m7.4-8.6c1.7 1.5 3.9 1.8 5.2 1l-.1.6c-2.1.8-4-.4-5.1-1.6m1-1.6c2.2-.5 4.3.2 5 1.5l.2-.5c-1.5-1.7-3.6-1.6-5.2-1"/><path fill="#b98a25" d="M434.3 203.5c.6 1 3 1.7 4.9 1.9 1.6-.8 3.1-1.3 4.4-.4 1.7 1.5 1.7 3.6 1.5 5.5-1.1-.3-3.2.3-3.8 1.7-.4 1.1.2 2.6 1.3 2.8q1.7.2 2.3-.2.9-.4 1.2-.9.3 1.2-.4 2.3 1.3-.6 2-1.9.1-1-.2-1.8 1-1.7 1.7-3.5.6-2-.4-4.9-1-2.6-4-4.2c-1.6-1-3.1-1-5.4-1-2.4.2-5 3-5.1 4.6"/><path fill="#805f1a" d="M444.8 212.8c0 .6-1.8 1-1.9.1 0-.7 1-.7 2-.5s1.5 1.2 1.5 2q0 .7-.3 1.1l-.4.7c.6-1.2.6-1.7.4-2.3q-.6-1.2-1.3-1m.1-7.4c-.2-1-3.5-4.8-8.9-1.2l-.3.3q1.6.7 3.5.9c1.5-.8 3.4-1.5 4.8 0a3 3 0 0 0-2-1.2c-1.2 0-2 .6-2.9.5-4.6-.4 3.7-3.8 5.8.7"/><path fill="#805f1a" d="M446 213.4c-1.2 1.3-3 1.9-4.5.7q.4.8 1 .9 1.9.2 2.4-.2.9-.4 1.2-.9v.3zm2.2-10.6c2 5.4-.2 6.9-1.1 9.1l.4.6q1-1.7 1.7-3.5.6-2-.4-4.9z"/><path fill="#b2b2ab" d="m433.3 205-1.2 1.2c-1.2 1-2.9 3.1-4.2 4.5-.9 1-1.4 2.3-1.8 3l1.6-2.6 3.5-4 1.6-1.4zm-7.4 8.9"/><g transform="matrix(-1.40014 0 0 1.40014 191.7 -3.6)"><circle cx="-28.4" cy="154.3" r="18" fill="#dc1e19"/><circle cx="-28.4" cy="154.3" r="16" fill="#c8f0f5"/></g><path fill="#a69e96" d="M234.1 202q1.3-1.4 3.4-1.6h4c1.7-.3 3.9-2.4 5.5-2.6-1.6 1-2.4 2.8-3.7 3.9-1.4 1-4.2.7-5.8 2.5z"/><path fill="#bc9667" d="M228.1 202.1q-1-.1-2 .4c-.4.2-.7 1-1.2 1.1l-6.1 2.7h-4.2c-.7 0-1.7-.5-2.5-.5q-1.2-.1-2.2.4a22.3 22.3 0 0 0 13.4 27.1c.5-.8 1.7-.8 2.3-1.4.4-.3 5-3.8 5.9-4 .6 0 1.9.4 2.9.6l2 1c1 .2 3.4.3 4.3.3 1.5-.1 3.8-1.3 5-2.2.6-.7 1.5-3 1-4.5-.5-1-3.3-4-4.6-6.2q-1-2-1.3-4.3c.1-1 .5-2.2.2-3.2s-1.4-1.6-1.7-2.2q-.6-1.9-.8-3.9c-.5-2.7-9.4-2-10.4-1.2"/><path fill="#806646" d="M218 208.6c-4.1.5-5.7 2.2-8.3 2.5 2.1 4.3 5.8 3.2 7.4 3.2-.6 6.5-1.5 8.7 1.2 11.4a15 15 0 0 1-5.6-5.1 21 21 0 0 0 9.2 11 6 6 0 0 0 3.7.3c2.4-.6 4.8-2.2 7-3.8-2.4-1-5.2-1.2-7.8-2.4a6 6 0 0 1-4-3.6c-.9-2.1-1.5-4-1.5-7.3q.2-4 4.5-5c-1.4.3-2.2.2-4 .4-1.6.1-2.8 1.4-4.2 2-1.6.9-4 1-5.4-1 3-.6 4.3-2 7.8-2.6"/><path fill="#bc9667" d="M238.3 204.6c1.2.6 2.2 1.5 3.8 1.8 2.1.2 3.1-.7 5.4-.8.1.6-.2 2-.6 2.4q-1.2 1.1-2.6 1.7c-1 .3-3.3-.4-5.7 0z"/><path fill="#806646" d="M247.5 205.6c-2.3.1-3.3 1-5.4.8 1.6.4 3.1-.3 4.9-.6q-.2 1.8-.9 2.2a5 5 0 0 1-2.1 1.4c-1.2.3-3-.8-4.2-.9 0 .2.7 1 .7 1q2.5.3 3.8.2 1.6-.6 2.6-1.7c.4-.4.8-1.8.6-2.4"/><path fill="#807973" d="M247 197.8q-.8.3-1.5 1c-.6.3-1.6 1.7-2.7 2.3s-3.8 0-5.6 1q-1 .4-1.4 1l1.7 1.1c1.6-1.8 4.4-1.5 5.8-2.5 1.3-1.1 2.1-3 3.7-4"/><path fill="#f2f2da" d="M232.6 201.4q-4 0-6.5 1c-.4.3-.7 1-1.2 1.2l-2 1q-.9 1.9-.7 3.2c.2 1.1 2.1 1 1.6 2a6 6 0 0 0-.4 4.4c.6 1.5 3.7 2.3 5 2.2 1.2-.3 1.6-1.2 2.3-1.1 1 .3 2.7 3.4 4 5.1 1.5 1.8.2 3 .3 4.6q0 2.2.6 4l.8.4c1 .3 3.4.4 4.3.4 1.5-.1 3.8-1.3 5-2.2.6-.7 1.5-3 1-4.5-.5-1-3.3-4-4.6-6.2q-1-2-1.3-4.3c.1-1 .5-2.2.2-3.2s-1.4-1.6-1.7-2.2q-.6-1.9-.8-3.9c-.3-1.5-3.2-2-6-2"/><path fill="#f2dac2" d="M246.3 222.5c-.9.5-.7 2.1-1.8 2.8a8 8 0 0 1-6.4.6c-.9-.4-1.8-1.6-3.1-1v.1q0 2.2.6 4l.8.4c1 .3 3.4.4 4.3.4 1.5-.1 3.8-1.3 5-2.2.6-.7 1.5-3 1-4.5z"/><path fill="#331d09" d="m228.6 212 .9.8c0 1-.8 1-1.2 1q-1.2 0-1.5-.8l1.4-1z"/><path fill="#f2f2da" d="m226.9 213 .3-.2q0 .7.9 1-.9-.1-1.2-.8"/><path fill="#bc9667" d="M229.9 213.9c-.3-.7-.2-2-1.3-2.1-.6 0-1.6 1.5-3.4 1.8 2-.4 2.8-1.5 3.2-1.5.9 0 1 1.3 1.5 1.8"/><path fill="#76490b" d="M238 225.9v.2q.7.2 1 .6t1.2.7c.7.2 1.6.1 1.9-.2v-.6l-1-.4q-1.4 0-3-.3m7.8-2.7c-.4.6-.5 1.5-1.1 2l.1.8c.3.1.8-.4.9-.7 0-.6-.3-.7 0-1.5z"/><path fill="#a69e96" d="M222.4 207.6c1.7-.2 3-2.4 3-3.6-.7-.5-2 .1-2.7-.8-.5-.8-.7-2.2-.2-3 .7-1.1 3.8-2.2 4.8-3 .8-.7 1.6-2 2.6-3-1.6.6-2.4 1.7-3.5 2.2-1.5.8-4.3.8-7 2.5a6 6 0 0 0-2.2 3.5 4 4 0 0 0 1.2 3c1.2 1 2.7 1.4 4 2.2"/><path fill="#807973" d="M230 194.1c-1 .6-2 2-2.9 2.7s-3 1.4-4 2.1c-.8.7-1.1 2-.9 2.8q0-.9.3-1.6c.7-1 3.8-2.1 4.8-3 .8-.6 1.6-2 2.6-3m-12.5 7.4-.3 1a4 4 0 0 0 1.2 2.9c1.2 1 2.7 1.4 4 2.2q1.5-.3 2.4-1.8c-1-.6-3.1 1.1-5.8-.6-.7-.5-2-1.7-1.5-3.7"/><path fill="url(#f)" d="M146.3 203.5 138 224c1.8 3.9 11.4 4.6 13.6 1.7l15.8-24.1-17.5-4z" transform="translate(191.7 -3.6)scale(1.40014)"/><path fill="url(#g)" d="m149.9 197.8-6.8 10.8 7 8 4.3-9.7c.7-1.4-6.3-6.3-4.5-9.1" transform="translate(191.7 -3.6)scale(1.40014)"/><path fill="url(#h)" d="M127.8 196.4 117.1 232c8.6 0 17-2.3 23-.9 2.5.6 4.5-1.5 4.8-2.4l9.5-21.8c-1.7 1.9-5.4-1-10.7-5.7-5.5-4.8-15-7.7-15.9-4.8" transform="translate(191.7 -3.6)scale(1.40014)"/><path fill="url(#i)" d="m127.8 196.4-4.5 15 17.5 4.1 3.3-9.8c.5-1.5-4-5.2-8.6-4.7-4 .4-8.3-2.7-7.7-4.6" transform="translate(191.7 -3.6)scale(1.40014)"/><path fill="url(#j)" d="m59 203.4 8.3 20.6c-1.7 4-11.4 4.7-13.5 1.7l-15.8-24 17.5-4z" transform="translate(191.7 -3.6)scale(1.40014)"/><path fill="url(#k)" d="m55.5 197.7 6.8 10.8-7 8.1L51 207c-.7-1.5 6.3-6.3 4.5-9.2" transform="translate(191.7 -3.6)scale(1.40014)"/><path fill="url(#l)" d="M77.6 196.4 88.3 232c-8.7 0-17-2.3-23-.9-2.5.6-4.5-1.5-4.8-2.4L51 206.9c1.7 1.9 5.4-1 10.6-5.7 5.5-4.8 15-7.7 16-4.8" transform="translate(191.7 -3.6)scale(1.40014)"/><path fill="url(#m)" d="m77.6 196.4 4.5 15-17.5 4.1-3.3-9.8c-.5-1.5 3.9-5.2 8.6-4.7 3.9.4 8.2-2.7 7.7-4.6" transform="translate(191.7 -3.6)scale(1.40014)"/><path fill="#dc1e19" d="M335.5 276.5a140 140 0 0 0-50.3 9.3c-2.6.7-7.2 0-7.7-1.4l13.4 39.7c.4 1.2 5 4.8 8.6 4a140 140 0 0 1 36-5 140 140 0 0 1 35.9 5c3.6.8 8.2-2.8 8.6-4l13.4-39.7c-.4 1.4-5.1 2.1-7.7 1.4a140 140 0 0 0-50.2-9.3"/><path fill="url(#n)" d="M-157 201.7a100 100 0 0 0-35.8-6.7v33.4a100 100 0 0 1 25.6 3.5c2.6.6 5.9-2 6.2-2.9l9.6-28.3c-.4 1-3.7 1.5-5.6 1" transform="translate(605.5 3.4)scale(1.40014)"/><path fill="url(#o)" d="M-228.7 201.6A100 100 0 0 1-193 195v33.3a100 100 0 0 0-25.6 3.5c-2.6.6-5.9-2-6.2-2.8l-9.6-28.4c.4 1 3.7 1.6 5.6 1" transform="translate(605.5 3.4)scale(1.40014)"/><g fill="#fff" stroke-width=".4" font-family="MongolianScript" font-size="7.1" font-weight="400" letter-spacing="0" style="line-height:1.25;-inkscape-font-specification:&quot;MongolianScript, Normal&quot;;font-variant-ligatures:normal;font-variant-caps:normal;font-variant-numeric:normal;font-feature-settings:normal;text-align:start" word-spacing="0" writing-mode="tb-rl"><g aria-label="ᠮᠣᠩᠭᠣᠯ" style="line-height:1.25;-inkscape-font-specification:&quot;MongolianScript, Normal&quot;;font-variant-ligatures:normal;font-variant-caps:normal;font-variant-numeric:normal;font-feature-settings:normal;text-align:start"><path d="M336.2 283.6v2.2h-1.7v-1.6l-3-.8 3.5-.8 1-.2.7-.2q.5-.1.5-.4t-.4-1l-.6-.8q.8 0 1.6.6 1 .5 1 1.1l2 .6v2.8l.9.4h-1.3l-1.1-.4v-2.6l-.6-.4q-.4.8-2.7 1-.5 0-.3.1z" style="-inkscape-font-specification:&quot;MongolianScript, Normal&quot;;font-variant-ligatures:normal;font-variant-caps:normal;font-variant-numeric:normal;font-feature-settings:normal;text-align:start"/><path d="M336.2 289.7h-1.7v-1.2q-1.3 0-2-.2-1.4-.3-1.4-1.3t1.3-1.4q1-.5 2-.5h1.8zm-1.7-1.6v-2.6h-.1q-.5 0-1 .4t-.6 1q0 1.1 1.4 1.2z" style="-inkscape-font-specification:&quot;MongolianScript, Normal&quot;;font-variant-ligatures:normal;font-variant-caps:normal;font-variant-numeric:normal;font-feature-settings:normal;text-align:start"/><path d="m334.5 291-3-.8 3-.9h1.7v2.6q2.5.5 2.4 2 0 .7-1 1-.5.3-1.4.4v.3h-1.7v-.5q2.5-.4 2.7-1.3.2-.7-.4-1.1t-1.4-.5q-1.4.2-2.2 1.4l-1.2-.7q1.4-1 2.5-1z" style="-inkscape-font-specification:&quot;MongolianScript, Normal&quot;;font-variant-ligatures:normal;font-variant-caps:normal;font-variant-numeric:normal;font-feature-settings:normal;text-align:start"/><path d="M336.2 300.6h-1.7v-1.3l-3-.8 3-.9v-.8l-3-.9 3-.8h1.7zm-6.3-1.1q0-.3-.5-.6l-.8-.4.4-.1.4-.2q.4-.3.5-.6 0 .3.5.6l.8.3q-.4 0-.8.3t-.5.7m0-2.4q0-.3-.5-.6t-.8-.3l.4-.2.4-.2q.4-.3.5-.6 0 .3.5.6l.8.4q-.4 0-.8.3t-.5.6" style="-inkscape-font-specification:&quot;MongolianScript, Normal&quot;;font-variant-ligatures:normal;font-variant-caps:normal;font-variant-numeric:normal;font-feature-settings:normal;text-align:start"/><path d="M336.2 304.7h-1.7v-1.3l-2-.1q-1.4-.3-1.4-1.3t1.3-1.5q1-.4 2-.4h1.8zm-1.7-1.7v-2.5h-.1q-.5 0-1 .4t-.6 1q0 1 1.4 1.1z" style="-inkscape-font-specification:&quot;MongolianScript, Normal&quot;;font-variant-ligatures:normal;font-variant-caps:normal;font-variant-numeric:normal;font-feature-settings:normal;text-align:start"/><path d="M338.8 307q-2.7.2-7.2-1l3-1.2v-.5h1.6v1l-2.7.5.1.1q3.2.6 4.7.5 1.6-.3 1.5-1.7v-2.3l1.7 3 .1.7q-.3.4-.8.6-.6.3-2 .4" style="-inkscape-font-specification:&quot;MongolianScript, Normal&quot;;font-variant-ligatures:normal;font-variant-caps:normal;font-variant-numeric:normal;font-feature-settings:normal;text-align:start"/></g><g aria-label="ᠨᠠᠶᠢᠷᠠᠮᠳᠠᠬᠤ" style="line-height:1.25;-inkscape-font-specification:&quot;MongolianScript, Normal&quot;;font-variant-ligatures:normal;font-variant-caps:normal;font-variant-numeric:normal;font-feature-settings:normal;text-align:start"><path d="m317.7 286.8-1.7.3-.2-1.4-3-.3 3.1-1.3 1-.5.7-.2q.4-.3.3-.6 0-.3-.5-.8-.3-.5-.7-.7.8-.1 1.7.2 1 .4 1.1 1t-.9 1.2l-.6.3-.8.2zm-6.5-.2q-.1-.3-.6-.5l-.8-.2.7-.5q.4-.3.4-.7.1.4.6.6l.8.2q-.3 0-.7.4t-.4.7" style="-inkscape-font-specification:&quot;MongolianScript, Normal&quot;;font-variant-ligatures:normal;font-variant-caps:normal;font-variant-numeric:normal;font-feature-settings:normal;text-align:start"/><path d="m318 289.1-1.6.3-.2-1.2-3-.4 2.7-1.3 1.7-.3z" style="-inkscape-font-specification:&quot;MongolianScript, Normal&quot;;font-variant-ligatures:normal;font-variant-caps:normal;font-variant-numeric:normal;font-feature-settings:normal;text-align:start"/><path d="m318 288.7.6 3.4-1.7.3-.4-2.6-.9.6q-1 .7-1.4 1.7l-1.7-1 1-.6q1-.7 2.8-1.5z" style="-inkscape-font-specification:&quot;MongolianScript, Normal&quot;;font-variant-ligatures:normal;font-variant-caps:normal;font-variant-numeric:normal;font-feature-settings:normal;text-align:start"/><path d="m317 292.2 1.6-.3.6 3.4-1.7.3-.4-2.6-1 .6q-1 .7-1.3 1.7l-1.8-1 1.1-.7q1-.7 2.8-1.4" style="-inkscape-font-specification:&quot;MongolianScript, Normal&quot;;font-variant-ligatures:normal;font-variant-caps:normal;font-variant-numeric:normal;font-feature-settings:normal;text-align:start"/><path d="M317.7 296.8q0-.2-.2-.1l-2 2.4-1.3-.7 1.2-1.1-1.4-.8 2.7-.4.8-.7 1.6-.3.8 4.2-1.7.3z" style="-inkscape-font-specification:&quot;MongolianScript, Normal&quot;;font-variant-ligatures:normal;font-variant-caps:normal;font-variant-numeric:normal;font-feature-settings:normal;text-align:start"/><path d="m320.3 301.7-1.7.3-.2-1.2-3-.3 2.7-1.3 1.7-.4z" style="-inkscape-font-specification:&quot;MongolianScript, Normal&quot;;font-variant-ligatures:normal;font-variant-caps:normal;font-variant-numeric:normal;font-feature-settings:normal;text-align:start"/><path d="m320.6 302-1.2.2 1 .3.4 2-1.7.2-.2-1.4-3-.3 2.7-1.4 1.6-.3v.2l2.8.2.7 4.1-1.7-.5-.6-3.2z" style="-inkscape-font-specification:&quot;MongolianScript, Normal&quot;;font-variant-ligatures:normal;font-variant-caps:normal;font-variant-numeric:normal;font-feature-settings:normal;text-align:start"/><path d="M316.1 307.1q-.6.5-.4 1.2.2.8 1 .6.5 0 .7-.4t.1-.8-.5-.6-.9 0m1-.9q1.2.2 1.4 1.2.2.7-.3 1.3t-1.4.7q-.7.1-1.2-.2t-.7-.9q-.3-1 .7-1.9l1.6-1.3q1-.8 1.8-1l1.7-.3 1 5.6-1.7.3-.8-4.8q-.3 0-1 .6-.8.4-1 .7" style="-inkscape-font-specification:&quot;MongolianScript, Normal&quot;;font-variant-ligatures:normal;font-variant-caps:normal;font-variant-numeric:normal;font-feature-settings:normal;text-align:start"/><path d="m322.1 312-1.7.2-.2-1.2-3-.3 2.7-1.3 1.7-.4z" style="-inkscape-font-specification:&quot;MongolianScript, Normal&quot;;font-variant-ligatures:normal;font-variant-caps:normal;font-variant-numeric:normal;font-feature-settings:normal;text-align:start"/><path d="m323 317-1.7.2-.2-1.2-3-.4 2.7-1.3-.1-.8-3.1-.3.7-.4.8-.4 1.3-.6 1.6-.3z" style="-inkscape-font-specification:&quot;MongolianScript, Normal&quot;;font-variant-ligatures:normal;font-variant-caps:normal;font-variant-numeric:normal;font-feature-settings:normal;text-align:start"/><path d="m323.6 321-1.1.2v-.3q1.7-.4 2.2-1 .4-.5.3-1.3t-.7-1.2-1.3-.4l.4 2.3q-1 .6-2.4.9-2.5.4-2.7-.8-.2-1 1-1.7.8-.7 1.8-.9l1.8-.3q1.3-.2 2.4.2t1.4 1.7q.2 1.1-1 1.8-.8.6-2 .8m-1.9-1.5-.4-2.3q-.6.1-1 .6t-.4 1.2q.1.8 1.5.6z" style="-inkscape-font-specification:&quot;MongolianScript, Normal&quot;;font-variant-ligatures:normal;font-variant-caps:normal;font-variant-numeric:normal;font-feature-settings:normal;text-align:start"/></g><g aria-label="ᠤᠯᠤᠰ" style="line-height:1.25;-inkscape-font-specification:&quot;MongolianScript, Normal&quot;;font-variant-ligatures:normal;font-variant-caps:normal;font-variant-numeric:normal;font-feature-settings:normal;text-align:start"><path d="m370.4 294.6.3-1.3h-.3q-3-1-2.5-2.3.2-.9 1.6-1 1.2-.2 2.2 0l.2-.8-2.6-1.6 3.5.3h1.7q.5 0 .6-.3v-1l-.4-1q.7.3 1.4 1 .7.9.5 1.5t-1.3.6h-.7l-.8-.1-1.8 6.4zm1.1-4.1q-.6-.2-1.2 0t-.8.8.3 1l.4.4.6.2z" style="-inkscape-font-specification:&quot;MongolianScript, Normal&quot;;font-variant-ligatures:normal;font-variant-caps:normal;font-variant-numeric:normal;font-feature-settings:normal;text-align:start"/><path d="M372 295.3q1 1.1 1.9 1.2t1-.2l.6-2.2.4 1 .4 2q-.1.4-.9.4l-1.4-.2q-1.2-.5-2.2-1.5l-.5 1.7-1.6-.5.3-1.3-2.6-1.6h3.1l1.6.5z" style="-inkscape-font-specification:&quot;MongolianScript, Normal&quot;;font-variant-ligatures:normal;font-variant-caps:normal;font-variant-numeric:normal;font-feature-settings:normal;text-align:start"/><path d="m370.1 301.5-1.6-.4.4-1.3-1.9-.7q-1.3-.7-1-1.7.3-.8 1.6-1 1.1-.2 2 .1l1.8.5zm-1.1-2.1.7-2.5h-1.3q-.6.4-.8.9-.3 1 1 1.5z" style="-inkscape-font-specification:&quot;MongolianScript, Normal&quot;;font-variant-ligatures:normal;font-variant-caps:normal;font-variant-numeric:normal;font-feature-settings:normal;text-align:start"/><path d="m369.4 304 .5.3.7.6.6.6q1.2 1.3 1.5 2.4-2.5-2.7-5.6-3l-2.8-1.6h5.3l-4.4-2.8h3.4l1.7.6-.2.4 3.6 2.3q.2.2 0 .2z" style="-inkscape-font-specification:&quot;MongolianScript, Normal&quot;;font-variant-ligatures:normal;font-variant-caps:normal;font-variant-numeric:normal;font-feature-settings:normal;text-align:start"/></g><g aria-label="ᠪᠦᢉᠦᠳᠡ" style="line-height:1.25;-inkscape-font-specification:&quot;MongolianScript, Normal&quot;;font-variant-ligatures:normal;font-variant-caps:normal;font-variant-numeric:normal;font-feature-settings:normal;text-align:start"><path d="m300.6 295.1-1.6.5-.8-2.7-.8.7q-1 1-1.2 1.9l-1.9-.7 1-.8q.9-.8 2.7-1.8l-.1-.5h-.1q-3.2 1-3.6-.4-.2-.8 2-2.3-2.5.4-2.8-.5t.8-1.8q.8-.8 1.8-1l1.7-.5q1.3-.4 2.5.3 1.3.6 1.7 1.8.3 1.1-.5 2.3-.8 1-2 1.6zm-1.3-4.5q.6-.5.9-1.2.3-.8 0-1.6t-.8-1.5q-.8-.8-1.5-.7zm-2.2-1.5h-.2q-.5.1-.8.7t-.3 1.1.8.6h.5l.6-.2zm-.9-3q-.6.1-1 .7t-.2 1.2.8.5l1-.1z" style="-inkscape-font-specification:&quot;MongolianScript, Normal&quot;;font-variant-ligatures:normal;font-variant-caps:normal;font-variant-numeric:normal;font-feature-settings:normal;text-align:start"/><path d="m300.4 300.7-.7-2.4-.5.2q-.5.4-.7.8t0 .9q.3.8 2 .5m2.6-3.2q-.3-1.2-1.3-1.5-.7-.3-1.8 0-1.5.5-2 1.7l-1.5-.5q1-1 2.6-1.7l1.5-.4q1.5-.2 2.5.2 1.3.5 1.7 1.9.3 1-.4 2-.6.7-2.2 1.4l.4 1.4-1.6.4-.4-1.4q-1 .4-2.2.4t-1.5-1q0-.7.5-1.3t1.4-.9l2.6-.7.7 2.7q.7-.3 1-1t0-1.7" style="-inkscape-font-specification:&quot;MongolianScript, Normal&quot;;font-variant-ligatures:normal;font-variant-caps:normal;font-variant-numeric:normal;font-feature-settings:normal;text-align:start"/><path d="M298.2 305q-.6.5-.4 1.2.4.7 1.1.5.5-.1.7-.5t0-.8q-.1-.3-.5-.5t-1 0m.9-1q1.1 0 1.5 1 .2.7-.2 1.3t-1.3 1q-.8 0-1.3-.2t-.7-.8q-.4-1 .5-2 .4-.6 1.4-1.4 1-.9 1.7-1.2l1.6-.5 1.6 5.4-1.6.5-1.4-4.6q-.2 0-1 .6zm10.2 6.1q-1.4-.4-3-.6l-1.5-.1h-4.9l2.5-2.1v-.1l1.6-.5.1.6-1.2.5-1.1.7q-.1 0 0 0l3.2-.5q3.5-.4 5.2.2l1-.6-.8 1.1z" style="-inkscape-font-specification:&quot;MongolianScript, Normal&quot;;font-variant-ligatures:normal;font-variant-caps:normal;font-variant-numeric:normal;font-feature-settings:normal;text-align:start"/></g><g aria-label="ᠠᠷᠠᠳ" style="line-height:1.25;-inkscape-font-specification:&quot;MongolianScript, Normal&quot;;font-variant-ligatures:normal;font-variant-caps:normal;font-variant-numeric:normal;font-feature-settings:normal;text-align:start"><path d="m354.3 289.4-1.7-.3.2-1.2-2.7-1.4 3-.3.2-.8-2.8-1.4 3.5-.1h1.1l.7-.1q.5-.1.5-.4l-.2-1-.4-.9q.7.2 1.5.8.8.8.7 1.4t-1.3.8h-1.4z" style="-inkscape-font-specification:&quot;MongolianScript, Normal&quot;;font-variant-ligatures:normal;font-variant-caps:normal;font-variant-numeric:normal;font-feature-settings:normal;text-align:start"/><path d="M352.5 290q0-.2-.2-.1l-2.6 1.5-1.1-1 1.5-.7-1-1.2 2.7.6.9-.4 1.7.3-.8 4.1-1.6-.3z" style="-inkscape-font-specification:&quot;MongolianScript, Normal&quot;;font-variant-ligatures:normal;font-variant-caps:normal;font-variant-numeric:normal;font-feature-settings:normal;text-align:start"/><path d="m353.2 295.6-1.7-.3.3-1.2-2.8-1.4 3-.3 1.7.3z" style="-inkscape-font-specification:&quot;MongolianScript, Normal&quot;;font-variant-ligatures:normal;font-variant-caps:normal;font-variant-numeric:normal;font-feature-settings:normal;text-align:start"/><path d="M355.8 305q-1-1-2.5-2l-1.3-.7-1.5-.7-2.8-1.4 3-.3.3-1.7q-1.3-.2-1.9-.5-1.3-.5-1.2-1.5t1.5-1.2q1.1-.3 2-.1l1.9.3-1 5h-1.5l-1 .1q1.6.4 3 1 3.4 1 4.6 2.3h1.2l-1.2.6zm-4.7-7.2.4-2.5h-.1q-.5-.1-1.1.2t-.7.9q-.2 1 1.2 1.3z" style="-inkscape-font-specification:&quot;MongolianScript, Normal&quot;;font-variant-ligatures:normal;font-variant-caps:normal;font-variant-numeric:normal;font-feature-settings:normal;text-align:start"/></g></g><g transform="translate(191.7 -3.6)scale(1.40014)"><circle cx="165.6" cy="188.9" r="18" fill="#dc1e19"/><circle cx="165.6" cy="188.9" r="16" fill="#c8f0f5"/></g><path fill="#bf8620" d="M429.6 244.7c-1.5 0-6.7 1.1-7.4 2-1.3 1.6-1.2 2.3-1.7 3.8-3.4 1.4-6.8 2.4-10.4 4.5-1.1.9-1 1.5-.9 2-1 .5-2 .7-2.8 1.4-.4.5-.6 2.3-.3 2.9.4.6 1.3 1.3 1.8 1.4q.1.8.7 1.3 1.4.6 2.8.2 5.6-1.4 6.6 4.1c.2 1.9-1.6 3.7-1 6.4.7 1.7 1.5 1.4 2.3 2.9l2 3.1.9 2.5h1.7c10.2 0 18.6-7 21.3-17l-1.7-2.4c-.8-1.1-2.2-1.7-2.5-3.4s0-3.5-.7-5.3c-.3-.6-1.6-1.4-2.4-2-.1-1-.2-1.5-.6-2.4a5 5 0 0 0-1.7-1.7q-.3-1-1.1-2.3c-.6-.6-3.1-1.8-4.6-2z"/><path fill="#ad6320" d="M409.2 257q1.6-.1 2.6-.7c.5-.3.3-.6 1.2-1.2-1.2.6-1 1-1.7 1.3s-.9.5-2.1.6"/><path fill="#4d2c0e" d="M422.9 254.6c-.1 1.2 0 2.2 1.6 2.2.7 0 1-.8.7-1.2-.2-.3-.9-1.1-2.3-1"/><path fill="#331d09" d="M422.3 255c1.1-.7 1.8-.3 2-.1.7.4 1 .6 1.4 1.6q-.2-1-1.1-1.7c-.6-.5-1.7-.7-2.3.2"/><path fill="#e1e0d8" d="M423 255q0 .5.3 1.1.6.6 1.1.4c-.6 0-1.2-.2-1.4-1.6"/><path fill="#ad6320" d="M406.5 261.7q1.5 1.1 2.6.9c1-.4 2.4-1 3.1-1.1q1.2 0 2 .4.3.1 0 .3-1-.4-2-.4c-.4 0-1.9.6-2.8 1h-1.5z"/><path fill="#ac6120" d="M421.5 262.8c1.3.2 2.9 1.4 3 2.1.2 1.3-1.6 1.6-2 4.1q-.2-1.1-.7-2c-1.1 0-1.2 1.7-1.9 1.8 0-.7-.4-.7-.7-1-.4 0-.6 1.4-1.3 1.5 0-4.2-1.5-3.7-3-5.2.8.2 3.4.8 4.4 1.6q.3-.6 0-2c.7 1 1.8.3 2.5 1.4.2-1.1-.4-1.2-.3-2.3m-3.8 7.4c-.4 3 1.4 2.7 1.3 4.4 1.6-1.2-.2-2.8 1.2-3.9-.2 1.8 1 1.6 1.4 2.7.7-.2.6-1.8 1.2-2-.1 1.5 1.4 2.2 2 3.3.5-.1.7-1.6 1-1.6 0 1.8 1.5 2.7 1.7 3.8.3 1.7-.5 3.4-.3 6-.2-1.5-1.4-1.7-1.5-3-.5.3-.2 1.1-.4 1.9-.3-1.2-1.6-1.3-1.7-2.3-.8.6.2 1.4-.5 2 0-.7-.6-.6-.9-1.2-.5.6 0 .9-.5 1.7-.4-1.2-.9-2-2-3.9-.6-1-3-2.4-2.8-4.4q.2-2.4.8-3.5" opacity=".9"/><path fill="#ac6120" d="M431 268.3c-.3.3.7 3.4-.2 7.7-.5 1.6-1.8 2.6-1.8 4.2q0 1.5.9 2.2 4-1.2 7-3.6.4-2.5-.5-4.7c-.7-1.7-3-3.7-3-5.5-.3.1.2 2.6-.2 3.2-.5-1.7-1.9-1.7-2.1-3.5m3.2-21.8c-1.2 1.7-2.7.6-3.4 2 1.6-.2.7 1.2 2.2 1.4-2.3 1-4.7-.8-6.8 0 1-.6.3-1 1.3-1.2-1.8-.4-1.7 1.2-5 1 .4-1 1.6-.9 1.7-2-1 1.2-3.1.8-3.7 2.8.9-.3 1.7 0 2.6 0 0 .2-.6.3-.6.5 1.4-.4 2.6.2 4.7 0 0 .2-.5.1-.5.3 1-.2 1.6.5 2.8.4-.2.4-1.3.3-1.6.6 1.7.2 2.5 1.7 3.5 1.7 1.1-.1 1.8-1 2.7-1.2s3 .3 3.4 1q.5 1 0 2c-.3 1.1-2 1.7-3.8 1.5.7 2.9-1.5 6.6-1 8.5.4-2.2 3-2.8 3.3-5.5.8 2.3-.3 3.9.6 4.9 0-1.4.6-1.1.8-2q.8 2.4 1.2 4.3 0 1.8-.2 3.5c0 1.9.6 4 1.3 5.4a22 22 0 0 0 5.5-10.1c-.8-1.2-1.4-2.4-2.6-3.5a5 5 0 0 1-1.4-1.7l-.2-.7-.1-1.4q.2-1.8-.6-3.9c-.3-.7-2.2-1.7-2.3-2.1l-.7-2.3q-.6-1-1.7-1.7-.2-1.3-1.4-2.5"/><path fill="#ac6120" d="m433 255.1.4.8c.3 1.4 3.8.7 3.2-1.2-.7-2-4-.6-3.6.4m-3.4-10.4c-1.5 0-6.4 1-7.4 1.8 2.7-1.2 3.2-.3 6-1-1 .4-.3.5-1.3 1 4.5-1 4.7 0 6.6-.4-1-.6-2.6-1.3-3.6-1.4z"/><g transform="matrix(-1.40014 0 0 1.40014 191.7 -3.6)"><circle cx="-39.8" cy="188.8" r="18" fill="#dc1e19"/><circle cx="-39.8" cy="188.8" r="16" fill="#c8f0f5"/></g><path fill="#b9946f" d="M242.6 243.7c1.5 2.2 2.8 1.9 4 2.4q1.8 1 2.5 3.5c-1 0-1.3.3-2.3.3-.4-.8-.5-2.1-1.2-2.6-1-.6-3.3-1.5-3-3.6"/><path fill="#a68563" d="M242.6 243.7c-.3 2.1 2 3 3 3.6.7.5.8 1.8 1.2 2.6h.8l.4-.2q0-1.2-1.4-2.5c-.8-.8-3.4-1-4-3.5"/><path fill="#98c3d9" d="M243.6 251.5a9 9 0 0 0-2.8-.7c-.9 0-1.2.4-2.5.1.7.8 2.8 2.5 3.3 2.6-2.5 2.4-6.1 3.4-9 4.3-2 1-4.9 1.6-7.5 2.4v.6a22 22 0 0 0 15.1 21.2q.1-2.5.5-3.7c.4-1.2 3-3.4 3.4-4.5.3-.8.3-3.5.9-5.2.4-1.3 1.4-2.6 2-4 3.1.6 6.8 2.7 8.7 2.7.2 0 .8 0 .9-.3q.7.2 1-.4.3-.8 0-2.3c.2-.3.3-.3.1-1-.2-2.2-2.5-6.7-3.8-9.4-1-1.7-2.4-4.1-4.8-4.3-1 0-4 .5-5.5 1.9"/><path fill="#b98a25" d="m249.5 256-1.4.5q-.1.3.5.6.8 0 1.1-.2l.1-.6z"/><path d="M250.3 257c-.6-.5-.5-1.2-.9-1q-1 .4-2.4.6c.8 0 2.3-.3 2.5-.5.3 0 .2.5.8 1"/><path d="M249.5 256.5h-1q-.1.1 0 .2h1q.2-.1 0-.2m7 10.5q-1.3-1.3-2-1.5-.1 0 0 0l2 1.6m0-4q-.3 0-.2.4c.2.4 1 .4 1.3 1v-.2c0-.4-1-.6-1-1.1z"/><path fill="#b9946f" d="M235.8 244.2c0 2.3 1.4 3.2 2.5 3.6 2.2 1 3.2-.3 6.8 2.5l2.9-.6q-1.6-2-5.5-2.9c-2.2-.5-3.7.3-6.7-2.6"/><path fill="#a68563" d="M235.8 244.2c0 2.3 1.4 3.2 2.5 3.6 2.2 1 3.2-.3 6.8 2.5l1.1-.2h.2c-1-1.4-2.2-1.8-4.6-2.4-2.2-.6-5 0-6-3.5"/><path fill="#59a0b2" d="M251 253.2v-1c.4 1.2 1.3 1.5 1.5 2.3.2-.2-.2-.9-.1-1.2.9 1.7 1.6 1.8 2.2 3.6-.1-1.3-.4-1.7-.6-2.6l1 1.8-1-2.8c-.3-1-1.4-2.2-2.3-3.2q-1.2-1-3.4-.7c-1 0-2.4.2-3.3.7-.7.3-1.4 1.2-1.4 1.4 1 0 1.7-.6 3-.2q-.3-.5-1.2-.6c.8 0 1.2-.4 2.2 0q-.2-.5-.5-.5c1 .2 2.4.5 2.7 1.1.5 1 1 1 1.1 1.9m-.3 20c-.1-.9-.4-.6-.5-1.5-.4 1.2-.2 1.4-.7 2.2 0-.7-.4-2.3-.4-3.4-.5.4-.3 2.6-.8 3.3 0-3-1.1-5.6-1.2-8.5-.7 3.2-2.5 6.5-2.4 9.6-.2-.3 0-.8-.3-1.1l-.7 2.9-.6-1.4c0 .8-.8 2.2-.8 2.9-.1-.4-.1-1.3-.4-1.4 0 1.2-1 2.7-.7 3.7-.3-.2-.2-1.7-.5-1.8 0 1.4-.3 2.1-.5 3.3-5.4-2-7.5-4.4-9.3-6.2.2-1.8 1.3-1.5 1.2-4.3.5 2 1.3 3 1.1 5.3.3-2 .8-2.2 1.2-3.7 0 2.3.9 2 1.1 4.2 1-3.5.2-6.3 1.2-7.8-.2 3.5 1.4 3.4 1.5 6.3.7-.8.3-3.3 1-3.8.4 1 1.2.6 1.5 2 .5-4.7-2.3-9.4 1.4-14-2.3 5 .5 8.7.3 11.9.8-1.7-.3-6.1.8-8-.3 2 .8 2 1 3.8.4-1.3 0-2.7.7-3.3 0 1 .5 1.4.4 2 1-.7 1.3-4.2 2-4.8 0 1.5.5 1.8.6 3 .3-.8.6-.2 1.3-1.4-.2 1.5.6 1.1.6 2.2q.3-.7.8-1.2l.8 1.4c.4.6 2.1 1.3 2.4.7.3.7-1 1.7-.7 2.4-.6-.3 0-1.1-.6-1.4-1 .7-1.3 4.8-1.8 5.9m-12.4-22.3c.6.6 1.4 1.7 2 1.8l1.5 1c.4 0 1 .4 1.1.4q0-.8-1-1.7c-1.1-.7-2-.4-3.6-1.5m-13.2 9.3 7.5-2.4c1-.3 6.7-2.6 8.4-3.7.5 4-2.4 4.4-2.3 7.2-.6-.7-.4-2.2-.7-3.3 0 3.7-2 4.6-2.2 7.2-.6-2 .2-5.5-.2-6.4-.1 2.6-2.7 4.6-2.6 6.6-.4-1-.3-2.6-.8-3.2-.2 1.9-1.5 2.3-1.8 4-.5-.9 0-3-.7-4-.5 3.6-1.7 3.5-2.1 5.8-.5-1 .3-2.2-.7-4.4-.1 1.6-1 2.2-1 3.4-.7-2-1-5.2-.8-6.8"/></g><g fill="#fff" stroke-width=".4" aria-label="ᠮᠣᠩᠭᠣᠯ ᠠᠷᠠᠳ ᠤᠯᠤᠰ" font-family="MongolianScript" font-size="21.2" font-weight="400" letter-spacing="0" style="line-height:1.25;-inkscape-font-specification:&quot;MongolianScript, Normal&quot;;font-variant-ligatures:normal;font-variant-caps:normal;font-variant-numeric:normal;font-feature-settings:normal;text-align:start" word-spacing="0" writing-mode="tb-rl"><path d="M904.8 121.3V132h-8.3v-7.5l-14.4-4.2 16.6-3.6 5.5-1.1 3-.9q2.3-.8 2.3-2.2 0-1.8-1.8-4.7-1.4-2.3-3-4 3.9.2 7.9 2.7 4.4 2.7 4.6 5.8l10.3 2.7v13.6l4.2 2h-6.2l-5.6-2v-12.8l-3-1.5q-2 3.7-13.2 4.4-2.4.2-1.4.8z" style="-inkscape-font-specification:&quot;MongolianScript, Normal&quot;;font-variant-ligatures:normal;font-variant-caps:normal;font-variant-numeric:normal;font-feature-settings:normal;text-align:start"/><path d="M904.8 151.5h-8.3v-6.1q-6.4 0-9.6-.7-7-1.6-7-6.5 0-4.3 6.1-7 5.1-2.4 10-2.4h8.8zm-8.3-8.2V131h-.6q-2.7 0-5.2 2-2.7 2-2.7 4.8 0 5.4 7 5.6z" style="-inkscape-font-specification:&quot;MongolianScript, Normal&quot;;font-variant-ligatures:normal;font-variant-caps:normal;font-variant-numeric:normal;font-feature-settings:normal;text-align:start"/><path d="m896.5 157.8-14.4-4.2 14.4-4h8.3v12.3q12.3 2.6 11.7 10-.5 3.6-5 5.3-2.5.9-6.7 1.4v1.7h-8.3v-2.5q12-2 12.9-6.3 1-3.4-1.8-5.5-2.9-2.2-6.7-2.2-6.9.9-11 6.6l-5.8-3.2q6.8-4.8 12.4-5.3z" style="-inkscape-font-specification:&quot;MongolianScript, Normal&quot;;font-variant-ligatures:normal;font-variant-caps:normal;font-variant-numeric:normal;font-feature-settings:normal;text-align:start"/><path d="M904.8 204.8h-8.3v-6.3l-14.4-4.1 14.4-4.2v-4l-14.4-4.2 14.4-4.2h8.3zm-31-5.6q-.3-1.4-2.5-3-2-1.3-3.7-1.6l1.8-.7 2-1q2.1-1.5 2.4-3 .3 1.6 2.5 3 1.9 1.3 3.7 1.7-2 .3-3.7 1.6-2 1.4-2.5 3m0-11.6q-.3-1.4-2.5-3-2-1.3-3.7-1.6l1.8-.7 2-1q2.1-1.5 2.4-3 .3 1.5 2.5 3 1.9 1.3 3.7 1.7-2 .4-3.7 1.6-2 1.4-2.5 3" style="-inkscape-font-specification:&quot;MongolianScript, Normal&quot;;font-variant-ligatures:normal;font-variant-caps:normal;font-variant-numeric:normal;font-feature-settings:normal;text-align:start"/><path d="M904.8 224.8h-8.3v-6q-6.4 0-9.6-.8-7-1.6-7-6.5 0-4.3 6.1-7 5.1-2.3 10-2.3h8.8zm-8.3-8.2v-12.4h-.6q-2.7 0-5.2 2-2.7 2-2.7 4.8 0 5.4 7 5.6z" style="-inkscape-font-specification:&quot;MongolianScript, Normal&quot;;font-variant-ligatures:normal;font-variant-caps:normal;font-variant-numeric:normal;font-feature-settings:normal;text-align:start"/><path d="M917.5 236.6q-13.3.5-35.4-5l14.4-6.2V223h8.3v5l-13 2.3q-.5.4.2.7 15.8 2.9 23 2.2 7.6-1.3 7.4-8.1l.3-11.5 7.8 14.9q.8 2.3.7 3.2-1.2 1.9-4 3.2-2.9 1.4-9.7 1.8m-12.7 63.7h-8.3v-6.5l-14.4-4.2 14.4-4v-4.2l-14.4-4.2 16.6-3.5 5.5-1.2 3-.8q2.3-1 2.3-2.3 0-1.8-1.8-4.7-1.4-2.3-3-4 4 .3 8 2.8 4.5 2.8 4.5 6t-5.2 4.8q-1.6.5-3.4.8t-3.8.4z" style="-inkscape-font-specification:&quot;MongolianScript, Normal&quot;;font-variant-ligatures:normal;font-variant-caps:normal;font-variant-numeric:normal;font-feature-settings:normal;text-align:start"/><path d="M896.5 304.7q.1-1-1-.6l-11.4 9.7-6.1-4.2 7-4.5-6.2-4.8 13.6.4 4.1-2.8h8.3v20.6h-8.3z" style="-inkscape-font-specification:&quot;MongolianScript, Normal&quot;;font-variant-ligatures:normal;font-variant-caps:normal;font-variant-numeric:normal;font-feature-settings:normal;text-align:start"/><path d="M904.8 330.9h-8.3v-6.2l-14.4-4.1 14.4-4v-.2h8.3z" style="-inkscape-font-specification:&quot;MongolianScript, Normal&quot;;font-variant-ligatures:normal;font-variant-caps:normal;font-variant-numeric:normal;font-feature-settings:normal;text-align:start"/><path d="M925.5 374.3q-6-4.1-13.8-7.3-3-1.3-6.7-2.5-3.6-1.3-8-2.5l-15-4.2 14.5-4.2v-8.2q-6.4 0-9.6-.7-7-1.6-7-6.5 0-4.3 6.1-7.1 5.1-2.3 10-2.3h8.8v24.8l-7.6 1.9-5 1.1q8.4.6 15.6 1.7 17.1 2.9 24.3 7.7l5.8-1.2-5.6 4.1zm-29-31v-12.4h-.6q-2.7 0-5.2 1.9-2.7 2.1-2.7 4.9 0 5.4 7 5.6zm0 93.2v-6.4h-1.4q-15.2 0-15.2-7.2 0-4.2 6.5-7 5.3-2.3 10.1-2.3v-4.2l-14.4-4.1 16.6-3.6 5.5-1.2 3-.8q2.3-.9 2.3-2.2 0-1.9-1.8-4.8-1.4-2.2-3-4 4 .3 8 2.8 4.5 2.8 4.5 6t-5.2 4.9q-1.6.5-3.4.8t-3.8.4v33zm0-20.9h-.6q-2.7 0-5.2 2-2.7 2-2.7 4.8 0 3.4 2.8 4.7 1 .4 2.4.7t3.3.2z" style="-inkscape-font-specification:&quot;MongolianScript, Normal&quot;;font-variant-ligatures:normal;font-variant-caps:normal;font-variant-numeric:normal;font-feature-settings:normal;text-align:start"/><path d="M904.8 437.8q6.6 4 11 3.2 3.8-1.2 4-2.5l.2-10.9 3.5 4.4q2.6 4.4 4.2 8.3.3 2.1-3.3 3.3t-7.1.8q-6.3-.4-12.5-4v8.7h-8.3v-6.6l-14.4-4.1 14.4-4.2h8.3z" style="-inkscape-font-specification:&quot;MongolianScript, Normal&quot;;font-variant-ligatures:normal;font-variant-caps:normal;font-variant-numeric:normal;font-feature-settings:normal;text-align:start"/><path d="M904.8 469.6h-8.3v-6.4q-6.4 0-9.6-.8-7-1.6-7-6.4 0-4.3 6.1-7.1 5.1-2.3 10-2.3h8.8zm-8.3-8.5v-12.4h-.6q-2.7 0-5.2 1.9-2.7 2.1-2.7 4.9 0 5.4 7 5.5z" style="-inkscape-font-specification:&quot;MongolianScript, Normal&quot;;font-variant-ligatures:normal;font-variant-caps:normal;font-variant-numeric:normal;font-feature-settings:normal;text-align:start"/><path d="m904.8 482.2 3 1 3.8 1.7 3.9 2.2q7.2 4.3 10 9.1-15.2-9.6-30.3-6.3l-15.2-4 24.8-7.2-24.8-7.2 16.5-4.2h8.3v2.3l20 5.8q1 .8-.2 1.3z" style="-inkscape-font-specification:&quot;MongolianScript, Normal&quot;;font-variant-ligatures:normal;font-variant-caps:normal;font-variant-numeric:normal;font-feature-settings:normal;text-align:start"/></g><g fill="#fff" stroke-width=".4" aria-label="ᠪᠦᢉᠦᠳᠡ ᠨᠠᠶᠢᠷᠠᠮᠳᠠᠬᠤ" font-family="MongolianScript" font-size="21.2" font-weight="400" letter-spacing="0" style="line-height:1.25;-inkscape-font-specification:&quot;MongolianScript, Normal&quot;;font-variant-ligatures:normal;font-variant-caps:normal;font-variant-numeric:normal;font-feature-settings:normal;text-align:start" word-spacing="0" writing-mode="tb-rl"><path d="M299.3 161.5h-8.2v-13.6l-4.6 2.3q-5.8 2.7-8.4 7l-7.6-6 5.5-2.4q5.3-2.4 15-4.8v-2.2h-.3q-16.2 0-16.2-6.8 0-4.4 12.2-8.5-12.2-1.2-12.2-6 0-4.3 6-7.3 5.1-2.5 10-2.5h8.8q6.4 0 11.4 4.7 5.2 4.7 5.2 11 0 5.6-5.4 10-5 4.2-11.2 5.1zm0-23q3.8-1.5 6-4.7 2.4-3.3 2.4-7.3 0-4.3-2-8.4-2.5-4.9-6.4-5zm-8.2-10.4h-.8q-2.7 0-5 2-2.7 2.3-2.7 5.2 0 2.8 3 3.7.9.3 2.2.4l3.3.3zm0-15.2h-.4q-3 0-5.5 2.2-2.6 2.2-2.6 5 0 2.9 3 3.8 1.7.6 5.5.6z" style="-inkscape-font-specification:&quot;MongolianScript, Normal&quot;;font-variant-ligatures:normal;font-variant-caps:normal;font-variant-numeric:normal;font-feature-settings:normal;text-align:start"/><path d="M291 187.3v-12l-2.8.4q-2.8.8-4.4 2.6t-1.2 4q.4 4.5 8.5 5m16.7-11.3q0-6.2-4.2-9-2.7-2.4-8.8-2.4-7.6.5-11.1 5.7l-7-4.9q6.6-3.6 14.6-4.3h7.9q7.2 1 11.2 4.3 5.7 4.3 5.6 11.1 0 5-4.4 9-4 2.9-12.2 3.7v7.2h-8.2v-7.2q-5.4.1-11-1.4-5.4-1.4-5.4-7 .4-3 3.6-5t7.8-2.2q4.6-.3 13.2 0v13.7q3.5-.3 6-3.2 2.4-2.8 2.4-8.1" style="-inkscape-font-specification:&quot;MongolianScript, Normal&quot;;font-variant-ligatures:normal;font-variant-caps:normal;font-variant-numeric:normal;font-feature-settings:normal;text-align:start"/><path d="M274.7 204.5q-3.6 1.8-3.4 5.4.7 4 4.6 3.8 2.2.1 3.7-1.4 1.4-1.5 1.2-3.8 0-1.7-1.8-3-1.8-1.5-4.3-1m5.6-3.5q5.3 1.8 5.7 7 0 3.4-2.8 5.9t-7.4 2.4q-3.6-.2-5.7-2t-2.5-4.9q-.3-5 5-8.8 3.1-2.1 8.8-4.9 5.7-2.7 9.7-3.2h8.2v27.7h-8.2v-23.6q-1.1 0-5.3 1.6-4.1 1.8-5.5 2.8" style="-inkscape-font-specification:&quot;MongolianScript, Normal&quot;;font-variant-ligatures:normal;font-variant-caps:normal;font-variant-numeric:normal;font-feature-settings:normal;text-align:start"/><path d="M320 243.5q-6-4.1-13.7-7.3-3.1-1.3-6.7-2.5-3.7-1.3-8-2.5l-15-4.2 14.5-6.3v-.7h8.2v2.8l-6.4 1-6.3 1.5q-.5.3 0 .5 8.6.6 15.8 1.7 17 2.9 24.2 7.7l5.8-1.2-5.5 4.1zM299.3 319h-8.2v-7l-14.5-4.1 16.7-3.6 5.4-1.2 3-.8q2.3-.9 2.3-2.2 0-1.9-1.7-4.8-1.4-2.3-3-4 3.9.3 8 2.8 4.5 2.8 4.5 6t-5.3 4.8q-1.6.5-3.3.8-1.8.4-3.9.5zm-31-6.5q-.3-1.4-2.5-2.9-2-1.3-3.7-1.7 1.8-.5 3.7-1.7 2.3-1.5 2.5-3 .4 1.6 2.5 3 2 1.3 3.7 1.7-1.7.3-3.7 1.6-2.1 1.5-2.5 3" style="-inkscape-font-specification:&quot;MongolianScript, Normal&quot;;font-variant-ligatures:normal;font-variant-caps:normal;font-variant-numeric:normal;font-feature-settings:normal;text-align:start"/><path d="M299.3 330.3h-8.2v-6.1l-14.5-4.2 14.5-3.8v-.3h8.2z" style="-inkscape-font-specification:&quot;MongolianScript, Normal&quot;;font-variant-ligatures:normal;font-variant-caps:normal;font-variant-numeric:normal;font-feature-settings:normal;text-align:start"/><path d="M299.3 328.3v17.2h-8.2v-13l-4.6 2q-5.8 2.7-8.4 7l-7.6-6 5.5-2.5q5.3-2.3 15-4.7z" style="-inkscape-font-specification:&quot;MongolianScript, Normal&quot;;font-variant-ligatures:normal;font-variant-caps:normal;font-variant-numeric:normal;font-feature-settings:normal;text-align:start"/><path d="M291 344.4h8.3v17h-8.2v-13l-4.6 2q-5.8 2.7-8.4 7l-7.6-6 6-2.7q5.7-2.5 14.6-4.3" style="-inkscape-font-specification:&quot;MongolianScript, Normal&quot;;font-variant-ligatures:normal;font-variant-caps:normal;font-variant-numeric:normal;font-feature-settings:normal;text-align:start"/><path d="M291 367.2q.2-1.1-1-.7l-11.3 9.8-6.2-4.2 7-4.6-6.2-4.8 13.7.5 4-2.8h8.3V381h-8.2z" style="-inkscape-font-specification:&quot;MongolianScript, Normal&quot;;font-variant-ligatures:normal;font-variant-caps:normal;font-variant-numeric:normal;font-feature-settings:normal;text-align:start"/><path d="M299.3 393.3h-8.2v-6.1l-14.5-4.2 14.5-3.9v-.2h8.2z" style="-inkscape-font-specification:&quot;MongolianScript, Normal&quot;;font-variant-ligatures:normal;font-variant-caps:normal;font-variant-numeric:normal;font-feature-settings:normal;text-align:start"/><path d="M300.6 394.6q-2.8-.7-6.1 0 3.8 1.9 4.8 2.6v9.4h-8.2v-7l-14.5-4.2 14.5-4.1h8.2v1l13 3V416l-7.7-3.8v-16z" style="-inkscape-font-specification:&quot;MongolianScript, Normal&quot;;font-variant-ligatures:normal;font-variant-caps:normal;font-variant-numeric:normal;font-feature-settings:normal;text-align:start"/><path d="M274.7 415.7q-3.6 1.7-3.4 5.4.7 3.9 4.6 3.8 2.2 0 3.7-1.4 1.4-1.6 1.2-3.8 0-1.7-1.8-3.1t-4.3-.9m5.6-3.6q5.3 1.9 5.7 7 0 3.5-2.8 6t-7.4 2.4q-3.6-.2-5.7-2t-2.5-5q-.3-4.9 5-8.7 3.1-2.2 8.8-4.9t9.7-3.2h8.2v27.7h-8.2v-23.6q-1.1-.1-5.3 1.6t-5.5 2.7" style="-inkscape-font-specification:&quot;MongolianScript, Normal&quot;;font-variant-ligatures:normal;font-variant-caps:normal;font-variant-numeric:normal;font-feature-settings:normal;text-align:start"/><path d="M299.3 444h-8.2v-6l-14.5-4.2 14.5-3.8v-.3h8.2z" style="-inkscape-font-specification:&quot;MongolianScript, Normal&quot;;font-variant-ligatures:normal;font-variant-caps:normal;font-variant-numeric:normal;font-feature-settings:normal;text-align:start"/><path d="M299.3 468.8h-8.2v-6.1l-14.5-4.2 14.5-4v-4.2l-14.5-4.2 3.8-1 3.9-1.2q6.3-1.9 6.8-1.9h8.2z" style="-inkscape-font-specification:&quot;MongolianScript, Normal&quot;;font-variant-ligatures:normal;font-variant-caps:normal;font-variant-numeric:normal;font-feature-settings:normal;text-align:start"/><path d="M299 489.3q-5.2-.1-5.7-.4v-1q8.8-.7 12-3.3 2.4-2 2.4-5.9t-2.2-6.5q-2.2-2.8-6.2-3v11.7q-5.2 1.9-12.4 1.9-12.4 0-12.4-6.2 0-4.3 6-7.3 5.1-2.5 10-2.5h8.8q6.7 0 11.2 2.9 5.4 3.2 5.4 9.5 0 5.4-6.1 8-4.7 2.1-10.8 2.1m-8-8.8v-11.6h-.3q-2.8 0-5.4 2-2.7 2.4-2.7 5.2 0 4.2 7 4.3z" style="-inkscape-font-specification:&quot;MongolianScript, Normal&quot;;font-variant-ligatures:normal;font-variant-caps:normal;font-variant-numeric:normal;font-feature-settings:normal;text-align:start"/></g></svg>